<?xml version="1.0" encoding="utf-8" standalone="no"?>
<!DOCTYPE svg PUBLIC "-//W3C//DTD SVG 1.1//EN"
  "http://www.w3.org/Graphics/SVG/1.1/DTD/svg11.dtd">
<!-- Created with matplotlib (http://matplotlib.org/) -->
<svg height="376.56pt" version="1.1" viewBox="0 0 722.16 376.56" width="722.16pt" xmlns="http://www.w3.org/2000/svg" xmlns:xlink="http://www.w3.org/1999/xlink">
 <defs>
  <style type="text/css">
*{stroke-linecap:butt;stroke-linejoin:round;}
  </style>
 </defs>
 <g id="figure_1">
  <g id="patch_1">
   <path d="M 0 376.56 
L 722.16 376.56 
L 722.16 0 
L 0 0 
z
" style="fill:#ffffff;"/>
  </g>
  <g id="axes_1">
   <g id="patch_2">
    <path d="M 90.27 335.1384 
L 649.944 335.1384 
L 649.944 45.1872 
L 90.27 45.1872 
z
" style="fill:#ffffff;"/>
   </g>
   <g id="matplotlib.axis_1">
    <g id="xtick_1">
     <g id="line2d_1">
      <defs>
       <path d="M 0 0 
L 0 3.5 
" id="m37f7349a27" style="stroke:#000000;stroke-width:0.8;"/>
      </defs>
      <g>
       <use style="stroke:#000000;stroke-width:0.8;" x="147.549386" xlink:href="#m37f7349a27" y="335.1384"/>
      </g>
     </g>
     <g id="text_1">
      <!-- 2600 -->
      <defs>
       <path d="M 19.1875 8.296875 
L 53.609375 8.296875 
L 53.609375 0 
L 7.328125 0 
L 7.328125 8.296875 
Q 12.9375 14.109375 22.625 23.890625 
Q 32.328125 33.6875 34.8125 36.53125 
Q 39.546875 41.84375 41.421875 45.53125 
Q 43.3125 49.21875 43.3125 52.78125 
Q 43.3125 58.59375 39.234375 62.25 
Q 35.15625 65.921875 28.609375 65.921875 
Q 23.96875 65.921875 18.8125 64.3125 
Q 13.671875 62.703125 7.8125 59.421875 
L 7.8125 69.390625 
Q 13.765625 71.78125 18.9375 73 
Q 24.125 74.21875 28.421875 74.21875 
Q 39.75 74.21875 46.484375 68.546875 
Q 53.21875 62.890625 53.21875 53.421875 
Q 53.21875 48.921875 51.53125 44.890625 
Q 49.859375 40.875 45.40625 35.40625 
Q 44.1875 33.984375 37.640625 27.21875 
Q 31.109375 20.453125 19.1875 8.296875 
z
" id="DejaVuSans-32"/>
       <path d="M 33.015625 40.375 
Q 26.375 40.375 22.484375 35.828125 
Q 18.609375 31.296875 18.609375 23.390625 
Q 18.609375 15.53125 22.484375 10.953125 
Q 26.375 6.390625 33.015625 6.390625 
Q 39.65625 6.390625 43.53125 10.953125 
Q 47.40625 15.53125 47.40625 23.390625 
Q 47.40625 31.296875 43.53125 35.828125 
Q 39.65625 40.375 33.015625 40.375 
z
M 52.59375 71.296875 
L 52.59375 62.3125 
Q 48.875 64.0625 45.09375 64.984375 
Q 41.3125 65.921875 37.59375 65.921875 
Q 27.828125 65.921875 22.671875 59.328125 
Q 17.53125 52.734375 16.796875 39.40625 
Q 19.671875 43.65625 24.015625 45.921875 
Q 28.375 48.1875 33.59375 48.1875 
Q 44.578125 48.1875 50.953125 41.515625 
Q 57.328125 34.859375 57.328125 23.390625 
Q 57.328125 12.15625 50.6875 5.359375 
Q 44.046875 -1.421875 33.015625 -1.421875 
Q 20.359375 -1.421875 13.671875 8.265625 
Q 6.984375 17.96875 6.984375 36.375 
Q 6.984375 53.65625 15.1875 63.9375 
Q 23.390625 74.21875 37.203125 74.21875 
Q 40.921875 74.21875 44.703125 73.484375 
Q 48.484375 72.75 52.59375 71.296875 
z
" id="DejaVuSans-36"/>
       <path d="M 31.78125 66.40625 
Q 24.171875 66.40625 20.328125 58.90625 
Q 16.5 51.421875 16.5 36.375 
Q 16.5 21.390625 20.328125 13.890625 
Q 24.171875 6.390625 31.78125 6.390625 
Q 39.453125 6.390625 43.28125 13.890625 
Q 47.125 21.390625 47.125 36.375 
Q 47.125 51.421875 43.28125 58.90625 
Q 39.453125 66.40625 31.78125 66.40625 
z
M 31.78125 74.21875 
Q 44.046875 74.21875 50.515625 64.515625 
Q 56.984375 54.828125 56.984375 36.375 
Q 56.984375 17.96875 50.515625 8.265625 
Q 44.046875 -1.421875 31.78125 -1.421875 
Q 19.53125 -1.421875 13.0625 8.265625 
Q 6.59375 17.96875 6.59375 36.375 
Q 6.59375 54.828125 13.0625 64.515625 
Q 19.53125 74.21875 31.78125 74.21875 
z
" id="DejaVuSans-30"/>
      </defs>
      <g transform="translate(134.824386 349.736838)scale(0.1 -0.1)">
       <use xlink:href="#DejaVuSans-32"/>
       <use x="63.623047" xlink:href="#DejaVuSans-36"/>
       <use x="127.246094" xlink:href="#DejaVuSans-30"/>
       <use x="190.869141" xlink:href="#DejaVuSans-30"/>
      </g>
     </g>
    </g>
    <g id="xtick_2">
     <g id="line2d_2">
      <g>
       <use style="stroke:#000000;stroke-width:0.8;" x="211.5487" xlink:href="#m37f7349a27" y="335.1384"/>
      </g>
     </g>
     <g id="text_2">
      <!-- 2800 -->
      <defs>
       <path d="M 31.78125 34.625 
Q 24.75 34.625 20.71875 30.859375 
Q 16.703125 27.09375 16.703125 20.515625 
Q 16.703125 13.921875 20.71875 10.15625 
Q 24.75 6.390625 31.78125 6.390625 
Q 38.8125 6.390625 42.859375 10.171875 
Q 46.921875 13.96875 46.921875 20.515625 
Q 46.921875 27.09375 42.890625 30.859375 
Q 38.875 34.625 31.78125 34.625 
z
M 21.921875 38.8125 
Q 15.578125 40.375 12.03125 44.71875 
Q 8.5 49.078125 8.5 55.328125 
Q 8.5 64.0625 14.71875 69.140625 
Q 20.953125 74.21875 31.78125 74.21875 
Q 42.671875 74.21875 48.875 69.140625 
Q 55.078125 64.0625 55.078125 55.328125 
Q 55.078125 49.078125 51.53125 44.71875 
Q 48 40.375 41.703125 38.8125 
Q 48.828125 37.15625 52.796875 32.3125 
Q 56.78125 27.484375 56.78125 20.515625 
Q 56.78125 9.90625 50.3125 4.234375 
Q 43.84375 -1.421875 31.78125 -1.421875 
Q 19.734375 -1.421875 13.25 4.234375 
Q 6.78125 9.90625 6.78125 20.515625 
Q 6.78125 27.484375 10.78125 32.3125 
Q 14.796875 37.15625 21.921875 38.8125 
z
M 18.3125 54.390625 
Q 18.3125 48.734375 21.84375 45.5625 
Q 25.390625 42.390625 31.78125 42.390625 
Q 38.140625 42.390625 41.71875 45.5625 
Q 45.3125 48.734375 45.3125 54.390625 
Q 45.3125 60.0625 41.71875 63.234375 
Q 38.140625 66.40625 31.78125 66.40625 
Q 25.390625 66.40625 21.84375 63.234375 
Q 18.3125 60.0625 18.3125 54.390625 
z
" id="DejaVuSans-38"/>
      </defs>
      <g transform="translate(198.8237 349.736838)scale(0.1 -0.1)">
       <use xlink:href="#DejaVuSans-32"/>
       <use x="63.623047" xlink:href="#DejaVuSans-38"/>
       <use x="127.246094" xlink:href="#DejaVuSans-30"/>
       <use x="190.869141" xlink:href="#DejaVuSans-30"/>
      </g>
     </g>
    </g>
    <g id="xtick_3">
     <g id="line2d_3">
      <g>
       <use style="stroke:#000000;stroke-width:0.8;" x="275.548014" xlink:href="#m37f7349a27" y="335.1384"/>
      </g>
     </g>
     <g id="text_3">
      <!-- 3000 -->
      <defs>
       <path d="M 40.578125 39.3125 
Q 47.65625 37.796875 51.625 33 
Q 55.609375 28.21875 55.609375 21.1875 
Q 55.609375 10.40625 48.1875 4.484375 
Q 40.765625 -1.421875 27.09375 -1.421875 
Q 22.515625 -1.421875 17.65625 -0.515625 
Q 12.796875 0.390625 7.625 2.203125 
L 7.625 11.71875 
Q 11.71875 9.328125 16.59375 8.109375 
Q 21.484375 6.890625 26.8125 6.890625 
Q 36.078125 6.890625 40.9375 10.546875 
Q 45.796875 14.203125 45.796875 21.1875 
Q 45.796875 27.640625 41.28125 31.265625 
Q 36.765625 34.90625 28.71875 34.90625 
L 20.21875 34.90625 
L 20.21875 43.015625 
L 29.109375 43.015625 
Q 36.375 43.015625 40.234375 45.921875 
Q 44.09375 48.828125 44.09375 54.296875 
Q 44.09375 59.90625 40.109375 62.90625 
Q 36.140625 65.921875 28.71875 65.921875 
Q 24.65625 65.921875 20.015625 65.03125 
Q 15.375 64.15625 9.8125 62.3125 
L 9.8125 71.09375 
Q 15.4375 72.65625 20.34375 73.4375 
Q 25.25 74.21875 29.59375 74.21875 
Q 40.828125 74.21875 47.359375 69.109375 
Q 53.90625 64.015625 53.90625 55.328125 
Q 53.90625 49.265625 50.4375 45.09375 
Q 46.96875 40.921875 40.578125 39.3125 
z
" id="DejaVuSans-33"/>
      </defs>
      <g transform="translate(262.823014 349.736838)scale(0.1 -0.1)">
       <use xlink:href="#DejaVuSans-33"/>
       <use x="63.623047" xlink:href="#DejaVuSans-30"/>
       <use x="127.246094" xlink:href="#DejaVuSans-30"/>
       <use x="190.869141" xlink:href="#DejaVuSans-30"/>
      </g>
     </g>
    </g>
    <g id="xtick_4">
     <g id="line2d_4">
      <g>
       <use style="stroke:#000000;stroke-width:0.8;" x="339.547328" xlink:href="#m37f7349a27" y="335.1384"/>
      </g>
     </g>
     <g id="text_4">
      <!-- 3200 -->
      <g transform="translate(326.822328 349.736838)scale(0.1 -0.1)">
       <use xlink:href="#DejaVuSans-33"/>
       <use x="63.623047" xlink:href="#DejaVuSans-32"/>
       <use x="127.246094" xlink:href="#DejaVuSans-30"/>
       <use x="190.869141" xlink:href="#DejaVuSans-30"/>
      </g>
     </g>
    </g>
    <g id="xtick_5">
     <g id="line2d_5">
      <g>
       <use style="stroke:#000000;stroke-width:0.8;" x="403.546642" xlink:href="#m37f7349a27" y="335.1384"/>
      </g>
     </g>
     <g id="text_5">
      <!-- 3400 -->
      <defs>
       <path d="M 37.796875 64.3125 
L 12.890625 25.390625 
L 37.796875 25.390625 
z
M 35.203125 72.90625 
L 47.609375 72.90625 
L 47.609375 25.390625 
L 58.015625 25.390625 
L 58.015625 17.1875 
L 47.609375 17.1875 
L 47.609375 0 
L 37.796875 0 
L 37.796875 17.1875 
L 4.890625 17.1875 
L 4.890625 26.703125 
z
" id="DejaVuSans-34"/>
      </defs>
      <g transform="translate(390.821642 349.736838)scale(0.1 -0.1)">
       <use xlink:href="#DejaVuSans-33"/>
       <use x="63.623047" xlink:href="#DejaVuSans-34"/>
       <use x="127.246094" xlink:href="#DejaVuSans-30"/>
       <use x="190.869141" xlink:href="#DejaVuSans-30"/>
      </g>
     </g>
    </g>
    <g id="xtick_6">
     <g id="line2d_6">
      <g>
       <use style="stroke:#000000;stroke-width:0.8;" x="467.545955" xlink:href="#m37f7349a27" y="335.1384"/>
      </g>
     </g>
     <g id="text_6">
      <!-- 3600 -->
      <g transform="translate(454.820955 349.736838)scale(0.1 -0.1)">
       <use xlink:href="#DejaVuSans-33"/>
       <use x="63.623047" xlink:href="#DejaVuSans-36"/>
       <use x="127.246094" xlink:href="#DejaVuSans-30"/>
       <use x="190.869141" xlink:href="#DejaVuSans-30"/>
      </g>
     </g>
    </g>
    <g id="xtick_7">
     <g id="line2d_7">
      <g>
       <use style="stroke:#000000;stroke-width:0.8;" x="531.545269" xlink:href="#m37f7349a27" y="335.1384"/>
      </g>
     </g>
     <g id="text_7">
      <!-- 3800 -->
      <g transform="translate(518.820269 349.736838)scale(0.1 -0.1)">
       <use xlink:href="#DejaVuSans-33"/>
       <use x="63.623047" xlink:href="#DejaVuSans-38"/>
       <use x="127.246094" xlink:href="#DejaVuSans-30"/>
       <use x="190.869141" xlink:href="#DejaVuSans-30"/>
      </g>
     </g>
    </g>
    <g id="xtick_8">
     <g id="line2d_8">
      <g>
       <use style="stroke:#000000;stroke-width:0.8;" x="595.544583" xlink:href="#m37f7349a27" y="335.1384"/>
      </g>
     </g>
     <g id="text_8">
      <!-- 4000 -->
      <g transform="translate(582.819583 349.736838)scale(0.1 -0.1)">
       <use xlink:href="#DejaVuSans-34"/>
       <use x="63.623047" xlink:href="#DejaVuSans-30"/>
       <use x="127.246094" xlink:href="#DejaVuSans-30"/>
       <use x="190.869141" xlink:href="#DejaVuSans-30"/>
      </g>
     </g>
    </g>
   </g>
   <g id="matplotlib.axis_2">
    <g id="ytick_1">
     <g id="line2d_9">
      <defs>
       <path d="M 0 0 
L -3.5 0 
" id="m80f00826d3" style="stroke:#000000;stroke-width:0.8;"/>
      </defs>
      <g>
       <use style="stroke:#000000;stroke-width:0.8;" x="90.27" xlink:href="#m80f00826d3" y="303.923935"/>
      </g>
     </g>
     <g id="text_9">
      <!-- 0.10 -->
      <defs>
       <path d="M 10.6875 12.40625 
L 21 12.40625 
L 21 0 
L 10.6875 0 
z
" id="DejaVuSans-2e"/>
       <path d="M 12.40625 8.296875 
L 28.515625 8.296875 
L 28.515625 63.921875 
L 10.984375 60.40625 
L 10.984375 69.390625 
L 28.421875 72.90625 
L 38.28125 72.90625 
L 38.28125 8.296875 
L 54.390625 8.296875 
L 54.390625 0 
L 12.40625 0 
z
" id="DejaVuSans-31"/>
      </defs>
      <g transform="translate(61.004375 307.723154)scale(0.1 -0.1)">
       <use xlink:href="#DejaVuSans-30"/>
       <use x="63.623047" xlink:href="#DejaVuSans-2e"/>
       <use x="95.410156" xlink:href="#DejaVuSans-31"/>
       <use x="159.033203" xlink:href="#DejaVuSans-30"/>
      </g>
     </g>
    </g>
    <g id="ytick_2">
     <g id="line2d_10">
      <g>
       <use style="stroke:#000000;stroke-width:0.8;" x="90.27" xlink:href="#m80f00826d3" y="259.150189"/>
      </g>
     </g>
     <g id="text_10">
      <!-- 0.15 -->
      <defs>
       <path d="M 10.796875 72.90625 
L 49.515625 72.90625 
L 49.515625 64.59375 
L 19.828125 64.59375 
L 19.828125 46.734375 
Q 21.96875 47.46875 24.109375 47.828125 
Q 26.265625 48.1875 28.421875 48.1875 
Q 40.625 48.1875 47.75 41.5 
Q 54.890625 34.8125 54.890625 23.390625 
Q 54.890625 11.625 47.5625 5.09375 
Q 40.234375 -1.421875 26.90625 -1.421875 
Q 22.3125 -1.421875 17.546875 -0.640625 
Q 12.796875 0.140625 7.71875 1.703125 
L 7.71875 11.625 
Q 12.109375 9.234375 16.796875 8.0625 
Q 21.484375 6.890625 26.703125 6.890625 
Q 35.15625 6.890625 40.078125 11.328125 
Q 45.015625 15.765625 45.015625 23.390625 
Q 45.015625 31 40.078125 35.4375 
Q 35.15625 39.890625 26.703125 39.890625 
Q 22.75 39.890625 18.8125 39.015625 
Q 14.890625 38.140625 10.796875 36.28125 
z
" id="DejaVuSans-35"/>
      </defs>
      <g transform="translate(61.004375 262.949407)scale(0.1 -0.1)">
       <use xlink:href="#DejaVuSans-30"/>
       <use x="63.623047" xlink:href="#DejaVuSans-2e"/>
       <use x="95.410156" xlink:href="#DejaVuSans-31"/>
       <use x="159.033203" xlink:href="#DejaVuSans-35"/>
      </g>
     </g>
    </g>
    <g id="ytick_3">
     <g id="line2d_11">
      <g>
       <use style="stroke:#000000;stroke-width:0.8;" x="90.27" xlink:href="#m80f00826d3" y="214.376442"/>
      </g>
     </g>
     <g id="text_11">
      <!-- 0.20 -->
      <g transform="translate(61.004375 218.175661)scale(0.1 -0.1)">
       <use xlink:href="#DejaVuSans-30"/>
       <use x="63.623047" xlink:href="#DejaVuSans-2e"/>
       <use x="95.410156" xlink:href="#DejaVuSans-32"/>
       <use x="159.033203" xlink:href="#DejaVuSans-30"/>
      </g>
     </g>
    </g>
    <g id="ytick_4">
     <g id="line2d_12">
      <g>
       <use style="stroke:#000000;stroke-width:0.8;" x="90.27" xlink:href="#m80f00826d3" y="169.602696"/>
      </g>
     </g>
     <g id="text_12">
      <!-- 0.25 -->
      <g transform="translate(61.004375 173.401914)scale(0.1 -0.1)">
       <use xlink:href="#DejaVuSans-30"/>
       <use x="63.623047" xlink:href="#DejaVuSans-2e"/>
       <use x="95.410156" xlink:href="#DejaVuSans-32"/>
       <use x="159.033203" xlink:href="#DejaVuSans-35"/>
      </g>
     </g>
    </g>
    <g id="ytick_5">
     <g id="line2d_13">
      <g>
       <use style="stroke:#000000;stroke-width:0.8;" x="90.27" xlink:href="#m80f00826d3" y="124.828949"/>
      </g>
     </g>
     <g id="text_13">
      <!-- 0.30 -->
      <g transform="translate(61.004375 128.628168)scale(0.1 -0.1)">
       <use xlink:href="#DejaVuSans-30"/>
       <use x="63.623047" xlink:href="#DejaVuSans-2e"/>
       <use x="95.410156" xlink:href="#DejaVuSans-33"/>
       <use x="159.033203" xlink:href="#DejaVuSans-30"/>
      </g>
     </g>
    </g>
    <g id="ytick_6">
     <g id="line2d_14">
      <g>
       <use style="stroke:#000000;stroke-width:0.8;" x="90.27" xlink:href="#m80f00826d3" y="80.055203"/>
      </g>
     </g>
     <g id="text_14">
      <!-- 0.35 -->
      <g transform="translate(61.004375 83.854422)scale(0.1 -0.1)">
       <use xlink:href="#DejaVuSans-30"/>
       <use x="63.623047" xlink:href="#DejaVuSans-2e"/>
       <use x="95.410156" xlink:href="#DejaVuSans-33"/>
       <use x="159.033203" xlink:href="#DejaVuSans-35"/>
      </g>
     </g>
    </g>
   </g>
   <g id="line2d_15">
    <path clip-path="url(#pbdd764d90d)" d="M 115.709727 58.3668 
L 115.869726 59.208546 
L 116.34972 64.850038 
L 116.509719 65.118681 
L 117.149712 69.81097 
L 117.789705 77.852334 
L 117.949703 78.407529 
L 118.109702 78.282162 
L 118.2697 81.201411 
L 118.429698 81.828243 
L 118.749695 83.780378 
L 118.909693 83.458008 
L 119.22969 86.627989 
L 119.709684 91.803834 
L 119.869683 92.896313 
L 120.189679 97.230412 
L 120.349678 96.997588 
L 120.509676 98.681081 
L 120.669674 98.609443 
L 121.789662 114.423531 
L 121.94966 114.602626 
L 122.269657 117.127865 
L 122.429655 117.772607 
L 122.749652 122.590262 
L 122.90965 123.915565 
L 123.389645 132.207663 
L 123.549643 131.168912 
L 124.669631 143.633923 
L 125.629621 158.01525 
L 125.789619 158.230164 
L 126.589611 170.462352 
L 126.909607 174.724812 
L 127.389602 182.103526 
L 127.5496 185.022774 
L 127.709599 184.736222 
L 127.869597 185.703335 
L 128.029595 187.637561 
L 128.669588 199.995115 
L 129.789576 213.194415 
L 130.109573 218.137437 
L 130.269571 219.265735 
L 130.429569 221.57606 
L 130.589568 222.023798 
L 130.909564 225.87434 
L 131.229561 232.053117 
L 131.549557 233.002321 
L 131.869554 235.491741 
L 132.029552 236.476763 
L 132.349549 241.276509 
L 132.669545 242.136165 
L 133.14954 249.890978 
L 133.469537 253.401239 
L 134.10953 261.156052 
L 134.269528 262.427627 
L 134.749523 269.573517 
L 134.909521 270.433173 
L 135.389516 276.271669 
L 135.549515 276.988049 
L 135.869511 279.907297 
L 136.189508 284.330943 
L 136.509504 286.086074 
L 136.669503 286.175622 
L 136.829501 287.787477 
L 136.989499 288.056119 
L 137.149497 289.291875 
L 137.469494 293.930435 
L 137.629492 294.700543 
L 137.789491 296.24076 
L 137.949489 295.972118 
L 138.109487 294.82591 
L 138.429484 298.264533 
L 138.74948 298.963004 
L 138.909479 301.434515 
L 139.229475 302.150895 
L 139.389473 301.989709 
L 139.70947 305.947708 
L 139.869468 306.825274 
L 140.029467 306.287989 
L 140.189465 306.502903 
L 140.349463 308.078939 
L 140.509461 311.625019 
L 140.66946 311.642929 
L 140.829458 312.054847 
L 140.989456 312.108576 
L 141.309453 312.968232 
L 141.789448 315.690475 
L 141.949446 317.803796 
L 142.109444 317.839615 
L 142.269443 316.24567 
L 142.589439 318.950004 
L 142.749437 317.517244 
L 142.909436 318.054529 
L 143.229432 320.88423 
L 143.549429 319.773841 
L 143.709427 320.311126 
L 144.029424 321.9588 
L 144.189422 320.973778 
L 144.509419 320.794683 
L 144.989413 318.967914 
L 145.149412 318.699271 
L 145.30941 319.82757 
L 145.469408 320.024574 
L 145.629407 319.666384 
L 145.789405 317.356059 
L 145.949403 317.176964 
L 146.109401 318.573905 
L 146.2694 318.3769 
L 146.589396 319.82757 
L 146.749395 320.669316 
L 147.069391 321.188692 
L 147.229389 320.060393 
L 147.389388 320.239488 
L 147.709384 318.072439 
L 147.869383 318.627633 
L 148.029381 317.821706 
L 148.189379 315.905389 
L 148.349377 316.24567 
L 148.509376 314.83082 
L 148.669374 314.615906 
L 148.829372 313.809978 
L 148.98937 313.917435 
L 149.149369 312.753318 
L 149.309367 313.165236 
L 149.469365 312.198123 
L 149.789362 308.204305 
L 150.109358 308.562495 
L 150.589353 304.210487 
L 150.749352 304.192577 
L 150.90935 304.568677 
L 151.069348 304.46122 
L 151.229346 304.586586 
L 151.549343 302.025528 
L 151.86934 295.757204 
L 152.349334 291.620109 
L 152.509333 290.939548 
L 152.669331 289.130689 
L 152.989328 288.987413 
L 153.149326 287.751658 
L 153.469322 284.492129 
L 153.629321 283.829478 
L 154.109316 278.74318 
L 154.269314 277.704429 
L 154.58931 272.170394 
L 154.749309 271.221191 
L 154.909307 271.686838 
L 155.069305 271.292829 
L 156.029295 261.120233 
L 156.189293 260.744134 
L 156.349292 258.057709 
L 156.50929 259.580016 
L 156.669288 258.129347 
L 156.989285 252.398308 
L 157.46928 248.350761 
L 157.789276 245.306146 
L 157.949274 243.783839 
L 158.109273 243.407739 
L 158.429269 240.900409 
L 158.749266 236.24394 
L 158.909264 234.721632 
L 159.229261 230.853181 
L 159.869254 223.617743 
L 160.029252 224.244576 
L 160.349249 220.823862 
L 160.829244 211.278099 
L 161.309238 205.17096 
L 161.629235 201.24878 
L 161.789233 200.675676 
L 162.10923 195.89384 
L 162.269228 195.714745 
L 162.429226 192.168664 
L 162.589225 191.488103 
L 163.229218 183.196005 
L 163.549214 182.30053 
L 163.869211 178.808178 
L 164.189208 174.81436 
L 164.829201 170.641447 
L 164.989199 166.808814 
L 165.149197 166.755085 
L 165.309196 164.534308 
L 165.629192 158.74954 
L 165.78919 157.710789 
L 165.949189 155.687015 
L 166.269185 150.546989 
L 166.909178 144.117479 
L 167.069177 143.454828 
L 167.549172 140.231118 
L 167.70917 141.090774 
L 168.189165 135.126911 
L 168.829158 128.643672 
L 168.989156 124.345393 
L 169.149154 123.127547 
L 169.309153 124.685673 
L 169.469151 124.542397 
L 169.949146 119.294914 
L 170.109144 119.921747 
L 170.269142 116.984589 
L 170.429141 116.698037 
L 170.749137 118.059159 
L 170.909136 112.811676 
L 171.069134 111.790834 
L 171.549129 106.991089 
L 172.509118 103.050999 
L 172.669117 103.068908 
L 172.829115 102.280891 
L 173.149111 97.964701 
L 173.30911 95.475281 
L 173.629106 94.81263 
L 173.789105 93.129137 
L 173.949103 92.878404 
L 174.109101 93.039589 
L 174.429098 88.812948 
L 174.589096 88.633853 
L 175.069091 84.819129 
L 175.229089 84.837039 
L 175.389087 82.974451 
L 175.549086 82.634171 
L 175.709084 82.831175 
L 175.869082 82.186433 
L 176.029081 82.562533 
L 176.349077 79.535827 
L 176.509075 80.646216 
L 176.669074 83.762469 
L 176.829072 82.580442 
L 176.98907 82.616261 
L 177.469065 81.165592 
L 177.629063 83.869926 
L 177.789062 82.616261 
L 177.94906 83.565464 
L 178.109058 83.637102 
L 178.269057 81.684967 
L 178.429055 82.902813 
L 178.589053 80.270117 
L 178.90905 82.813266 
L 179.069048 82.437166 
L 179.229046 83.941564 
L 179.389045 83.314732 
L 179.549043 83.36846 
L 179.709041 82.329709 
L 180.029038 85.571328 
L 180.189036 85.356414 
L 180.349034 84.586306 
L 180.509033 84.586306 
L 180.669031 84.80122 
L 180.989027 86.771265 
L 181.309024 85.750423 
L 181.469022 83.959473 
L 181.629021 86.198161 
L 181.789019 86.627989 
L 181.949017 86.59217 
L 182.429012 88.938314 
L 182.58901 91.409825 
L 182.749009 90.460621 
L 183.868997 95.86929 
L 184.028995 94.669354 
L 184.188993 94.651444 
L 184.348991 96.782674 
L 184.668988 98.269163 
L 184.828986 97.606511 
L 185.468979 103.050999 
L 185.628978 103.516646 
L 186.108973 106.59708 
L 186.428969 110.87745 
L 186.748966 111.361006 
L 187.068962 112.65049 
L 187.228961 115.641376 
L 187.388959 115.963747 
L 187.708955 120.15457 
L 188.028952 121.730606 
L 188.18895 122.518624 
L 189.14894 131.365916 
L 189.308938 132.207663 
L 189.468937 131.491283 
L 190.428926 141.23405 
L 190.748923 146.58899 
L 191.068919 147.896383 
L 191.228918 147.788926 
L 191.388916 148.290392 
L 192.668902 160.630037 
L 192.828901 161.489693 
L 193.148897 165.555149 
L 193.468894 168.331121 
L 193.78889 172.002568 
L 194.108887 175.262097 
L 194.268885 175.978477 
L 194.588882 180.187209 
L 194.74888 181.94234 
L 194.908878 182.407987 
L 195.228875 183.715381 
L 195.388873 185.900339 
L 195.70887 192.079116 
L 196.028866 195.714745 
L 196.348863 199.368282 
L 196.828858 202.609902 
L 197.148854 207.964842 
L 197.308852 207.66038 
L 197.468851 208.717041 
L 197.948846 216.794224 
L 198.108844 216.615129 
L 198.42884 220.555219 
L 198.748837 225.981797 
L 198.908835 225.659426 
L 199.068834 226.572811 
L 199.228832 228.883136 
L 199.548828 230.136801 
L 199.708827 233.539606 
L 199.868825 234.202257 
L 200.028823 234.381352 
L 200.188822 234.936546 
L 200.988813 243.085368 
L 201.30881 244.643495 
L 201.788804 248.798498 
L 201.948803 247.616471 
L 202.588796 253.275873 
L 202.908792 252.774407 
L 203.068791 252.971411 
L 203.228789 254.4579 
L 203.388787 259.150189 
L 203.548786 258.075619 
L 203.868782 261.94407 
L 204.02878 263.448468 
L 204.348777 264.666314 
L 204.508775 265.991617 
L 204.668774 265.687155 
L 204.828772 265.812522 
L 205.308767 271.722657 
L 205.468765 272.385308 
L 205.628763 272.242032 
L 205.788762 271.93757 
L 205.94876 272.618131 
L 206.268756 276.844773 
L 206.428755 277.901434 
L 206.588753 277.525334 
L 206.90875 279.280465 
L 207.228746 279.423741 
L 207.708741 283.632473 
L 208.188736 285.727884 
L 208.348734 286.336807 
L 208.508732 285.996527 
L 208.828729 288.306852 
L 209.148726 288.127757 
L 209.468722 289.435151 
L 209.788719 291.154462 
L 209.948717 291.064915 
L 210.108715 290.652996 
L 210.268714 291.888752 
L 210.428712 290.312716 
L 210.908707 291.94248 
L 211.068705 293.249874 
L 211.228703 293.590154 
L 211.388702 292.461856 
L 211.868696 296.885502 
L 212.028695 296.187032 
L 212.188693 296.025846 
L 212.348691 295.649747 
L 212.50869 296.330308 
L 212.668688 296.276579 
L 212.828686 297.064597 
L 213.308681 295.631837 
L 213.628678 291.888752 
L 213.788676 295.291557 
L 213.948674 293.214055 
L 214.108672 293.321512 
L 214.268671 293.267783 
L 214.588667 291.190281 
L 214.748666 291.835023 
L 215.068662 289.417241 
L 215.22866 290.652996 
L 215.388659 290.151531 
L 215.708655 291.817114 
L 216.028652 288.790409 
L 216.348648 286.372626 
L 216.668645 286.659178 
L 216.988642 284.366762 
L 217.14864 284.993595 
L 217.308638 284.026482 
L 217.468636 283.901116 
L 217.628635 284.026482 
L 217.948631 282.916093 
L 218.10863 282.253442 
L 218.268628 282.844455 
L 218.588624 280.390854 
L 218.748623 281.429605 
L 219.228617 276.988049 
L 219.548614 274.641905 
L 219.708612 274.785181 
L 219.868611 271.454014 
L 220.188607 270.16453 
L 220.348605 270.021254 
L 220.508604 268.39149 
L 220.668602 268.427309 
L 220.988599 263.609654 
L 221.148597 262.033618 
L 221.468593 261.854523 
L 222.428583 253.078868 
L 222.588581 252.846045 
L 222.74858 251.395376 
L 222.908578 251.090914 
L 223.388573 248.619403 
L 224.188564 242.637631 
L 224.348563 242.351079 
L 224.988556 233.217235 
L 225.148554 233.647063 
L 225.788547 226.465354 
L 225.948545 226.322078 
L 226.108544 224.316214 
L 226.268542 220.107482 
L 226.42854 220.501491 
L 226.588539 219.641835 
L 226.908535 215.433102 
L 227.068533 214.645085 
L 227.228532 210.955728 
L 227.38853 210.203529 
L 228.028523 203.827747 
L 228.188521 204.239666 
L 228.34852 201.23087 
L 228.668516 200.120481 
L 229.308509 192.365668 
L 229.468508 192.795496 
L 229.628506 190.664266 
L 229.948503 189.643425 
L 230.428497 182.336349 
L 231.068491 179.578286 
L 231.228489 179.470829 
L 231.548485 175.602378 
L 231.708484 175.566559 
L 232.02848 173.506966 
L 232.188479 171.680197 
L 232.508475 166.558081 
L 232.668473 164.122389 
L 232.828472 165.179049 
L 232.98847 163.495557 
L 233.148468 163.907475 
L 233.308467 158.892815 
L 233.628463 156.564581 
L 233.788461 155.740744 
L 234.268456 151.120093 
L 234.428455 150.833541 
L 234.748451 147.538193 
L 234.908449 147.197913 
L 235.228446 144.368212 
L 235.388444 141.628059 
L 235.548443 141.162412 
L 235.708441 142.236982 
L 236.028437 139.138639 
L 236.828429 130.488351 
L 236.988427 130.022704 
L 237.148425 128.37503 
L 237.308424 128.822767 
L 237.788419 124.488669 
L 237.948417 124.703583 
L 238.108415 123.611103 
L 238.268413 123.987203 
L 238.428412 123.396189 
L 238.58841 121.354506 
L 238.748408 120.996317 
L 238.908407 121.067955 
L 239.068405 120.208299 
L 240.028395 111.432644 
L 240.188393 112.346029 
L 240.348391 112.417667 
L 240.508389 111.23564 
L 240.668388 108.549215 
L 240.988384 108.37012 
L 241.148383 107.689559 
L 241.308381 105.253867 
L 241.468379 105.629967 
L 241.788376 107.779107 
L 241.948374 108.137297 
L 242.26837 103.570374 
L 242.588367 104.465849 
L 242.748365 102.621171 
L 243.068362 103.230094 
L 243.22836 102.603261 
L 243.388358 102.585352 
L 243.548357 102.119705 
L 243.708355 103.176365 
L 243.868353 103.230094 
L 244.028352 102.585352 
L 244.348348 100.042203 
L 244.508346 101.654058 
L 244.828343 99.236276 
L 245.14834 98.788538 
L 245.308338 98.895995 
L 245.468336 97.516964 
L 245.788333 101.295868 
L 246.268328 95.690195 
L 246.588324 96.728946 
L 246.748322 98.072158 
L 246.908321 97.731878 
L 247.228317 95.797652 
L 247.388316 96.836403 
L 247.548314 96.334937 
L 247.86831 96.334937 
L 248.028309 96.20957 
L 248.188307 95.52901 
L 248.348305 96.370756 
L 248.508304 98.107977 
L 248.668302 97.588602 
L 248.8283 98.233344 
L 248.988298 100.633217 
L 249.148297 99.594466 
L 249.628292 101.134683 
L 249.78829 102.2988 
L 249.948288 102.119705 
L 250.108286 101.403325 
L 250.74828 106.095614 
L 250.908278 105.629967 
L 251.068276 105.52251 
L 251.228274 106.041885 
L 251.548271 107.940292 
L 251.708269 108.065659 
L 251.868268 108.602943 
L 252.188264 106.758265 
L 252.508261 110.214798 
L 252.668259 110.16107 
L 252.988256 111.880382 
L 253.308252 112.811676 
L 253.46825 113.922065 
L 253.788247 117.396507 
L 253.948245 117.038317 
L 254.108244 118.488987 
L 254.268242 118.417349 
L 254.42824 119.151638 
L 254.748237 121.748515 
L 254.908235 121.820153 
L 255.708226 130.470441 
L 255.868225 131.688287 
L 256.028223 131.330097 
L 256.188221 130.201799 
L 256.668216 131.562921 
L 257.148211 134.535897 
L 257.468208 137.867064 
L 257.628206 138.458078 
L 257.948202 140.213208 
L 258.108201 140.983317 
L 258.268199 141.090774 
L 258.428197 142.075796 
L 258.748194 145.442782 
L 259.06819 146.714356 
L 259.708184 150.17089 
L 259.868182 150.332075 
L 260.188178 153.036409 
L 260.348177 152.875224 
L 260.508175 153.072228 
L 260.828172 156.510852 
L 260.98817 156.134753 
L 261.148168 156.851133 
L 262.588153 169.745972 
L 262.748151 169.853429 
L 263.228146 175.88893 
L 263.388144 176.175482 
L 263.708141 177.841065 
L 263.868139 177.876884 
L 265.148125 186.079434 
L 265.468122 190.216528 
L 265.788118 192.329849 
L 265.948117 190.592628 
L 266.268113 191.864202 
L 266.748108 197.093776 
L 266.908106 196.914681 
L 267.228103 200.586128 
L 267.868096 204.866498 
L 268.028094 206.22762 
L 268.348091 209.576696 
L 268.508089 209.612515 
L 268.668087 209.827429 
L 269.308081 214.788361 
L 269.468079 215.057003 
L 269.628077 217.241962 
L 269.788075 217.868794 
L 269.948074 217.009138 
L 270.26807 219.409011 
L 270.428069 223.098368 
L 270.588067 223.205825 
L 270.748065 224.584856 
L 271.548057 226.375806 
L 271.868053 230.674086 
L 272.18805 229.509968 
L 272.348048 229.778611 
L 272.668045 232.124755 
L 272.828043 232.357579 
L 272.988041 234.363442 
L 273.148039 232.590402 
L 273.468036 235.545469 
L 273.628034 236.333487 
L 273.788033 237.891614 
L 273.948031 237.569243 
L 274.108029 238.37517 
L 274.428026 241.366056 
L 274.748022 242.960002 
L 274.908021 242.261531 
L 275.068019 242.171984 
L 275.228017 242.261531 
L 275.388015 242.189893 
L 275.708012 244.786771 
L 276.028009 245.646427 
L 276.348005 245.789703 
L 276.508003 246.076255 
L 276.828 249.353693 
L 277.147997 247.741838 
L 277.307995 247.31201 
L 277.467993 245.324056 
L 277.78799 249.496969 
L 277.947988 249.425331 
L 278.267985 251.986389 
L 278.427983 252.380398 
L 278.587981 251.664018 
L 278.747979 250.17753 
L 278.907978 251.359557 
L 279.067976 250.732724 
L 279.227974 250.786453 
L 279.547971 251.986389 
L 279.707969 252.255032 
L 279.867967 251.395376 
L 280.027966 253.508696 
L 280.347962 252.075937 
L 280.507961 253.02514 
L 280.667959 252.792317 
L 280.987955 251.019276 
L 281.147954 251.073005 
L 281.307952 252.505765 
L 281.46795 252.505765 
L 281.627949 251.449104 
L 281.787947 251.681928 
L 281.947945 251.61029 
L 282.107943 250.374534 
L 282.42794 251.287919 
L 282.587938 252.129665 
L 283.067933 248.870136 
L 283.227931 248.691041 
L 283.707926 249.640245 
L 284.027923 248.135847 
L 284.187921 247.365738 
L 284.347919 249.174598 
L 284.667916 245.825522 
L 284.827914 248.117937 
L 284.987913 247.706019 
L 285.307909 243.980843 
L 285.467907 243.873386 
L 285.627906 244.142029 
L 285.787904 243.962934 
L 285.947902 244.10621 
L 286.267899 242.727178 
L 286.427897 243.03164 
L 286.747894 241.59888 
L 287.06789 241.258599 
L 287.227889 241.634699 
L 287.707883 236.440944 
L 287.867882 235.86784 
L 288.02788 236.100664 
L 288.187878 235.635017 
L 288.347877 235.688745 
L 288.507875 233.987343 
L 288.827871 233.181416 
L 289.147868 230.244258 
L 289.307866 228.095118 
L 289.467864 228.399579 
L 289.787861 227.235462 
L 289.947859 227.486195 
L 290.107858 227.020548 
L 290.427854 223.36701 
L 290.587852 223.564015 
L 290.747851 219.319464 
L 290.907849 218.513536 
L 291.067847 220.626857 
L 291.227846 219.194097 
L 291.867839 217.331509 
L 292.187835 212.997411 
L 292.347834 210.400533 
L 292.507832 211.439284 
L 292.827828 208.788679 
L 292.987827 208.824498 
L 293.307823 207.517104 
L 293.467822 206.782815 
L 293.787818 203.075548 
L 293.947816 201.96516 
L 294.107815 201.875612 
L 294.267813 200.084662 
L 294.58781 201.123413 
L 294.907806 197.219142 
L 295.067804 198.275803 
L 295.547799 193.780519 
L 295.707798 193.619333 
L 296.027794 189.518058 
L 296.187792 189.983705 
L 296.347791 189.912067 
L 296.507789 189.374782 
L 297.30778 182.497535 
L 297.467779 182.963182 
L 297.627777 182.640811 
L 297.787775 181.58415 
L 298.107772 177.357509 
L 298.26777 176.909771 
L 298.587767 174.09798 
L 298.747765 174.850179 
L 298.907763 174.223346 
L 299.067762 174.062161 
L 299.707755 169.781791 
L 299.867753 167.328189 
L 300.027751 167.041637 
L 300.827743 164.46267 
L 300.987741 164.641765 
L 301.147739 164.516398 
L 301.467736 159.125639 
L 301.947731 157.406327 
L 302.267727 154.630355 
L 302.427726 154.146798 
L 302.587724 149.848519 
L 302.747722 148.666492 
L 302.90772 149.275415 
L 303.227717 148.523216 
L 303.707712 144.278665 
L 303.86771 143.74138 
L 304.187707 139.872928 
L 304.347705 139.622195 
L 304.507703 138.887906 
L 304.667702 138.708811 
L 304.8277 137.705879 
L 304.987698 133.801608 
L 305.147696 132.888224 
L 305.307695 135.073182 
L 305.627691 134.553807 
L 305.78769 135.001544 
L 305.947688 132.368848 
L 306.107686 133.228504 
L 306.427683 133.38969 
L 306.587681 132.530034 
L 306.747679 132.601672 
L 306.907678 131.59874 
L 307.227674 131.151002 
L 307.387672 130.649536 
L 307.547671 131.634559 
L 307.707669 131.115183 
L 308.187664 127.981021 
L 308.347662 129.019772 
L 308.667659 127.139275 
L 308.987655 122.751447 
L 309.147654 123.37828 
L 309.307652 124.649854 
L 309.46765 124.112569 
L 309.627648 123.987203 
L 309.787647 123.503646 
L 309.947645 121.891791 
L 310.107643 121.838063 
L 310.267642 121.623149 
L 310.42764 121.748515 
L 310.907635 119.850109 
L 311.067633 121.139592 
L 311.38763 120.118751 
L 311.547628 119.975475 
L 311.707626 120.029204 
L 311.867624 117.897973 
L 312.027623 117.611421 
L 312.187621 119.957566 
L 312.347619 120.17248 
L 312.507617 120.065023 
L 312.667616 119.4561 
L 312.827614 120.226208 
L 312.987612 120.17248 
L 313.307609 116.859222 
L 313.627605 120.315756 
L 313.787604 120.566489 
L 313.947602 120.441122 
L 314.1076 121.032136 
L 314.427597 118.077068 
L 314.587595 118.274073 
L 314.747593 119.850109 
L 315.06759 120.566489 
L 315.227588 120.441122 
L 315.387587 120.548579 
L 315.547585 121.175411 
L 315.707583 120.584398 
L 315.867581 120.423213 
L 316.02758 120.817222 
L 316.187578 120.763493 
L 316.507575 121.21123 
L 316.667573 120.333665 
L 316.827571 120.351575 
L 316.987569 120.691855 
L 317.147568 121.479873 
L 317.467564 120.763493 
L 317.627563 122.321619 
L 317.787561 122.518624 
L 318.107557 121.479873 
L 318.267556 122.590262 
L 318.427554 124.506578 
L 318.587552 124.900587 
L 318.907549 126.458714 
L 319.067547 125.097592 
L 319.227545 125.205049 
L 319.387544 127.175094 
L 319.70754 126.60199 
L 319.867539 129.270505 
L 320.027537 128.643672 
L 320.187535 126.709447 
L 320.347533 127.801926 
L 320.66753 125.796062 
L 320.987527 130.004794 
L 321.147525 129.80779 
L 321.307523 129.377962 
L 321.467521 129.377962 
L 321.62752 131.079364 
L 321.787518 130.918179 
L 322.107515 133.747879 
L 322.267513 136.541761 
L 322.427511 134.822449 
L 322.587509 135.789562 
L 322.747508 136.022386 
L 322.907506 137.687969 
L 323.067504 138.189435 
L 323.547499 140.87586 
L 323.707497 140.983317 
L 323.867496 142.183253 
L 324.027494 142.469805 
L 324.187492 143.239914 
L 324.347491 142.953362 
L 324.507489 144.350303 
L 324.667487 143.813018 
L 324.827485 145.621877 
L 325.147482 146.785994 
L 325.947473 153.519966 
L 326.107472 156.206391 
L 326.427468 152.284211 
L 326.587467 155.561649 
L 326.907463 156.009386 
L 327.067461 156.295938 
L 327.22746 157.137685 
L 327.387458 159.322643 
L 327.547456 159.358462 
L 327.707455 160.056933 
L 328.187449 163.997023 
L 328.667444 165.931248 
L 328.987441 163.925385 
L 329.307437 168.116207 
L 329.627434 171.053365 
L 329.787432 172.432396 
L 329.947431 172.020478 
L 330.427425 176.444124 
L 330.747422 177.106776 
L 330.90742 176.085934 
L 331.067419 176.408305 
L 331.547413 180.455852 
L 331.707412 181.172232 
L 332.027408 179.291734 
L 332.187407 179.524558 
L 332.347405 182.264711 
L 332.507403 182.425897 
L 332.987398 186.365986 
L 333.147396 186.59881 
L 333.467393 185.112321 
L 333.787389 189.679244 
L 333.947388 190.950818 
L 334.107386 190.735904 
L 334.267384 192.29403 
L 334.427383 192.186573 
L 334.587381 193.135777 
L 334.747379 192.634311 
L 334.907377 193.38651 
L 335.387372 197.434056 
L 335.707369 201.678608 
L 335.867367 203.111367 
L 336.187364 201.696517 
L 336.667358 203.451648 
L 336.827357 205.385874 
L 336.987355 208.717041 
L 337.147353 209.43342 
L 337.307352 208.573765 
L 337.627348 210.722904 
L 337.787346 210.991547 
L 337.947345 212.728768 
L 338.107343 216.077844 
L 338.267341 216.256939 
L 338.42734 216.830043 
L 338.587338 215.271917 
L 338.907334 217.224052 
L 339.067333 217.797156 
L 339.227331 217.080776 
L 339.387329 218.173256 
L 339.547328 218.01207 
L 340.027322 221.343237 
L 340.187321 220.304486 
L 340.347319 222.041707 
L 340.507317 221.916341 
L 340.827314 223.796838 
L 340.987312 221.23578 
L 341.14731 224.45949 
L 341.307309 223.116277 
L 341.467307 223.635653 
L 341.627305 225.426603 
L 341.787304 225.677336 
L 341.947302 225.498241 
L 342.1073 225.695245 
L 342.267298 226.519082 
L 342.427297 226.536992 
L 342.747293 228.883136 
L 343.06729 227.32501 
L 343.227288 227.504105 
L 343.707283 228.918955 
L 343.867281 228.793588 
L 344.02728 228.166756 
L 344.187278 230.709905 
L 344.507274 226.447444 
L 344.827271 227.808566 
L 344.987269 229.295054 
L 345.147268 228.614493 
L 345.307266 229.348783 
L 345.627262 231.336737 
L 346.107257 229.79652 
L 346.427254 227.844385 
L 346.587252 229.348783 
L 346.74725 229.79652 
L 347.067247 227.790657 
L 347.387244 228.704041 
L 347.547242 229.832339 
L 347.70724 228.650312 
L 348.027237 229.850249 
L 348.187235 229.241326 
L 348.347233 229.671154 
L 348.507232 230.584538 
L 348.827228 229.259235 
L 349.147225 228.417489 
L 349.307223 229.886068 
L 349.467221 228.560765 
L 349.62722 228.972683 
L 349.947216 227.396648 
L 350.107214 227.3071 
L 350.267213 226.823544 
L 350.427211 227.701109 
L 350.587209 227.611562 
L 350.907206 227.217553 
L 351.067204 227.987661 
L 351.387201 226.178802 
L 351.547199 226.644449 
L 351.707197 225.856431 
L 351.867196 224.011752 
L 352.027194 224.656494 
L 352.187192 224.029662 
L 352.507189 225.229598 
L 352.987184 224.602766 
L 353.147182 224.566947 
L 353.30718 225.498241 
L 353.467178 223.02673 
L 353.627177 223.635653 
L 353.787175 223.438648 
L 354.107172 220.591038 
L 354.26717 217.940432 
L 354.587166 217.743428 
L 354.747165 217.456876 
L 354.907163 215.057003 
L 355.067161 215.325645 
L 355.387158 214.430171 
L 355.707154 212.603402 
L 355.867153 211.869112 
L 356.027151 211.779565 
L 356.187149 212.764587 
L 356.507146 211.761655 
L 356.667144 209.755791 
L 356.827142 209.558787 
L 356.987141 208.573765 
L 357.307137 208.896136 
L 357.467136 208.197665 
L 357.627134 206.782815 
L 357.94713 205.941068 
L 358.107129 206.317168 
L 358.427125 202.412897 
L 358.587123 202.394988 
L 358.747122 202.788996 
L 358.90712 202.591992 
L 359.067118 200.120481 
L 359.227117 200.586128 
L 359.387115 199.833929 
L 359.707111 199.977205 
L 359.86711 199.493649 
L 360.027108 196.055025 
L 360.347105 196.538581 
L 360.507103 197.702699 
L 360.667101 197.29078 
L 360.987098 194.622265 
L 361.147096 192.885044 
L 361.307094 192.473125 
L 361.947087 187.942022 
L 362.107086 185.291416 
L 362.267084 185.076502 
L 362.427082 184.306394 
L 362.587081 184.413851 
L 362.907077 183.769109 
L 363.067075 183.500467 
L 363.227074 181.852793 
L 363.54707 181.333417 
L 363.867067 180.026024 
L 364.027065 177.30378 
L 364.187063 178.109707 
L 364.347062 177.339599 
L 364.667058 174.43826 
L 364.827057 174.671084 
L 365.147053 171.966749 
L 365.46705 172.951772 
L 365.787046 170.945908 
L 365.947045 171.268279 
L 366.267041 166.683447 
L 366.427039 165.626787 
L 366.587038 166.808814 
L 366.747036 165.770063 
L 367.067033 162.922453 
L 367.387029 161.310598 
L 367.547027 162.438896 
L 367.707026 162.510534 
L 368.507017 154.916907 
L 368.667015 154.737812 
L 368.827014 154.773631 
L 368.987012 154.343803 
L 369.14701 152.624491 
L 369.307009 152.911043 
L 369.627005 150.940998 
L 369.787003 151.908111 
L 369.947002 151.729016 
L 370.266998 147.806836 
L 370.426997 148.953044 
L 370.586995 149.060501 
L 370.746993 149.8127 
L 371.06699 147.412827 
L 371.226988 146.911361 
L 371.386986 145.87261 
L 371.546985 145.818882 
L 371.706983 145.138321 
L 371.866981 145.245778 
L 372.186978 143.795108 
L 372.346976 144.601036 
L 372.506974 143.866746 
L 372.666973 144.010022 
L 372.826971 143.72347 
L 373.146967 140.750493 
L 373.786961 140.15948 
L 373.946959 137.616331 
L 374.106957 137.455146 
L 374.266955 138.261073 
L 374.426954 138.207345 
L 374.74695 137.150684 
L 374.906949 134.643354 
L 375.066947 134.464259 
L 375.226945 133.765789 
L 375.386943 131.455464 
L 375.546942 131.061455 
L 375.70694 131.455464 
L 375.866938 131.22264 
L 376.026937 130.721174 
L 376.186935 131.24055 
L 376.506931 129.09141 
L 376.66693 129.933156 
L 376.826928 129.700333 
L 376.986926 128.482487 
L 377.146925 128.536215 
L 377.626919 126.190071 
L 377.786918 126.691537 
L 378.106914 125.975157 
L 378.266913 124.399121 
L 378.426911 124.542397 
L 378.586909 122.912633 
L 378.746907 123.37828 
L 379.066904 122.142524 
L 379.226902 122.446986 
L 379.386901 123.879746 
L 379.546899 122.590262 
L 379.706897 123.324551 
L 380.026894 127.103456 
L 380.186892 126.763175 
L 380.506889 123.933474 
L 380.666887 123.879746 
L 380.826885 124.381212 
L 380.986883 122.858904 
L 381.466878 127.193003 
L 381.626877 123.951384 
L 381.786875 124.166298 
L 381.946873 123.217094 
L 382.106871 124.43494 
L 382.426868 123.700651 
L 382.746864 126.369166 
L 382.906863 126.010976 
L 383.226859 127.246732 
L 383.386858 126.476623 
L 383.546856 123.826017 
L 383.706854 125.043863 
L 383.866852 124.506578 
L 384.026851 124.990135 
L 384.186849 124.828949 
L 384.346847 126.261709 
L 384.506846 125.545329 
L 384.666844 126.816904 
L 384.826842 129.4496 
L 384.98684 129.771971 
L 385.146839 128.285482 
L 385.466835 129.252595 
L 385.626834 129.127229 
L 385.786832 129.43169 
L 386.106828 130.327165 
L 386.266827 129.252595 
L 386.426825 130.273437 
L 386.586823 129.968975 
L 386.746822 129.037681 
L 386.90682 130.345075 
L 387.066818 130.488351 
L 387.386815 131.777835 
L 387.546813 131.885292 
L 387.706811 131.813654 
L 387.86681 132.494215 
L 388.186806 134.643354 
L 388.506803 132.29721 
L 388.826799 134.034431 
L 389.146796 133.103138 
L 389.306794 135.413463 
L 389.466792 134.840359 
L 389.626791 137.849155 
L 389.786789 138.01034 
L 389.946787 138.565535 
L 390.106786 141.019136 
L 390.426782 139.675924 
L 390.58678 139.8192 
L 390.906777 143.651832 
L 391.066775 143.669742 
L 391.226774 144.296574 
L 391.386772 143.795108 
L 391.54677 143.72347 
L 391.706768 144.063751 
L 391.866767 144.027932 
L 392.186763 144.529398 
L 392.346762 146.535261 
L 392.666758 147.018818 
L 392.826756 147.574012 
L 392.986755 147.520284 
L 393.306751 149.597786 
L 393.786746 153.215504 
L 393.946744 152.230482 
L 394.106743 154.79154 
L 394.266741 155.346735 
L 394.586738 158.445078 
L 394.746736 158.624173 
L 394.906734 159.376372 
L 395.226731 163.853747 
L 395.546727 165.716334 
L 395.706726 164.892498 
L 396.826714 172.701039 
L 396.986712 171.787654 
L 397.306708 172.30703 
L 397.466707 174.581536 
L 397.626705 174.778541 
L 397.946702 175.494921 
L 398.1067 175.51283 
L 398.266698 175.960568 
L 398.586695 178.772359 
L 399.06669 179.864838 
L 399.226688 179.721562 
L 399.546684 180.617037 
L 399.706683 180.348395 
L 400.026679 182.407987 
L 400.346676 183.124367 
L 400.506674 185.130231 
L 400.666672 185.380964 
L 400.826671 185.380964 
L 400.986669 184.037751 
L 401.306666 189.535968 
L 401.466664 189.661334 
L 401.78666 191.506012 
L 401.946659 191.255279 
L 402.106657 193.655152 
L 402.266655 192.544763 
L 402.426654 192.258211 
L 402.906648 195.53565 
L 403.226645 198.222074 
L 403.70664 200.478671 
L 404.186635 203.612833 
L 404.346633 203.057639 
L 404.506631 202.932272 
L 404.66663 203.666562 
L 404.986626 208.161846 
L 405.146624 207.069367 
L 405.466621 207.839475 
L 405.786617 206.155982 
L 405.946616 209.07523 
L 406.106614 209.254325 
L 406.266612 209.79161 
L 406.426611 209.182687 
L 406.586609 210.024434 
L 406.746607 210.042343 
L 407.066604 212.818316 
L 407.226602 214.859999 
L 407.3866 213.337691 
L 407.546599 213.266053 
L 407.706597 214.394352 
L 408.34659 215.701745 
L 408.826585 219.015002 
L 408.986583 217.67179 
L 409.30658 221.074595 
L 409.626576 221.755155 
L 409.786575 223.331191 
L 409.946573 223.295372 
L 410.106571 223.474467 
L 410.266569 222.847635 
L 410.426568 223.044639 
L 410.906563 225.551969 
L 411.066561 225.659426 
L 411.226559 224.226666 
L 411.386557 225.856431 
L 411.546556 226.053435 
L 411.706554 225.229598 
L 411.866552 225.122141 
L 412.026551 225.89225 
L 412.186549 225.032594 
L 412.506545 227.629471 
L 412.666544 226.304168 
L 412.826542 226.519082 
L 412.98654 227.056367 
L 413.146539 228.113027 
L 413.306537 227.772747 
L 413.466535 226.931001 
L 413.626533 225.014684 
L 413.786532 226.160892 
L 413.94653 226.286259 
L 414.106528 225.677336 
L 414.426525 226.25044 
L 414.586523 226.107164 
L 414.90652 227.844385 
L 415.226516 224.889318 
L 415.386515 225.247508 
L 415.546513 224.298304 
L 415.706511 224.566947 
L 416.186506 222.883454 
L 416.346504 224.960956 
L 416.506503 224.602766 
L 416.826499 225.408693 
L 416.986497 225.211689 
L 417.146496 225.587788 
L 417.306494 225.032594 
L 417.466492 225.569879 
L 417.626491 226.787725 
L 417.946487 222.381988 
L 418.106485 222.095436 
L 418.266484 222.596902 
L 418.426482 224.029662 
L 418.58648 224.08339 
L 418.906477 221.540242 
L 419.066475 223.098368 
L 419.386472 221.307418 
L 419.54647 221.432785 
L 419.706468 223.886386 
L 420.026465 219.82093 
L 420.186463 220.376124 
L 420.346461 219.44483 
L 420.50646 220.214939 
L 420.826456 217.65388 
L 421.626448 216.561401 
L 421.786446 214.555537 
L 422.106443 213.910795 
L 422.426439 216.364396 
L 422.586437 216.22112 
L 422.746436 215.648016 
L 423.066432 213.069049 
L 423.226431 209.80952 
L 423.386429 210.436352 
L 423.546427 210.490081 
L 423.706425 210.346805 
L 424.026422 207.481285 
L 424.18642 206.460444 
L 424.506417 206.406715 
L 424.986412 205.081412 
L 425.14641 203.487467 
L 425.306408 203.917295 
L 425.466407 203.7382 
L 425.946401 198.705631 
L 426.1064 198.114617 
L 426.266398 198.078798 
L 426.426396 195.589378 
L 426.586395 195.89384 
L 426.746393 195.804292 
L 426.906391 195.53565 
L 427.226388 192.258211 
L 427.546384 188.37185 
L 427.706383 188.74795 
L 427.866381 186.562991 
L 428.026379 186.509262 
L 428.186377 187.548013 
L 428.346376 187.368918 
L 428.506374 185.989887 
L 428.666372 185.989887 
L 429.466364 182.443806 
L 429.626362 182.30053 
L 430.106357 179.058911 
L 430.266355 179.166368 
L 430.426353 179.7932 
L 430.586352 178.772359 
L 430.74635 179.005182 
L 431.066346 176.909771 
L 431.386343 176.354577 
L 431.546341 176.050115 
L 432.026336 173.095048 
L 432.346333 171.393645 
L 432.506331 171.554831 
L 432.666329 172.504034 
L 432.986326 168.689311 
L 433.146324 168.187845 
L 433.306322 167.131185 
L 433.466321 167.955022 
L 433.786317 166.880452 
L 433.946316 167.149094 
L 434.106314 168.796768 
L 434.266312 168.510216 
L 434.42631 165.805882 
L 434.586309 165.85961 
L 434.746307 162.761267 
L 434.906305 162.564263 
L 435.226302 161.418055 
L 435.3863 159.627105 
L 435.546298 159.770381 
L 435.706297 159.483829 
L 436.026293 155.257187 
L 436.186292 155.328825 
L 436.34629 156.134753 
L 436.506288 155.651196 
L 436.666286 156.779495 
L 436.826285 154.79154 
L 436.986283 154.666174 
L 437.146281 154.146798 
L 437.30628 151.979749 
L 437.466278 153.0185 
L 437.626276 152.409577 
L 437.786274 149.758971 
L 437.946273 150.421623 
L 438.266269 149.615695 
L 438.426268 149.561967 
L 439.066261 144.43985 
L 439.226259 143.938384 
L 439.386257 145.657696 
L 439.546256 145.335325 
L 440.02625 141.860882 
L 440.186249 142.254891 
L 440.346247 143.204095 
L 440.506245 143.239914 
L 440.666244 142.433986 
L 440.826242 140.052023 
L 440.98624 139.425191 
L 441.146238 139.962475 
L 441.306237 138.708811 
L 441.466235 139.640105 
L 441.786232 139.299824 
L 441.94623 140.087842 
L 442.106228 139.837109 
L 442.266226 138.511806 
L 442.426225 139.353553 
L 442.586223 138.959544 
L 442.746221 139.837109 
L 443.066218 135.252277 
L 443.226216 135.270187 
L 443.546213 134.464259 
L 443.706211 134.697083 
L 443.866209 133.962793 
L 444.026208 134.571716 
L 444.186206 133.300142 
L 444.346204 133.443418 
L 444.666201 136.2373 
L 444.986197 133.622513 
L 445.146196 134.840359 
L 445.306194 133.604604 
L 445.466192 135.574648 
L 445.62619 135.467191 
L 445.946187 133.335961 
L 446.106185 132.601672 
L 446.266184 132.888224 
L 446.426182 133.515056 
L 446.58618 133.37178 
L 446.746178 132.637491 
L 446.906177 133.676242 
L 447.066175 133.067319 
L 447.226173 133.318052 
L 447.386172 132.816586 
L 447.54617 133.550875 
L 447.706168 133.747879 
L 447.866166 134.42844 
L 448.026165 134.285164 
L 448.186163 133.407599 
L 448.346161 133.192685 
L 448.50616 134.553807 
L 448.666158 134.338893 
L 448.826156 134.80454 
L 448.986154 134.679173 
L 449.146153 135.449282 
L 449.306151 135.252277 
L 449.466149 136.291028 
L 449.786146 134.589626 
L 449.946144 135.986567 
L 450.106142 134.267255 
L 450.266141 134.535897 
L 450.426139 134.177707 
L 450.586137 134.141888 
L 450.906134 133.049409 
L 451.22613 136.273119 
L 451.386129 136.165662 
L 451.546127 136.541761 
L 451.706125 137.365598 
L 452.026122 135.932838 
L 452.18612 137.079046 
L 452.346118 137.347689 
L 452.506117 135.485101 
L 452.666115 135.306006 
L 452.826113 135.395553 
L 453.14611 138.422259 
L 453.306108 139.013272 
L 453.626105 136.667128 
L 453.946101 141.126593 
L 454.106099 141.914611 
L 454.266098 141.628059 
L 454.426096 141.968339 
L 454.586094 141.968339 
L 454.746093 141.699697 
L 455.226087 144.43985 
L 455.386086 145.836791 
L 455.706082 145.460692 
L 455.866081 146.391985 
L 456.026079 145.675606 
L 456.346075 146.839723 
L 456.506074 146.911361 
L 456.986069 149.132139 
L 457.146067 151.567831 
L 457.306065 152.266301 
L 457.626062 150.349985 
L 457.946058 151.191731 
L 458.106057 152.105116 
L 458.426053 154.719902 
L 458.74605 156.027296 
L 458.906048 155.651196 
L 459.066046 156.492943 
L 459.386043 159.680833 
L 459.546041 159.985295 
L 459.706039 159.465919 
L 460.186034 163.083638 
L 460.346033 164.408941 
L 460.506031 162.976181 
L 460.666029 162.868724 
L 460.826027 165.698425 
L 461.306022 167.65056 
L 461.466021 168.062479 
L 461.626019 166.647628 
L 461.786017 164.194027 
L 462.106014 167.077456 
L 462.746007 172.271211 
L 463.226002 173.775609 
L 463.386 174.617355 
L 463.545998 174.115889 
L 464.025993 178.843997 
L 464.185991 178.951454 
L 464.505988 177.626151 
L 464.665986 177.858974 
L 465.305979 180.903589 
L 465.625976 179.220096 
L 465.945973 181.028956 
L 466.265969 183.590014 
L 466.425967 186.133163 
L 466.585966 185.452602 
L 466.745964 186.365986 
L 466.905962 185.14814 
L 467.385957 187.333099 
L 467.545955 186.491353 
L 467.705954 188.121117 
L 467.865952 188.497217 
L 468.02595 192.938772 
L 468.185949 193.046229 
L 468.345947 193.834247 
L 468.505945 193.816338 
L 468.665943 193.959614 
L 469.145938 198.759359 
L 469.305937 200.299576 
L 469.465935 199.672744 
L 469.625933 200.353305 
L 469.785931 199.565287 
L 470.105928 200.818952 
L 470.265926 200.586128 
L 470.425925 202.269621 
L 470.585923 201.857703 
L 470.745921 202.018888 
L 470.905919 200.962228 
L 471.225916 201.356237 
L 471.545913 202.968091 
L 471.705911 202.233802 
L 471.865909 202.717358 
L 472.345904 207.230552 
L 472.505902 207.123095 
L 472.665901 206.711177 
L 473.305894 213.516786 
L 473.62589 214.949546 
L 473.785889 213.409329 
L 473.945887 213.624243 
L 474.105885 214.233166 
L 474.265883 213.803338 
L 474.425882 213.767519 
L 474.745878 215.755473 
L 474.905877 215.379374 
L 475.225873 216.57931 
L 475.385871 216.507672 
L 475.54587 218.280713 
L 475.705868 218.495627 
L 475.865866 218.352351 
L 476.025864 218.656812 
L 476.185863 221.95216 
L 476.345861 222.883454 
L 476.505859 221.056685 
L 476.665858 220.608948 
L 476.825856 220.573129 
L 477.145852 222.005888 
L 477.305851 221.844703 
L 477.465849 221.217871 
L 477.785846 219.46274 
L 478.105842 222.865544 
L 478.26584 225.068413 
L 478.425839 224.244576 
L 478.745835 226.268349 
L 479.065832 223.850567 
L 479.22583 223.599834 
L 479.385828 222.740178 
L 479.545827 222.614811 
L 479.705825 222.220802 
L 479.865823 225.731064 
L 480.025822 226.339987 
L 480.18582 225.014684 
L 480.345818 222.417807 
L 480.825813 224.81768 
L 480.985811 224.137119 
L 481.14581 224.190847 
L 481.305808 223.187915 
L 481.465806 223.170006 
L 481.625804 223.940114 
L 481.785803 225.695245 
L 481.945801 224.79977 
L 482.105799 225.372874 
L 482.265798 224.44158 
L 482.425796 222.507354 
L 482.585794 222.740178 
L 482.745792 221.916341 
L 483.225787 224.423671 
L 483.545784 222.919273 
L 484.025779 225.193779 
L 484.185777 225.014684 
L 484.345775 224.387852 
L 484.665772 221.826793 
L 484.82577 222.113345 
L 484.985768 223.635653 
L 485.145767 222.704359 
L 485.305765 219.641835 
L 485.465763 219.283645 
L 485.625762 218.406079 
L 485.945758 218.692631 
L 486.105756 218.441898 
L 486.265755 216.740496 
L 486.585751 215.737564 
L 486.74575 215.809202 
L 486.905748 214.788361 
L 487.065746 214.716723 
L 487.385743 212.764587 
L 487.545741 211.887022 
L 487.705739 213.7317 
L 487.865738 213.122777 
L 488.025736 213.03323 
L 488.345732 213.928705 
L 488.505731 211.707927 
L 488.665729 211.797474 
L 488.825727 214.197347 
L 489.305722 212.245212 
L 489.46572 212.818316 
L 489.625719 212.710859 
L 489.785717 213.01532 
L 489.945715 214.340623 
L 490.105714 214.1078 
L 490.265712 212.442216 
L 490.745707 211.152732 
L 491.065703 210.203529 
L 491.3857 207.696199 
L 491.545698 207.606652 
L 491.705696 208.251394 
L 491.865695 207.481285 
L 492.185691 204.866498 
L 492.34569 204.239666 
L 492.665686 205.332145 
L 492.985683 205.833611 
L 493.145681 205.278417 
L 493.465678 202.806906 
L 493.625676 199.995115 
L 493.785674 200.51449 
L 493.945672 199.726472 
L 494.105671 199.995115 
L 494.425667 195.678926 
L 494.585666 196.037116 
L 494.745664 195.105822 
L 494.905662 192.688039 
L 495.06566 192.634311 
L 495.225659 194.120799 
L 495.385657 193.834247 
L 495.545655 192.204483 
L 495.705654 191.828383 
L 496.02565 189.052411 
L 496.185648 188.980773 
L 496.665643 186.59881 
L 496.825642 184.969045 
L 496.98564 186.455534 
L 497.145638 185.936158 
L 497.465635 183.661652 
L 497.625633 183.769109 
L 497.785631 184.324303 
L 497.94563 184.163118 
L 498.105628 183.73329 
L 498.265626 182.945272 
L 498.585623 180.52749 
L 498.745621 179.327553 
L 498.905619 179.058911 
L 499.225616 176.533672 
L 499.385614 176.462034 
L 499.545612 175.906839 
L 500.025607 172.575672 
L 500.185605 173.668152 
L 500.985597 171.160822 
L 501.305593 168.814678 
L 501.465592 167.561013 
L 501.62559 167.632651 
L 501.785588 165.447692 
L 501.945587 165.913339 
L 502.425581 162.098616 
L 502.745578 162.152344 
L 503.065575 165.232778 
L 503.225573 162.438896 
L 503.385571 162.331439 
L 503.545569 161.113593 
L 503.705568 161.23896 
L 503.865566 160.021114 
L 504.025564 160.14648 
L 504.185563 159.465919 
L 504.505559 157.137685 
L 504.665557 157.245142 
L 504.825556 157.782427 
L 504.985554 155.293006 
L 505.145552 154.737812 
L 505.305551 156.457124 
L 505.465549 156.689947 
L 505.625547 154.701993 
L 505.785545 154.469169 
L 505.945544 154.684083 
L 506.105542 153.681151 
L 506.26554 151.657378 
L 506.425539 153.233414 
L 506.585537 153.466237 
L 506.745535 152.606581 
L 506.905533 150.188799 
L 507.065532 149.490329 
L 507.22553 149.973885 
L 507.385528 151.424555 
L 507.545527 151.120093 
L 507.865523 147.699379 
L 508.025521 148.415759 
L 508.18552 146.58899 
L 508.505516 146.338257 
L 508.665515 147.018818 
L 508.825513 146.893451 
L 508.985511 148.899315 
L 509.465506 145.89052 
L 509.945501 144.421941 
L 510.105499 144.583126 
L 510.265497 143.38319 
L 510.585494 144.260755 
L 510.745492 144.887588 
L 510.905491 146.087524 
L 511.385485 144.224936 
L 511.545484 146.141253 
L 511.86548 145.245778 
L 512.025479 143.132457 
L 512.185477 143.150366 
L 512.345475 141.645968 
L 512.505473 141.771335 
L 512.665472 142.505624 
L 513.305465 137.759607 
L 513.465463 138.117797 
L 513.78546 139.962475 
L 514.105456 138.655082 
L 514.425453 140.840041 
L 514.585451 141.090774 
L 514.905448 143.293642 
L 515.065446 142.702629 
L 515.225444 142.756357 
L 515.385443 142.469805 
L 515.705439 140.85795 
L 515.865437 140.266937 
L 516.025436 141.180321 
L 516.185434 141.072864 
L 516.345432 140.643036 
L 516.505431 140.607217 
L 516.825427 142.613081 
L 517.145424 140.302756 
L 517.46542 141.341507 
L 517.785417 144.79804 
L 517.945415 144.601036 
L 518.105413 143.956294 
L 518.265412 143.848837 
L 518.42541 145.138321 
L 518.585408 145.353235 
L 518.745407 145.102502 
L 519.065403 143.186185 
L 519.225401 143.114547 
L 519.705396 146.606899 
L 520.025393 147.036727 
L 520.345389 148.111297 
L 520.505388 149.150048 
L 520.825384 147.28746 
L 521.305379 151.209641 
L 521.465377 152.678219 
L 521.625376 150.994727 
L 521.945372 152.409577 
L 522.10537 152.176754 
L 522.425367 154.164708 
L 522.745364 156.170572 
L 522.905362 155.078092 
L 523.06536 155.382554 
L 523.225358 156.367576 
L 523.705353 160.361394 
L 523.865352 160.074842 
L 524.02535 159.07191 
L 524.345346 163.02991 
L 524.665343 161.185231 
L 525.145338 161.901611 
L 525.305336 161.812064 
L 525.625333 163.74629 
L 525.785331 163.674652 
L 526.105328 164.623855 
L 526.265326 165.50142 
L 526.425324 167.632651 
L 526.745321 167.256551 
L 526.905319 167.328189 
L 527.225316 169.334053 
L 527.385314 171.751835 
L 527.545312 171.125003 
L 527.70531 171.859292 
L 527.865309 171.429464 
L 528.025307 170.139981 
L 528.185305 170.336985 
L 528.345304 172.66522 
L 528.505302 173.0055 
L 528.825298 171.966749 
L 528.985297 172.127935 
L 529.145295 172.66522 
L 529.465292 175.996387 
L 529.62529 176.623219 
L 529.785288 175.584468 
L 529.945286 176.103844 
L 530.265283 178.808178 
L 530.745278 181.22596 
L 531.065274 178.306712 
L 531.385271 184.270575 
L 531.545269 183.625833 
L 532.025264 185.112321 
L 532.185262 187.243552 
L 532.505259 188.246484 
L 532.665257 189.571787 
L 532.825256 187.995751 
L 532.985254 188.801678 
L 533.145252 188.998683 
L 533.30525 188.640493 
L 533.465249 189.321054 
L 533.625247 191.434374 
L 533.785245 191.631379 
L 533.945244 190.144891 
L 534.585237 197.398237 
L 534.745235 197.165414 
L 534.905233 196.323668 
L 535.22523 198.866816 
L 535.385228 198.454898 
L 535.545226 198.866816 
L 535.865223 198.651902 
L 536.18522 201.033866 
L 536.665214 204.400851 
L 536.825213 203.881476 
L 536.985211 202.878544 
L 537.145209 203.594924 
L 537.305208 203.308372 
L 537.465206 204.400851 
L 537.785202 204.741132 
L 537.945201 204.382942 
L 538.265197 207.517104 
L 538.585194 207.087276 
L 538.745192 207.767837 
L 538.90519 207.66038 
L 539.065189 207.391738 
L 539.225187 208.126027 
L 539.385185 210.310986 
L 539.545184 210.436352 
L 539.705182 210.042343 
L 540.025178 208.108118 
L 540.505173 212.728768 
L 540.665172 210.740814 
L 540.985168 211.493013 
L 541.145166 213.767519 
L 541.305165 213.74961 
L 541.465163 213.534696 
L 541.625161 211.976569 
L 541.945158 212.495945 
L 542.105156 214.304804 
L 542.265154 214.376442 
L 542.585151 211.725836 
L 542.745149 212.836225 
L 542.905148 212.621311 
L 543.065146 211.94075 
L 543.225144 212.495945 
L 543.545141 215.970387 
L 543.705139 215.50474 
L 543.865137 216.077844 
L 544.025136 216.059935 
L 544.185134 218.459808 
L 544.345132 217.618061 
L 544.50513 217.707609 
L 544.665129 216.453944 
L 545.145123 220.232848 
L 545.305122 220.17912 
L 545.46512 221.486513 
L 545.785117 219.319464 
L 545.945115 219.283645 
L 546.265111 222.31035 
L 546.42511 221.880522 
L 546.585108 220.429853 
L 546.745106 220.125391 
L 547.065103 220.823862 
L 547.385099 219.80302 
L 547.545098 220.573129 
L 547.705096 219.301554 
L 548.025093 220.734314 
L 548.345089 222.346169 
L 548.505087 223.223734 
L 548.665086 222.901363 
L 548.825084 223.349101 
L 548.985082 222.722268 
L 549.305079 226.339987 
L 549.785074 222.901363 
L 549.945072 222.632721 
L 550.10507 223.546105 
L 550.265069 222.256621 
L 550.745063 224.208757 
L 550.905062 222.471535 
L 551.06506 222.561083 
L 551.385057 225.104232 
L 551.705053 223.116277 
L 551.865051 225.659426 
L 552.02505 226.357897 
L 552.345046 223.7252 
L 552.505045 222.793906 
L 552.665043 222.525264 
L 552.825041 224.011752 
L 552.985039 223.671472 
L 553.145038 225.265417 
L 553.305036 225.104232 
L 553.785031 220.053753 
L 553.945029 219.606016 
L 554.105027 220.197029 
L 554.265026 219.946296 
L 554.425024 219.46274 
L 554.585022 219.516468 
L 554.905019 217.65388 
L 555.065017 218.72845 
L 555.385014 216.203211 
L 555.70501 216.722586 
L 555.865009 215.898749 
L 556.025007 217.725518 
L 556.185005 218.137437 
L 556.345003 219.80302 
L 556.824998 216.471853 
L 556.984997 217.116595 
L 557.144995 218.997093 
L 557.304993 217.743428 
L 557.464991 213.552605 
L 557.62499 213.821248 
L 557.784988 214.788361 
L 557.944986 214.358533 
L 558.104985 213.319782 
L 558.264983 213.086958 
L 558.424981 214.071981 
L 558.584979 212.567583 
L 558.744978 212.692949 
L 559.064974 213.624243 
L 559.224973 213.301872 
L 559.384971 212.030298 
L 559.544969 209.576696 
L 559.704967 209.325963 
L 560.024964 213.03323 
L 560.184962 211.743746 
L 560.344961 212.030298 
L 560.504959 208.842407 
L 560.824955 209.200597 
L 560.984954 208.985683 
L 561.30495 210.078162 
L 561.464949 208.985683 
L 561.944943 208.484217 
L 562.26494 206.263439 
L 562.424938 205.618697 
L 562.584937 205.86943 
L 562.904933 204.633675 
L 563.064931 205.278417 
L 563.22493 203.433738 
L 563.704925 201.803974 
L 563.864923 202.287531 
L 564.024921 201.141323 
L 564.184919 201.087594 
L 564.504916 199.028002 
L 564.824913 197.362418 
L 564.984911 196.5744 
L 565.144909 194.46108 
L 565.304907 196.556491 
L 565.464906 195.840111 
L 565.784902 195.607288 
L 565.944901 196.663948 
L 566.264897 196.843043 
L 566.744892 193.72679 
L 566.90489 194.747632 
L 567.064889 194.228256 
L 567.224887 193.064139 
L 567.86488 193.798428 
L 568.024878 194.389442 
L 568.184877 193.01041 
L 568.344875 193.565605 
L 568.504873 192.508944 
L 568.664871 189.965796 
L 568.82487 191.112003 
L 568.984868 190.968727 
L 569.144866 191.23737 
L 569.304864 192.634311 
L 569.464863 191.344827 
L 569.624861 188.73004 
L 569.944858 187.959932 
L 570.264854 188.604674 
L 570.424852 187.046547 
L 570.584851 186.992819 
L 570.744849 187.583832 
L 570.904847 187.010728 
L 571.064846 187.010728 
L 571.384842 186.348077 
L 571.54484 185.613787 
L 571.864837 187.780837 
L 572.024835 185.936158 
L 572.184834 186.545081 
L 572.344832 185.363054 
L 572.664828 186.527172 
L 572.824827 186.24062 
L 572.984825 186.724176 
L 573.304822 183.679562 
L 573.46482 183.554195 
L 573.624818 183.213915 
L 573.944815 185.309326 
L 574.104813 183.464648 
L 574.264811 183.231824 
L 574.584808 180.831951 
L 574.744806 180.939408 
L 574.904804 179.81111 
L 575.064803 181.064775 
L 575.224801 181.279689 
L 575.544798 181.333417 
L 575.704796 181.136413 
L 575.864794 179.524558 
L 576.184791 181.154322 
L 576.344789 180.581218 
L 576.504787 178.754449 
L 576.664786 178.915635 
L 576.824784 179.45292 
L 576.984782 177.948522 
L 577.14478 178.557445 
L 577.304779 176.694857 
L 577.464777 176.444124 
L 577.624775 178.02016 
L 578.424767 172.253301 
L 578.744763 175.835201 
L 578.904762 175.226278 
L 579.224758 173.524876 
L 579.384756 173.471147 
L 579.544755 173.614423 
L 579.704753 172.808496 
L 579.864751 173.077138 
L 580.184748 172.521944 
L 580.344746 172.020478 
L 580.504744 172.593582 
L 580.824741 176.909771 
L 580.984739 176.050115 
L 581.304736 175.656106 
L 581.464734 174.921817 
L 581.944729 176.641129 
L 582.264726 173.793518 
L 582.584722 174.330803 
L 582.74472 173.775609 
L 582.904719 174.635265 
L 583.064717 173.292052 
L 583.224715 174.45617 
L 583.384714 174.062161 
L 583.544712 173.202505 
L 583.70471 173.614423 
L 583.864708 173.345781 
L 584.024707 173.345781 
L 584.184705 171.626469 
L 584.344703 172.826405 
L 584.504702 172.915953 
L 584.6647 173.345781 
L 584.824698 174.348713 
L 584.984696 174.545717 
L 585.144695 174.545717 
L 585.304693 175.423283 
L 585.464691 175.494921 
L 585.62469 174.527808 
L 585.784688 176.551581 
L 585.944686 176.157572 
L 586.104684 174.79645 
L 586.264683 174.760631 
L 586.424681 175.047183 
L 586.904676 178.969363 
L 587.224672 177.088866 
L 587.384671 176.676948 
L 587.864666 177.590332 
L 588.024664 177.160504 
L 588.184662 177.267961 
L 588.34466 178.306712 
L 588.504659 177.751517 
L 588.664657 178.396259 
L 588.984654 180.724494 
L 589.144652 181.028956 
L 589.30465 180.52749 
L 589.624647 182.031888 
L 589.784645 181.261779 
L 589.944643 181.548331 
L 590.104642 182.712449 
L 590.26464 183.03482 
L 590.424638 182.139345 
L 590.584636 182.282621 
L 590.744635 183.052729 
L 591.064631 181.512512 
L 591.22463 180.957318 
L 591.384628 181.208051 
L 591.544626 180.993137 
L 591.704624 183.142277 
L 592.024621 182.282621 
L 592.664614 183.482557 
L 592.824612 182.801996 
L 593.144609 182.891544 
L 593.304607 182.819906 
L 593.784602 186.22271 
L 593.9446 188.640493 
L 594.104599 188.533036 
L 594.264597 188.121117 
L 594.424595 187.118185 
L 594.584593 189.124049 
L 594.90459 190.001615 
L 595.224587 189.44642 
L 595.544583 191.810474 
L 595.704581 191.380646 
L 595.86458 193.977523 
L 596.344575 194.962546 
L 596.504573 195.804292 
L 596.664571 194.496899 
L 597.144566 197.487785 
L 597.304564 196.198301 
L 597.464563 195.965478 
L 597.624561 198.36535 
L 597.784559 198.866816 
L 597.944557 198.096708 
L 598.264554 200.317486 
L 598.424552 200.550309 
L 598.584551 201.087594 
L 598.904547 199.977205 
L 599.224544 202.018888 
L 599.54454 202.520354 
L 599.704539 203.845657 
L 599.864537 203.594924 
L 600.024535 204.293394 
L 600.184533 204.132209 
L 600.344532 203.433738 
L 600.50453 203.577014 
L 600.664528 204.365032 
L 600.824527 204.43667 
L 600.984525 205.761973 
L 601.144523 205.708245 
L 601.46452 209.128959 
L 601.624518 209.415511 
L 601.784516 209.343873 
L 601.944515 208.466308 
L 602.104513 209.702063 
L 602.264511 209.45133 
L 602.424509 209.540877 
L 602.584508 209.916977 
L 602.744506 211.116913 
L 603.064503 215.18237 
L 603.224501 213.964524 
L 603.384499 214.233166 
L 603.544497 213.445148 
L 603.704496 214.322714 
L 603.864494 214.358533 
L 604.184491 213.713791 
L 604.344489 214.08989 
L 604.664485 213.086958 
L 604.984482 215.683835 
L 605.14448 214.645085 
L 605.304479 214.895818 
L 605.624475 216.847953 
L 605.784473 215.773383 
L 606.10447 217.904613 
L 606.264468 220.340305 
L 606.424467 220.000025 
L 606.584465 218.244894 
L 606.744463 218.334441 
L 606.904461 221.092504 
L 607.06446 221.57606 
L 607.224458 222.471535 
L 607.384456 221.647698 
L 607.864451 224.047571 
L 608.024449 224.262485 
L 608.184448 223.958024 
L 608.344446 224.352033 
L 608.504444 224.08339 
L 608.664443 222.65063 
L 608.824441 222.740178 
L 609.144437 225.569879 
L 609.304436 223.528196 
L 609.784431 225.587788 
L 609.944429 225.17587 
L 610.264425 226.411625 
L 610.584422 228.113027 
L 610.74442 228.202575 
L 610.904419 227.020548 
L 611.224415 229.706973 
L 611.384413 226.733996 
L 611.544412 226.429535 
L 611.70441 227.235462 
L 612.024407 229.366692 
L 612.184405 230.029344 
L 612.344403 230.118891 
L 612.6644 228.578674 
L 612.984396 230.083072 
L 613.144395 230.262167 
L 613.624389 232.32176 
L 613.784388 231.300918 
L 613.944386 231.838203 
L 614.264383 231.444194 
L 614.424381 231.712837 
L 614.584379 233.03814 
L 614.744377 232.912773 
L 614.904376 232.572493 
L 615.064374 233.450058 
L 615.224372 230.190529 
L 615.38437 230.011434 
L 615.544369 228.059299 
L 615.704367 227.468286 
L 616.024364 229.348783 
L 616.504358 231.050185 
L 616.824355 233.915705 
L 617.144352 230.297986 
L 617.464348 229.151778 
L 617.784345 225.014684 
L 618.26434 230.691995 
L 618.424338 232.178484 
L 618.584336 230.5129 
L 618.744334 230.315896 
L 619.064331 228.00557 
L 619.224329 228.00557 
L 619.384328 228.130937 
L 619.544326 227.933932 
L 619.704324 228.059299 
L 619.864322 228.345851 
L 620.024321 228.184665 
L 620.184319 228.614493 
L 620.344317 228.02348 
L 620.504316 230.011434 
L 620.664314 230.029344 
L 621.304307 226.411625 
L 621.464305 226.465354 
L 621.624304 225.659426 
L 621.9443 225.838521 
L 622.264297 226.698177 
L 622.424295 226.536992 
L 622.584293 225.87434 
L 622.744292 225.963888 
L 622.90429 225.766883 
L 623.064288 223.295372 
L 623.384285 224.584856 
L 623.544283 225.014684 
L 623.86428 222.596902 
L 624.024278 222.113345 
L 624.184276 222.238712 
L 624.344274 223.528196 
L 624.504273 223.420739 
L 624.504273 223.420739 
" style="fill:none;stroke:#1f77b4;stroke-dasharray:1.5,2.475;stroke-dashoffset:0;stroke-width:1.5;"/>
   </g>
   <g id="patch_3">
    <path d="M 90.27 335.1384 
L 90.27 45.1872 
" style="fill:none;stroke:#000000;stroke-linecap:square;stroke-linejoin:miter;stroke-width:0.8;"/>
   </g>
   <g id="patch_4">
    <path d="M 649.944 335.1384 
L 649.944 45.1872 
" style="fill:none;stroke:#000000;stroke-linecap:square;stroke-linejoin:miter;stroke-width:0.8;"/>
   </g>
   <g id="patch_5">
    <path d="M 90.27 335.1384 
L 649.944 335.1384 
" style="fill:none;stroke:#000000;stroke-linecap:square;stroke-linejoin:miter;stroke-width:0.8;"/>
   </g>
   <g id="patch_6">
    <path d="M 90.27 45.1872 
L 649.944 45.1872 
" style="fill:none;stroke:#000000;stroke-linecap:square;stroke-linejoin:miter;stroke-width:0.8;"/>
   </g>
  </g>
 </g>
 <defs>
  <clipPath id="pbdd764d90d">
   <rect height="289.9512" width="559.674" x="90.27" y="45.1872"/>
  </clipPath>
 </defs>
</svg>
