<?xml version="1.0" encoding="utf-8" standalone="no"?>
<!DOCTYPE svg PUBLIC "-//W3C//DTD SVG 1.1//EN"
  "http://www.w3.org/Graphics/SVG/1.1/DTD/svg11.dtd">
<!-- Created with matplotlib (http://matplotlib.org/) -->
<svg height="416.16pt" version="1.1" viewBox="0 0 745.92 416.16" width="745.92pt" xmlns="http://www.w3.org/2000/svg" xmlns:xlink="http://www.w3.org/1999/xlink">
 <defs>
  <style type="text/css">
*{stroke-linecap:butt;stroke-linejoin:round;}
  </style>
 </defs>
 <g id="figure_1">
  <g id="patch_1">
   <path d="M 0 416.16 
L 745.92 416.16 
L 745.92 0 
L 0 0 
z
" style="fill:#ffffff;"/>
  </g>
  <g id="axes_1">
   <g id="patch_2">
    <path d="M 93.24 370.3824 
L 671.328 370.3824 
L 671.328 49.9392 
L 93.24 49.9392 
z
" style="fill:#ffffff;"/>
   </g>
   <g id="matplotlib.axis_1">
    <g id="xtick_1">
     <g id="line2d_1">
      <defs>
       <path d="M 0 0 
L 0 3.5 
" id="mdab104585b" style="stroke:#000000;stroke-width:0.8;"/>
      </defs>
      <g>
       <use style="stroke:#000000;stroke-width:0.8;" x="119.435123" xlink:href="#mdab104585b" y="370.3824"/>
      </g>
     </g>
     <g id="text_1">
      <!-- 0 -->
      <defs>
       <path d="M 31.78125 66.40625 
Q 24.171875 66.40625 20.328125 58.90625 
Q 16.5 51.421875 16.5 36.375 
Q 16.5 21.390625 20.328125 13.890625 
Q 24.171875 6.390625 31.78125 6.390625 
Q 39.453125 6.390625 43.28125 13.890625 
Q 47.125 21.390625 47.125 36.375 
Q 47.125 51.421875 43.28125 58.90625 
Q 39.453125 66.40625 31.78125 66.40625 
z
M 31.78125 74.21875 
Q 44.046875 74.21875 50.515625 64.515625 
Q 56.984375 54.828125 56.984375 36.375 
Q 56.984375 17.96875 50.515625 8.265625 
Q 44.046875 -1.421875 31.78125 -1.421875 
Q 19.53125 -1.421875 13.0625 8.265625 
Q 6.59375 17.96875 6.59375 36.375 
Q 6.59375 54.828125 13.0625 64.515625 
Q 19.53125 74.21875 31.78125 74.21875 
z
" id="DejaVuSans-30"/>
      </defs>
      <g transform="translate(116.253873 384.980838)scale(0.1 -0.1)">
       <use xlink:href="#DejaVuSans-30"/>
      </g>
     </g>
    </g>
    <g id="xtick_2">
     <g id="line2d_2">
      <g>
       <use style="stroke:#000000;stroke-width:0.8;" x="201.039866" xlink:href="#mdab104585b" y="370.3824"/>
      </g>
     </g>
     <g id="text_2">
      <!-- 500 -->
      <defs>
       <path d="M 10.796875 72.90625 
L 49.515625 72.90625 
L 49.515625 64.59375 
L 19.828125 64.59375 
L 19.828125 46.734375 
Q 21.96875 47.46875 24.109375 47.828125 
Q 26.265625 48.1875 28.421875 48.1875 
Q 40.625 48.1875 47.75 41.5 
Q 54.890625 34.8125 54.890625 23.390625 
Q 54.890625 11.625 47.5625 5.09375 
Q 40.234375 -1.421875 26.90625 -1.421875 
Q 22.3125 -1.421875 17.546875 -0.640625 
Q 12.796875 0.140625 7.71875 1.703125 
L 7.71875 11.625 
Q 12.109375 9.234375 16.796875 8.0625 
Q 21.484375 6.890625 26.703125 6.890625 
Q 35.15625 6.890625 40.078125 11.328125 
Q 45.015625 15.765625 45.015625 23.390625 
Q 45.015625 31 40.078125 35.4375 
Q 35.15625 39.890625 26.703125 39.890625 
Q 22.75 39.890625 18.8125 39.015625 
Q 14.890625 38.140625 10.796875 36.28125 
z
" id="DejaVuSans-35"/>
      </defs>
      <g transform="translate(191.496116 384.980838)scale(0.1 -0.1)">
       <use xlink:href="#DejaVuSans-35"/>
       <use x="63.623047" xlink:href="#DejaVuSans-30"/>
       <use x="127.246094" xlink:href="#DejaVuSans-30"/>
      </g>
     </g>
    </g>
    <g id="xtick_3">
     <g id="line2d_3">
      <g>
       <use style="stroke:#000000;stroke-width:0.8;" x="282.644609" xlink:href="#mdab104585b" y="370.3824"/>
      </g>
     </g>
     <g id="text_3">
      <!-- 1000 -->
      <defs>
       <path d="M 12.40625 8.296875 
L 28.515625 8.296875 
L 28.515625 63.921875 
L 10.984375 60.40625 
L 10.984375 69.390625 
L 28.421875 72.90625 
L 38.28125 72.90625 
L 38.28125 8.296875 
L 54.390625 8.296875 
L 54.390625 0 
L 12.40625 0 
z
" id="DejaVuSans-31"/>
      </defs>
      <g transform="translate(269.919609 384.980838)scale(0.1 -0.1)">
       <use xlink:href="#DejaVuSans-31"/>
       <use x="63.623047" xlink:href="#DejaVuSans-30"/>
       <use x="127.246094" xlink:href="#DejaVuSans-30"/>
       <use x="190.869141" xlink:href="#DejaVuSans-30"/>
      </g>
     </g>
    </g>
    <g id="xtick_4">
     <g id="line2d_4">
      <g>
       <use style="stroke:#000000;stroke-width:0.8;" x="364.249352" xlink:href="#mdab104585b" y="370.3824"/>
      </g>
     </g>
     <g id="text_4">
      <!-- 1500 -->
      <g transform="translate(351.524352 384.980838)scale(0.1 -0.1)">
       <use xlink:href="#DejaVuSans-31"/>
       <use x="63.623047" xlink:href="#DejaVuSans-35"/>
       <use x="127.246094" xlink:href="#DejaVuSans-30"/>
       <use x="190.869141" xlink:href="#DejaVuSans-30"/>
      </g>
     </g>
    </g>
    <g id="xtick_5">
     <g id="line2d_5">
      <g>
       <use style="stroke:#000000;stroke-width:0.8;" x="445.854095" xlink:href="#mdab104585b" y="370.3824"/>
      </g>
     </g>
     <g id="text_5">
      <!-- 2000 -->
      <defs>
       <path d="M 19.1875 8.296875 
L 53.609375 8.296875 
L 53.609375 0 
L 7.328125 0 
L 7.328125 8.296875 
Q 12.9375 14.109375 22.625 23.890625 
Q 32.328125 33.6875 34.8125 36.53125 
Q 39.546875 41.84375 41.421875 45.53125 
Q 43.3125 49.21875 43.3125 52.78125 
Q 43.3125 58.59375 39.234375 62.25 
Q 35.15625 65.921875 28.609375 65.921875 
Q 23.96875 65.921875 18.8125 64.3125 
Q 13.671875 62.703125 7.8125 59.421875 
L 7.8125 69.390625 
Q 13.765625 71.78125 18.9375 73 
Q 24.125 74.21875 28.421875 74.21875 
Q 39.75 74.21875 46.484375 68.546875 
Q 53.21875 62.890625 53.21875 53.421875 
Q 53.21875 48.921875 51.53125 44.890625 
Q 49.859375 40.875 45.40625 35.40625 
Q 44.1875 33.984375 37.640625 27.21875 
Q 31.109375 20.453125 19.1875 8.296875 
z
" id="DejaVuSans-32"/>
      </defs>
      <g transform="translate(433.129095 384.980838)scale(0.1 -0.1)">
       <use xlink:href="#DejaVuSans-32"/>
       <use x="63.623047" xlink:href="#DejaVuSans-30"/>
       <use x="127.246094" xlink:href="#DejaVuSans-30"/>
       <use x="190.869141" xlink:href="#DejaVuSans-30"/>
      </g>
     </g>
    </g>
    <g id="xtick_6">
     <g id="line2d_6">
      <g>
       <use style="stroke:#000000;stroke-width:0.8;" x="527.458838" xlink:href="#mdab104585b" y="370.3824"/>
      </g>
     </g>
     <g id="text_6">
      <!-- 2500 -->
      <g transform="translate(514.733838 384.980838)scale(0.1 -0.1)">
       <use xlink:href="#DejaVuSans-32"/>
       <use x="63.623047" xlink:href="#DejaVuSans-35"/>
       <use x="127.246094" xlink:href="#DejaVuSans-30"/>
       <use x="190.869141" xlink:href="#DejaVuSans-30"/>
      </g>
     </g>
    </g>
    <g id="xtick_7">
     <g id="line2d_7">
      <g>
       <use style="stroke:#000000;stroke-width:0.8;" x="609.063581" xlink:href="#mdab104585b" y="370.3824"/>
      </g>
     </g>
     <g id="text_7">
      <!-- 3000 -->
      <defs>
       <path d="M 40.578125 39.3125 
Q 47.65625 37.796875 51.625 33 
Q 55.609375 28.21875 55.609375 21.1875 
Q 55.609375 10.40625 48.1875 4.484375 
Q 40.765625 -1.421875 27.09375 -1.421875 
Q 22.515625 -1.421875 17.65625 -0.515625 
Q 12.796875 0.390625 7.625 2.203125 
L 7.625 11.71875 
Q 11.71875 9.328125 16.59375 8.109375 
Q 21.484375 6.890625 26.8125 6.890625 
Q 36.078125 6.890625 40.9375 10.546875 
Q 45.796875 14.203125 45.796875 21.1875 
Q 45.796875 27.640625 41.28125 31.265625 
Q 36.765625 34.90625 28.71875 34.90625 
L 20.21875 34.90625 
L 20.21875 43.015625 
L 29.109375 43.015625 
Q 36.375 43.015625 40.234375 45.921875 
Q 44.09375 48.828125 44.09375 54.296875 
Q 44.09375 59.90625 40.109375 62.90625 
Q 36.140625 65.921875 28.71875 65.921875 
Q 24.65625 65.921875 20.015625 65.03125 
Q 15.375 64.15625 9.8125 62.3125 
L 9.8125 71.09375 
Q 15.4375 72.65625 20.34375 73.4375 
Q 25.25 74.21875 29.59375 74.21875 
Q 40.828125 74.21875 47.359375 69.109375 
Q 53.90625 64.015625 53.90625 55.328125 
Q 53.90625 49.265625 50.4375 45.09375 
Q 46.96875 40.921875 40.578125 39.3125 
z
" id="DejaVuSans-33"/>
      </defs>
      <g transform="translate(596.338581 384.980838)scale(0.1 -0.1)">
       <use xlink:href="#DejaVuSans-33"/>
       <use x="63.623047" xlink:href="#DejaVuSans-30"/>
       <use x="127.246094" xlink:href="#DejaVuSans-30"/>
       <use x="190.869141" xlink:href="#DejaVuSans-30"/>
      </g>
     </g>
    </g>
   </g>
   <g id="matplotlib.axis_2">
    <g id="ytick_1">
     <g id="line2d_8">
      <defs>
       <path d="M 0 0 
L -3.5 0 
" id="md8a7ce1ef2" style="stroke:#000000;stroke-width:0.8;"/>
      </defs>
      <g>
       <use style="stroke:#000000;stroke-width:0.8;" x="93.24" xlink:href="#md8a7ce1ef2" y="334.726262"/>
      </g>
     </g>
     <g id="text_8">
      <!-- 0.05 -->
      <defs>
       <path d="M 10.6875 12.40625 
L 21 12.40625 
L 21 0 
L 10.6875 0 
z
" id="DejaVuSans-2e"/>
      </defs>
      <g transform="translate(63.974375 338.525481)scale(0.1 -0.1)">
       <use xlink:href="#DejaVuSans-30"/>
       <use x="63.623047" xlink:href="#DejaVuSans-2e"/>
       <use x="95.410156" xlink:href="#DejaVuSans-30"/>
       <use x="159.033203" xlink:href="#DejaVuSans-35"/>
      </g>
     </g>
    </g>
    <g id="ytick_2">
     <g id="line2d_9">
      <g>
       <use style="stroke:#000000;stroke-width:0.8;" x="93.24" xlink:href="#md8a7ce1ef2" y="292.646179"/>
      </g>
     </g>
     <g id="text_9">
      <!-- 0.10 -->
      <g transform="translate(63.974375 296.445398)scale(0.1 -0.1)">
       <use xlink:href="#DejaVuSans-30"/>
       <use x="63.623047" xlink:href="#DejaVuSans-2e"/>
       <use x="95.410156" xlink:href="#DejaVuSans-31"/>
       <use x="159.033203" xlink:href="#DejaVuSans-30"/>
      </g>
     </g>
    </g>
    <g id="ytick_3">
     <g id="line2d_10">
      <g>
       <use style="stroke:#000000;stroke-width:0.8;" x="93.24" xlink:href="#md8a7ce1ef2" y="250.566096"/>
      </g>
     </g>
     <g id="text_10">
      <!-- 0.15 -->
      <g transform="translate(63.974375 254.365315)scale(0.1 -0.1)">
       <use xlink:href="#DejaVuSans-30"/>
       <use x="63.623047" xlink:href="#DejaVuSans-2e"/>
       <use x="95.410156" xlink:href="#DejaVuSans-31"/>
       <use x="159.033203" xlink:href="#DejaVuSans-35"/>
      </g>
     </g>
    </g>
    <g id="ytick_4">
     <g id="line2d_11">
      <g>
       <use style="stroke:#000000;stroke-width:0.8;" x="93.24" xlink:href="#md8a7ce1ef2" y="208.486013"/>
      </g>
     </g>
     <g id="text_11">
      <!-- 0.20 -->
      <g transform="translate(63.974375 212.285231)scale(0.1 -0.1)">
       <use xlink:href="#DejaVuSans-30"/>
       <use x="63.623047" xlink:href="#DejaVuSans-2e"/>
       <use x="95.410156" xlink:href="#DejaVuSans-32"/>
       <use x="159.033203" xlink:href="#DejaVuSans-30"/>
      </g>
     </g>
    </g>
    <g id="ytick_5">
     <g id="line2d_12">
      <g>
       <use style="stroke:#000000;stroke-width:0.8;" x="93.24" xlink:href="#md8a7ce1ef2" y="166.405929"/>
      </g>
     </g>
     <g id="text_12">
      <!-- 0.25 -->
      <g transform="translate(63.974375 170.205148)scale(0.1 -0.1)">
       <use xlink:href="#DejaVuSans-30"/>
       <use x="63.623047" xlink:href="#DejaVuSans-2e"/>
       <use x="95.410156" xlink:href="#DejaVuSans-32"/>
       <use x="159.033203" xlink:href="#DejaVuSans-35"/>
      </g>
     </g>
    </g>
    <g id="ytick_6">
     <g id="line2d_13">
      <g>
       <use style="stroke:#000000;stroke-width:0.8;" x="93.24" xlink:href="#md8a7ce1ef2" y="124.325846"/>
      </g>
     </g>
     <g id="text_13">
      <!-- 0.30 -->
      <g transform="translate(63.974375 128.125065)scale(0.1 -0.1)">
       <use xlink:href="#DejaVuSans-30"/>
       <use x="63.623047" xlink:href="#DejaVuSans-2e"/>
       <use x="95.410156" xlink:href="#DejaVuSans-33"/>
       <use x="159.033203" xlink:href="#DejaVuSans-30"/>
      </g>
     </g>
    </g>
    <g id="ytick_7">
     <g id="line2d_14">
      <g>
       <use style="stroke:#000000;stroke-width:0.8;" x="93.24" xlink:href="#md8a7ce1ef2" y="82.245763"/>
      </g>
     </g>
     <g id="text_14">
      <!-- 0.35 -->
      <g transform="translate(63.974375 86.044982)scale(0.1 -0.1)">
       <use xlink:href="#DejaVuSans-30"/>
       <use x="63.623047" xlink:href="#DejaVuSans-2e"/>
       <use x="95.410156" xlink:href="#DejaVuSans-33"/>
       <use x="159.033203" xlink:href="#DejaVuSans-35"/>
      </g>
     </g>
    </g>
   </g>
   <g id="line2d_15">
    <path clip-path="url(#p63b3c300bc)" d="M 119.516727 228.970597 
L 119.598332 228.835941 
L 119.761542 231.040937 
L 119.843146 230.704297 
L 120.08796 228.128996 
L 120.332775 232.437996 
L 120.414379 232.202348 
L 120.495984 232.892461 
L 120.577589 231.949867 
L 120.659194 229.57655 
L 120.740798 230.283496 
L 120.822403 231.007273 
L 120.904008 232.959789 
L 121.148822 230.031015 
L 121.230427 230.081511 
L 121.393636 230.956777 
L 121.556846 229.930023 
L 121.638451 230.031015 
L 121.80166 228.465636 
L 121.883265 229.037925 
L 121.96487 228.398308 
L 122.128079 226.395296 
L 122.209684 226.26064 
L 122.291289 226.3448 
L 122.454498 228.398308 
L 122.536103 228.314148 
L 122.617708 227.16957 
L 122.699312 228.835941 
L 122.780917 227.910179 
L 122.862522 229.172582 
L 122.944126 228.987429 
L 123.025731 229.223078 
L 123.107336 228.684453 
L 123.188941 228.768613 
L 123.270545 231.108265 
L 123.51536 228.196324 
L 123.596964 228.617124 
L 123.760174 224.897245 
L 123.841779 225.116062 
L 124.004988 226.950753 
L 124.331407 224.072476 
L 124.413012 224.1903 
L 124.576221 224.880413 
L 124.739431 221.446678 
L 124.984245 224.038811 
L 125.06585 223.584347 
L 125.147455 224.139804 
L 125.310664 222.557593 
L 125.473874 225.149726 
L 125.555478 225.250718 
L 125.637083 224.594269 
L 125.800292 225.907167 
L 125.881897 228.701285 
L 125.963502 228.028003 
L 126.208316 224.981405 
L 126.534735 227.624035 
L 126.779549 224.560604 
L 126.861154 225.031901 
L 127.024364 223.937819 
L 127.105968 225.334878 
L 127.269178 223.432858 
L 127.350783 223.584347 
L 127.432387 223.163546 
L 127.513992 224.122972 
L 127.840411 221.076374 
L 128.003621 222.153624 
L 128.085225 221.581335 
L 128.16683 223.163546 
L 128.33004 220.689237 
L 128.574854 223.399194 
L 128.656458 221.951639 
L 128.738063 222.422936 
L 128.819668 222.591257 
L 128.901273 222.355608 
L 129.064482 224.055643 
L 129.227692 221.598167 
L 129.309296 222.658585 
L 129.472506 221.648663 
L 129.554111 223.180378 
L 129.635715 222.422936 
L 129.71732 222.658585 
L 129.798925 223.247706 
L 129.88053 223.11305 
L 129.962134 222.961561 
L 130.043739 223.045721 
L 130.125344 222.507096 
L 130.370158 224.341788 
L 130.451763 224.156636 
L 130.533368 224.425948 
L 130.614972 223.954651 
L 130.696577 224.240796 
L 130.778182 223.500186 
L 131.022996 225.553694 
L 131.186206 223.601179 
L 131.349415 224.308124 
L 131.43102 224.291292 
L 131.594229 227.186402 
L 131.757439 225.065565 
L 131.839043 225.250718 
L 131.920648 227.708195 
L 132.002253 226.950753 
L 132.083858 226.59728 
L 132.247067 223.836827 
L 132.328672 223.988315 
L 132.655091 226.243808 
L 132.98151 222.321944 
L 133.063115 223.28137 
L 133.226324 221.076374 
L 133.307929 221.648663 
L 133.471138 223.19721 
L 133.715953 221.009045 
L 133.797557 221.497174 
L 133.879162 222.776409 
L 134.123976 220.487252 
L 134.287186 221.665495 
L 134.368791 221.37935 
L 134.613605 224.038811 
L 134.695209 223.904155 
L 134.776814 224.156636 
L 134.858419 223.315034 
L 134.940024 223.702171 
L 135.021628 224.745757 
L 135.184838 223.432858 
L 135.429652 224.728925 
L 135.511257 224.493276 
L 135.592862 226.109152 
L 135.674466 225.570526 
L 135.756071 226.159648 
L 135.919281 225.065565 
L 136.08249 224.392284 
L 136.164095 224.52694 
L 136.2457 222.927897 
L 136.327304 223.028889 
L 136.408909 223.53385 
L 136.572119 226.614113 
L 136.898538 222.389272 
L 137.061747 223.988315 
L 137.143352 223.702171 
L 137.224957 222.709081 
L 137.306561 223.264538 
L 137.388166 223.096218 
L 137.551375 222.591257 
L 137.63298 223.719003 
L 137.714585 223.416026 
L 137.79619 224.291292 
L 137.877794 223.920987 
L 137.959399 224.712093 
L 138.367423 222.170456 
L 138.449028 222.254616 
L 138.530632 222.608089 
L 138.612237 224.089308 
L 138.857051 222.271448 
L 139.020261 222.523928 
L 139.101866 223.735835 
L 139.18347 223.668507 
L 139.428285 222.911065 
L 139.591494 224.139804 
L 139.673099 223.618011 
L 139.754704 224.072476 
L 139.836308 223.719003 
L 139.917913 222.843737 
L 140.244332 224.341788 
L 140.325937 226.142816 
L 140.407542 224.661597 
L 140.489146 224.863581 
L 140.652356 226.630945 
L 140.73396 225.419038 
L 140.815565 225.452702 
L 140.89717 224.796253 
L 140.978775 225.688351 
L 141.141984 224.594269 
L 141.223589 223.517018 
L 141.305194 224.409116 
L 141.386798 224.089308 
L 141.468403 223.651675 
L 141.550008 223.786331 
L 141.713217 225.974495 
L 141.794822 225.940831 
L 141.958032 225.116062 
L 142.039636 225.082398 
L 142.202846 227.33789 
L 142.366055 224.425948 
L 142.44766 224.308124 
L 142.692474 229.189414 
L 142.855684 226.664609 
L 142.937289 226.933921 
L 143.100498 225.974495 
L 143.508522 228.617124 
L 143.590126 230.216168 
L 143.916545 226.630945 
L 143.99815 227.50621 
L 144.079755 228.381476 
L 144.16136 228.347812 
L 144.242964 228.869605 
L 144.324569 228.58346 
L 144.406174 229.223078 
L 144.650988 226.866593 
L 144.732593 227.051745 
L 144.895802 229.845863 
L 144.977407 228.768613 
L 145.140617 231.747883 
L 145.222221 231.529066 
L 145.303826 231.596394 
L 145.467036 231.259754 
L 145.630245 234.037039 
L 145.956664 227.287394 
L 146.038269 227.674531 
L 146.201478 233.784559 
L 146.283083 233.767727 
L 146.446292 230.771625 
L 146.527897 231.141929 
L 146.609502 230.014183 
L 146.691107 230.805289 
L 146.772711 230.064679 
L 146.854316 231.916203 
L 146.935921 231.882539 
L 147.017526 232.437996 
L 147.09913 231.495402 
L 147.26234 233.447918 
L 147.507154 230.838953 
L 147.588759 230.283496 
L 147.670364 228.785445 
L 147.833573 229.997351 
L 147.915178 228.633957 
L 148.159992 232.118187 
L 148.323202 232.067691 
L 148.81283 227.960675 
L 148.894435 228.549796 
L 148.97604 227.927011 
L 149.057644 226.361632 
L 149.139249 226.529952 
L 149.220854 226.26064 
L 149.302458 227.152738 
L 149.384063 226.226976 
L 149.628877 229.643879 
L 149.873692 226.529952 
L 150.118506 230.333992 
L 150.200111 230.115175 
L 150.281715 229.930023 
L 150.52653 226.748769 
L 150.608134 226.445792 
L 150.689739 226.900257 
L 150.771344 228.684453 
L 151.016158 225.873503 
L 151.097763 226.647777 
L 151.179368 226.327968 
L 151.342577 227.203234 
L 151.505787 226.159648 
L 151.832206 229.458726 
L 151.91381 229.23991 
L 151.995415 228.58346 
L 152.07702 229.49239 
L 152.321834 227.472546 
L 152.403439 229.054757 
L 152.485043 228.970597 
L 152.729858 227.304226 
L 152.974672 226.630945 
L 153.056277 226.681441 
L 153.301091 230.670633 
L 153.382696 229.088421 
L 153.4643 230.670633 
L 153.545905 230.165672 
L 153.62751 229.256742 
L 153.709115 229.357734 
L 153.872324 231.545898 
L 153.953929 230.283496 
L 154.035534 230.906281 
L 154.198743 229.812199 
L 154.280348 230.721129 
L 154.525162 226.933921 
L 154.606767 227.455714 
L 155.178 225.385374 
L 155.259605 225.907167 
L 155.341209 225.587359 
L 155.422814 224.173468 
L 155.504419 224.308124 
L 155.586024 224.10614 
L 155.749233 227.321058 
L 155.912443 225.705183 
L 156.157257 227.943843 
L 156.320466 229.32407 
L 156.402071 229.189414 
L 156.646885 227.624035 
L 156.72849 227.691363 
L 156.810095 227.16957 
L 156.8917 227.943843 
L 156.973304 226.698273 
L 157.054909 228.061667 
L 157.136514 227.775523 
L 157.218119 227.758691 
L 157.381328 228.482468 
L 157.462933 228.33098 
L 157.626142 226.041823 
L 157.707747 226.832929 
L 157.789352 226.580448 
L 158.034166 228.4993 
L 158.197375 225.738847 
L 158.27898 227.135906 
L 158.360585 227.085409 
L 158.44219 226.715105 
L 158.605399 228.112163 
L 158.768609 226.967585 
L 158.850213 227.523042 
L 158.931818 226.933921 
L 159.095028 224.560604 
L 159.176632 226.193312 
L 159.258237 225.974495 
L 159.339842 226.3448 
L 159.421447 225.553694 
L 159.666261 227.859683 
L 159.747866 226.462624 
L 159.82947 226.51312 
L 159.911075 226.294304 
L 160.237494 229.088421 
L 160.319099 228.852773 
L 160.400704 231.057769 
L 160.482308 230.603304 
L 160.563913 232.252844 
L 160.645518 232.135019 
L 160.727123 232.084523 
L 160.808727 232.505324 
L 160.971937 234.356848 
L 161.053542 233.279598 
L 161.135146 234.053871 
L 161.298356 232.909293 
L 161.461565 230.283496 
L 161.54317 230.771625 
L 161.624775 230.451816 
L 161.706379 229.23991 
L 161.787984 229.32407 
L 161.869589 229.138918 
L 162.032798 227.775523 
L 162.277613 229.963687 
L 162.359217 229.49239 
L 162.604032 233.431086 
L 162.685636 232.791469 
L 162.848846 229.223078 
L 162.930451 230.519144 
L 163.012055 230.115175 
L 163.175265 231.815211 
L 163.25687 231.444906 
L 163.338474 231.007273 
L 163.420079 229.660711 
L 163.501684 231.579562 
L 163.583289 231.360746 
L 163.746498 232.606316 
L 163.828103 231.630058 
L 164.154522 233.54891 
L 164.317731 231.899371 
L 164.399336 233.229102 
L 164.725755 230.535976 
L 164.80736 231.276586 
L 164.888964 231.242922 
L 164.970569 230.721129 
L 165.215383 232.3875 
L 165.296988 229.677543 
L 165.623407 233.936047 
L 165.705012 233.245934 
L 165.786617 233.330094 
L 165.868221 233.313262 
L 166.031431 234.861809 
L 166.19464 234.558832 
L 166.276245 233.63307 
L 166.35785 233.885551 
L 166.521059 235.19845 
L 166.684269 234.28952 
L 166.929083 236.999477 
L 167.092292 237.26879 
L 167.173897 237.26879 
L 167.255502 236.948981 
L 167.337107 235.602418 
L 167.581921 238.834169 
L 167.663526 240.517372 
L 167.826735 238.026231 
L 168.071549 240.130235 
L 168.316364 238.160887 
L 168.642783 241.358974 
L 168.805992 238.211383 
L 168.969202 239.187641 
L 169.132411 241.594622 
L 169.214016 242.183743 
L 169.377225 240.382716 
L 169.45883 240.433212 
L 169.540435 239.810427 
L 169.703644 241.527294 
L 169.785249 241.375806 
L 169.866854 239.692602 
L 169.948458 240.163899 
L 170.030063 240.534204 
L 170.111668 241.863935 
L 170.519692 238.985657 
L 170.764506 240.382716 
L 170.846111 239.608442 
L 170.927715 239.709434 
L 171.00932 239.271802 
L 171.090925 239.557946 
L 171.17253 241.224317 
L 171.254134 241.207485 
L 171.498949 238.043063 
L 171.580553 239.322298 
L 171.662158 239.153977 
L 171.743763 240.012411 
L 171.825368 238.716344 
L 171.906972 240.41638 
L 171.988577 239.961915 
L 172.070182 239.271802 
L 172.151787 240.887677 
L 172.314996 236.662836 
L 172.396601 237.841079 
L 172.55981 235.636082 
L 172.641415 238.093559 
L 172.72302 238.076727 
L 172.967834 235.518258 
L 173.049439 236.545012 
L 173.131043 235.248946 
L 173.294253 235.922227 
L 173.375858 234.407344 
L 173.457462 234.474672 
L 173.620672 236.44402 
L 173.702277 235.568754 
L 173.783881 235.669746 
L 173.947091 239.238137 
L 174.028696 238.228215 
L 174.1103 239.019321 
L 174.191905 241.140157 
L 174.355115 238.901497 
L 174.518324 240.854013 
L 174.844743 236.309364 
L 174.926348 236.561844 
L 175.007953 236.44402 
L 175.252767 233.784559 
L 175.334372 233.481582 
L 175.497581 231.731051 
L 175.742395 233.29643 
L 175.824 233.027117 
L 175.987209 229.913191 
L 176.068814 231.31025 
L 176.150419 231.108265 
L 176.232024 231.158762 
L 176.395233 231.815211 
L 176.803257 226.580448 
L 176.884862 226.731937 
L 176.966466 225.923999 
L 177.129676 227.371554 
L 177.5377 224.27446 
L 177.700909 225.200222 
L 178.190538 220.672405 
L 178.272142 220.790229 
L 178.353747 221.867479 
L 178.598561 215.723787 
L 178.680166 216.565389 
L 178.761771 219.325842 
L 178.843375 218.214928 
L 179.08819 213.01383 
L 179.169794 213.43463 
L 179.251399 214.461385 
L 179.741028 210.000896 
L 179.822632 210.085056 
L 180.067447 206.752313 
L 180.149051 206.853305 
L 180.230656 207.627579 
L 180.393866 205.405751 
L 180.47547 205.557239 
L 180.557075 203.655219 
L 180.63868 203.823539 
L 180.720285 204.177012 
L 180.965099 201.500719 
L 181.128308 199.615531 
L 181.209913 200.995758 
L 181.291518 200.709613 
L 181.373123 200.574957 
L 181.699542 196.754085 
L 181.862751 198.740265 
L 182.107565 196.299621 
L 182.270775 196.888742 
L 182.597194 192.748062 
L 182.678798 192.798558 
L 182.842008 193.320351 
L 183.086822 187.782612 
L 183.331636 190.576729 
L 183.576451 184.752846 
L 183.658055 185.005326 
L 183.821265 188.944022 
L 184.066079 187.395475 
L 184.147684 185.678608 
L 184.392498 189.499479 
L 184.637312 184.78651 
L 184.800522 186.654866 
L 185.045336 182.446857 
L 185.126941 182.160713 
L 185.208545 183.086474 
L 185.29015 182.867658 
L 185.371755 182.211209 
L 185.534964 182.817162 
L 185.616569 183.843916 
L 186.024593 178.356673 
L 186.106198 179.130947 
L 186.351012 181.756744 
L 186.595826 177.66656 
L 186.677431 177.515071 
L 186.759036 178.491329 
L 186.84064 178.373505 
L 187.00385 178.020032 
L 187.167059 177.212095 
L 187.248664 178.137857 
L 187.411874 176.892286 
L 187.493478 177.346751 
L 187.575083 176.976446 
L 187.819897 180.208197 
L 188.064711 176.824958 
L 188.146316 177.447743 
L 188.309526 180.89831 
L 188.635945 177.683392 
L 188.717549 177.818048 
L 188.962364 180.326021 
L 189.043968 179.7369 
L 189.125573 179.837892 
L 189.288783 181.369607 
L 189.370387 180.81415 
L 189.451992 180.073541 
L 189.778411 182.127049 
L 189.860016 182.413193 
L 190.023225 181.234951 
L 190.26804 187.10933 
L 190.431249 187.833108 
L 190.676063 183.675596 
L 191.002482 189.045014 
L 191.247296 185.543951 
L 191.492111 187.68162 
L 191.573715 186.03208 
L 191.65532 186.537041 
L 191.736925 186.77269 
L 192.063344 191.16585 
L 192.144949 190.963866 
L 192.226553 191.569819 
L 192.308158 190.778714 
L 192.389763 191.401499 
L 192.471368 193.572831 
L 192.552972 193.421343 
L 192.960996 198.403625 
L 193.042601 197.360039 
L 193.124206 197.410535 
L 193.20581 197.612519 
L 193.532229 201.753199 
L 193.695439 200.84427 
L 193.777043 201.399727 
L 193.858648 202.965106 
L 193.940253 202.611633 
L 194.021858 202.123504 
L 194.103462 202.157168 
L 194.511486 206.617657 
L 194.593091 206.449337 
L 194.674696 206.14636 
L 195.082719 212.441541 
L 195.164324 212.609861 
L 195.409138 215.201994 
L 195.572348 216.834701 
L 195.653953 216.733709 
L 195.980372 222.658585 
L 196.143581 220.167444 
L 196.306791 223.012057 
L 196.388395 223.045721 
L 196.633209 226.51312 
L 196.714814 226.496288 
L 197.122838 229.559718 
L 197.204443 229.610214 
L 197.612466 233.818223 
L 197.694071 233.582574 
L 197.857281 234.525168 
L 197.938885 235.518258 
L 198.02049 234.996465 
L 198.102095 235.686578 
L 198.1837 235.669746 
L 198.428514 241.257981 
L 198.510119 241.443134 
L 198.591723 241.342142 
L 199.162957 246.442248 
L 199.244561 246.778888 
L 199.407771 250.330447 
L 199.652585 248.798732 
L 199.73419 248.983885 
L 199.815794 249.77499 
L 199.897399 251.693842 
L 200.223818 248.7819 
L 200.631842 255.969179 
L 200.795051 255.312729 
L 200.876656 255.632538 
L 201.039866 256.89494 
L 201.12147 256.591964 
L 201.203075 255.144409 
L 201.28468 255.666202 
L 201.366285 256.171163 
L 201.529494 254.976089 
L 201.692704 255.767194 
L 201.855913 253.865174 
L 202.100727 257.315741 
L 202.263937 255.615706 
L 202.508751 258.998945 
L 202.753565 258.359327 
L 202.998379 259.891042 
L 203.324798 257.770206 
L 203.406403 258.090015 
L 203.651217 257.214749 
L 203.896032 259.301921 
L 203.977636 257.753374 
L 204.059241 258.241503 
L 204.140846 258.191007 
L 204.222451 258.998945 
L 204.38566 257.433565 
L 204.467265 257.871198 
L 204.54887 258.106847 
L 204.630474 258.813792 
L 204.793684 258.090015 
L 204.875289 258.325663 
L 205.038498 258.998945 
L 205.120103 258.62864 
L 205.201708 259.891042 
L 205.283312 258.392991 
L 205.364917 259.70589 
L 205.446522 259.655394 
L 205.528126 259.150433 
L 205.609731 259.470241 
L 205.772941 255.380057 
L 205.854545 256.221659 
L 206.017755 258.426655 
L 206.09936 258.830624 
L 206.344174 255.73353 
L 206.588988 258.914784 
L 206.915407 249.707662 
L 207.160221 253.343381 
L 207.323431 248.125451 
L 207.405036 248.714572 
L 207.568245 250.616592 
L 207.731455 247.014537 
L 207.813059 247.334346 
L 207.894664 246.829385 
L 207.976269 247.081865 
L 208.384292 242.705536 
L 208.465897 243.126337 
L 208.629107 244.4729 
L 208.873921 239.50745 
L 209.118735 237.992567 
L 209.363549 234.171695 
L 209.445154 235.131121 
L 209.526759 234.828145 
L 209.689968 234.929137 
L 209.771573 234.693489 
L 210.016387 228.886437 
L 210.097992 230.48548 
L 210.261202 226.563616 
L 210.587621 223.517018 
L 210.669225 224.055643 
L 210.91404 218.618897 
L 210.995644 218.416912 
L 211.077249 219.628819 
L 211.158854 219.544659 
L 211.403668 213.872263 
L 211.485273 214.764361 
L 211.893296 209.731583 
L 211.974901 209.613759 
L 212.30132 205.742391 
L 212.382925 206.583993 
L 212.627739 203.571059 
L 212.709344 204.042356 
L 212.954158 201.298734 
L 213.035763 201.702703 
L 213.198972 200.507629 
L 213.280577 200.962094 
L 213.443787 197.982824 
L 213.606996 196.518437 
L 213.770206 196.097636 
L 214.504648 187.294483 
L 214.586253 187.833108 
L 214.667858 187.76578 
L 214.912672 183.608267 
L 215.075881 184.736014 
L 215.4023 182.312201 
L 215.647115 177.599232 
L 215.728719 177.75072 
L 215.810324 177.212095 
L 215.973534 173.290231 
L 216.055138 174.182329 
L 216.136743 174.047673 
L 216.218348 174.68729 
L 216.299953 174.367481 
L 216.463162 170.832754 
L 216.544767 172.179317 
L 216.789581 167.718828 
L 216.871186 167.802988 
L 217.116 170.226801 
L 217.279209 167.786156 
L 217.360814 167.079211 
L 217.524024 168.274285 
L 217.687233 166.607914 
L 217.768838 167.90398 
L 217.850443 166.591082 
L 217.932047 166.877226 
L 218.095257 168.89707 
L 218.176862 169.099055 
L 218.421676 165.396007 
L 218.503281 165.597992 
L 218.584885 167.314859 
L 218.66649 166.540586 
L 218.748095 166.894058 
L 218.911304 166.254441 
L 218.992909 166.506922 
L 219.074514 166.456426 
L 219.319328 163.392996 
L 219.482538 160.211741 
L 219.564142 160.44739 
L 219.645747 160.582046 
L 219.727352 161.541472 
L 219.890561 158.764186 
L 219.972166 159.673116 
L 220.135375 161.373152 
L 220.21698 164.352421 
L 220.461794 160.194909 
L 220.543399 160.245405 
L 220.625004 158.983003 
L 220.869818 162.012769 
L 220.951423 161.52464 
L 221.033028 161.709792 
L 221.277842 164.083109 
L 221.359447 162.214753 
L 221.441051 162.315745 
L 221.522656 162.719714 
L 221.685866 166.473258 
L 221.76747 166.187113 
L 221.849075 164.335589 
L 222.012285 166.035625 
L 222.093889 165.497 
L 222.175494 166.624746 
L 222.257099 165.783144 
L 222.338704 166.422762 
L 222.501913 170.428785 
L 222.583518 169.200047 
L 222.746727 172.583286 
L 222.909937 168.745582 
L 223.154751 170.159473 
L 223.236356 169.856496 
L 223.644379 172.583286 
L 223.725984 172.549622 
L 223.889194 171.421875 
L 224.052403 175.259579 
L 224.215613 178.82797 
L 224.542032 180.410181 
L 224.623636 180.528005 
L 224.705241 181.352775 
L 224.786846 183.675596 
L 224.868451 182.244873 
L 224.950055 182.564681 
L 225.276474 188.84303 
L 225.439684 188.304405 
L 225.602893 189.937112 
L 225.684498 190.139096 
L 225.766103 192.15894 
L 225.847708 190.795546 
L 225.929312 191.16585 
L 226.092522 194.902562 
L 226.255731 197.831336 
L 226.337336 196.838246 
L 226.418941 197.326375 
L 226.826964 204.429493 
L 226.990174 204.799797 
L 227.071779 208.04838 
L 227.153383 207.812731 
L 227.316593 210.186048 
L 227.398198 210.068224 
L 227.479802 210.859329 
L 227.806221 218.888209 
L 227.887826 219.342674 
L 227.969431 219.090194 
L 228.051036 218.012944 
L 228.13264 218.972369 
L 228.29585 222.591257 
L 228.377455 222.54076 
L 228.459059 225.318046 
L 228.540664 224.089308 
L 228.785478 226.917089 
L 228.867083 226.125984 
L 229.030292 230.081511 
L 229.193502 234.861809 
L 229.275107 234.62616 
L 229.438316 235.215282 
L 229.519921 234.272688 
L 229.764735 238.463864 
L 229.84634 237.790583 
L 230.009549 240.971837 
L 230.335968 244.994693 
L 230.417573 244.876869 
L 230.499178 244.018435 
L 230.580783 244.30458 
L 230.743992 248.596748 
L 230.825597 247.70465 
L 231.315225 256.087003 
L 231.39683 256.507804 
L 231.478435 256.070171 
L 231.641644 257.130589 
L 231.804854 260.278179 
L 232.049668 258.594976 
L 232.457692 266.926832 
L 232.539296 265.361453 
L 232.784111 270.377399 
L 232.865715 270.7982 
L 232.94732 270.596215 
L 233.192134 273.154685 
L 233.273739 273.94579 
L 233.436949 272.599227 
L 233.681763 275.696322 
L 233.844972 277.362693 
L 233.926577 277.076548 
L 234.252996 280.678603 
L 234.334601 281.318221 
L 234.49781 280.527115 
L 234.579415 280.527115 
L 234.824229 283.119248 
L 234.905834 283.506385 
L 234.987439 282.748944 
L 235.069043 280.914252 
L 235.150648 281.469709 
L 235.313858 285.879702 
L 235.395462 285.627221 
L 235.558672 283.725201 
L 235.640277 284.381651 
L 235.803486 287.562905 
L 236.0483 285.745045 
L 236.21151 287.411417 
L 236.293115 287.546073 
L 236.374719 288.858972 
L 236.537929 285.139092 
L 236.619534 284.886612 
L 236.701138 285.155924 
L 236.864348 283.758866 
L 236.945953 284.297491 
L 237.109162 282.176654 
L 237.190767 282.294479 
L 237.353976 284.196498 
L 237.517186 281.469709 
L 237.762 284.768788 
L 237.843605 284.987604 
L 238.006814 281.80635 
L 238.088419 283.068752 
L 238.170024 283.674705 
L 238.578047 275.67949 
L 238.741257 275.915138 
L 238.904466 275.1072 
L 239.067676 271.420985 
L 239.149281 271.723962 
L 239.230885 270.848696 
L 239.31249 270.96652 
L 239.394095 271.774458 
L 239.557304 269.603126 
L 240.128538 265.058477 
L 240.210142 263.358441 
L 240.291747 263.812906 
L 240.373352 264.705004 
L 240.781375 259.655394 
L 240.86298 258.54448 
L 241.02619 253.982999 
L 241.271004 252.181971 
L 241.760632 246.509576 
L 241.842237 246.677896 
L 242.087051 242.200575 
L 242.168656 242.65504 
L 242.250261 241.880767 
L 242.41347 237.201461 
L 242.495075 237.588598 
L 242.57668 237.554934 
L 242.739889 233.952879 
L 242.903099 234.37368 
L 243.229518 223.769499 
L 243.311123 224.409116 
L 243.392727 223.685339 
L 243.637542 219.898131 
L 243.719146 221.261526 
L 243.882356 219.662483 
L 244.208775 210.993986 
L 244.371984 209.344446 
L 245.269636 194.700577 
L 245.432846 194.700577 
L 245.67766 190.17276 
L 245.759265 191.468827 
L 246.085684 185.139983 
L 246.248893 182.547849 
L 246.330498 182.177545 
L 247.309755 167.112875 
L 247.39136 167.112875 
L 247.472964 166.321769 
L 247.554569 164.285093 
L 247.636174 165.093031 
L 247.799383 163.7633 
L 248.125802 160.194909 
L 248.370617 157.973081 
L 248.533826 156.323542 
L 248.77864 151.694732 
L 248.860245 152.569998 
L 249.023455 147.739205 
L 249.105059 147.688708 
L 249.268269 149.068935 
L 249.349874 148.866951 
L 249.513083 146.190658 
L 249.676292 143.194556 
L 249.757897 144.153981 
L 249.839502 142.824251 
L 249.921107 144.38963 
L 250.165921 141.780665 
L 250.247526 140.450934 
L 250.32913 140.720247 
L 250.410735 141.073719 
L 250.655549 136.815215 
L 250.737154 136.966703 
L 250.900364 139.037043 
L 250.981968 139.710325 
L 251.145178 136.815215 
L 251.226783 137.202352 
L 251.308387 136.714223 
L 251.389992 136.882543 
L 251.471597 137.050863 
L 251.553202 136.024109 
L 251.716411 133.448808 
L 251.798016 135.165676 
L 251.961225 133.347816 
L 252.04283 132.927015 
L 252.124435 131.866597 
L 252.287644 134.088426 
L 252.369249 135.586477 
L 252.450854 135.148844 
L 252.614063 134.54289 
L 252.695668 134.509226 
L 252.777273 134.088426 
L 252.858877 135.468652 
L 252.940482 135.064684 
L 253.022087 134.711211 
L 253.185296 133.196328 
L 253.348506 136.52907 
L 253.430111 136.764719 
L 253.511715 136.579567 
L 253.674925 134.829035 
L 254.001344 139.642997 
L 254.082949 137.35384 
L 254.164553 138.161778 
L 254.246158 138.666739 
L 254.409368 141.460856 
L 254.654182 139.5925 
L 255.062206 143.531196 
L 255.14381 142.874747 
L 255.225415 143.329212 
L 255.388625 145.113407 
L 255.470229 145.29856 
L 255.551834 146.712451 
L 255.633439 145.904513 
L 255.959858 151.711564 
L 256.041462 151.307596 
L 256.286277 153.276944 
L 256.612696 157.686936 
L 256.6943 156.72751 
L 256.775905 157.148311 
L 257.102324 163.578148 
L 257.183929 163.123683 
L 257.265534 163.42666 
L 257.591953 169.755504 
L 257.673557 170.277297 
L 257.918372 174.535802 
L 257.999976 174.232825 
L 258.163186 172.515958 
L 258.571209 179.854724 
L 258.652814 179.198275 
L 258.897628 182.833994 
L 259.550466 195.474851 
L 259.632071 196.451109 
L 259.713676 195.777828 
L 260.040095 203.032434 
L 260.1217 202.08984 
L 260.203304 202.83045 
L 260.448119 208.469181 
L 260.529723 207.745403 
L 260.611328 208.065212 
L 260.692933 207.425595 
L 261.100957 218.248592 
L 261.182561 216.918861 
L 261.998609 235.046961 
L 262.080213 234.794481 
L 262.814656 245.617478 
L 262.977866 251.710674 
L 263.05947 250.801744 
L 263.304285 253.074069 
L 263.385889 254.168151 
L 263.630704 261.961382 
L 263.712308 260.328675 
L 264.528356 269.872438 
L 264.60996 268.929844 
L 264.691565 268.862516 
L 264.77317 269.199157 
L 265.017984 273.979454 
L 265.099589 273.003196 
L 265.262798 273.710142 
L 265.589217 280.7291 
L 265.670822 280.7291 
L 265.752427 281.200396 
L 265.997241 285.0381 
L 266.078846 285.930198 
L 266.32366 282.664783 
L 266.650079 290.82832 
L 266.731684 289.868894 
L 266.894893 292.427363 
L 267.058103 295.288808 
L 267.221312 293.487781 
L 267.302917 293.807589 
L 267.384522 293.656101 
L 267.547731 296.551211 
L 267.629336 294.548199 
L 267.710941 294.649191 
L 267.792545 295.356136 
L 267.955755 297.695789 
L 268.03736 297.022508 
L 268.200569 298.739375 
L 268.363779 296.887851 
L 268.526988 300.725555 
L 268.771802 300.220594 
L 268.853407 299.008688 
L 268.935012 299.597809 
L 269.098221 301.415668 
L 269.261431 299.799793 
L 269.343036 299.984946 
L 269.506245 302.223606 
L 269.58785 301.34834 
L 269.751059 299.732465 
L 269.832664 298.082926 
L 269.914269 299.36216 
L 269.995874 299.092848 
L 270.077478 298.36907 
L 270.159083 299.227504 
L 270.485502 295.776937 
L 270.648711 298.082926 
L 270.811921 295.507625 
L 270.97513 297.94827 
L 271.056735 298.082926 
L 271.13834 296.029418 
L 271.219945 296.551211 
L 271.383154 293.588773 
L 271.464759 293.807589 
L 271.546364 293.97591 
L 271.872783 287.950042 
L 271.954387 287.360921 
L 272.280806 281.267725 
L 272.362411 281.419213 
L 272.525621 280.560779 
L 272.607225 280.459787 
L 272.68883 279.197385 
L 272.770435 275.915138 
L 272.85204 276.01613 
L 272.933644 275.309185 
L 273.178458 271.572473 
L 273.668087 265.142637 
L 273.912901 258.998945 
L 274.157715 256.541468 
L 274.647344 247.805642 
L 274.728949 246.644232 
L 274.892158 243.345154 
L 274.973763 243.328322 
L 275.218577 238.160887 
L 275.381787 234.945969 
L 275.544996 236.713333 
L 276.116229 222.709081 
L 276.197834 223.634843 
L 276.524253 220.100116 
L 276.605858 219.107026 
L 276.932277 212.239556 
L 277.013881 212.340548 
L 277.095486 212.172228 
L 277.748324 197.764007 
L 277.829929 196.299621 
L 278.074743 189.280663 
L 278.401162 183.507275 
L 278.482767 180.410181 
L 278.564372 182.682506 
L 279.135605 169.923824 
L 279.298814 167.48318 
L 279.543628 164.032613 
L 279.625233 164.083109 
L 279.788443 160.464222 
L 279.870047 159.740444 
L 280.033257 157.602776 
L 280.114862 156.828503 
L 280.441281 151.324428 
L 281.175723 141.040055 
L 281.257328 141.393528 
L 281.665352 135.081516 
L 281.746957 134.711211 
L 281.991771 133.04484 
L 282.073375 132.725031 
L 282.31819 125.638745 
L 282.399794 126.42985 
L 282.481399 125.571417 
L 282.563004 125.924889 
L 282.726213 122.137682 
L 282.889423 121.279248 
L 282.971028 121.817873 
L 283.052632 121.615889 
L 283.134237 121.144592 
L 283.215842 121.733713 
L 283.379051 120.033678 
L 283.460656 119.596045 
L 283.542261 120.807951 
L 283.70547 119.511885 
L 283.86868 117.374217 
L 284.031889 116.07815 
L 284.195099 117.475209 
L 284.439913 114.899908 
L 284.603123 116.566279 
L 284.684727 114.024642 
L 284.766332 114.108802 
L 284.847937 113.974146 
L 285.092751 114.899908 
L 285.174356 113.721665 
L 285.25596 115.186052 
L 285.337565 114.479107 
L 285.582379 115.522693 
L 285.663984 114.277122 
L 285.908798 117.003912 
L 285.990403 116.515783 
L 286.072008 117.273224 
L 286.153613 116.33063 
L 286.235217 117.138568 
L 286.398427 113.486017 
L 286.561636 114.479107 
L 286.806451 120.841615 
L 286.888055 118.434635 
L 286.96966 118.737611 
L 287.13287 121.885201 
L 287.296079 119.343564 
L 287.377684 119.410893 
L 287.540893 123.871381 
L 287.622498 122.221842 
L 287.704103 123.1981 
L 287.785708 121.700049 
L 288.030522 127.187292 
L 288.275336 131.176484 
L 288.356941 129.661601 
L 288.52015 132.910183 
L 288.601755 132.506214 
L 288.68336 130.873507 
L 288.764964 131.092324 
L 288.846569 131.664613 
L 289.254593 138.835059 
L 289.336198 138.565746 
L 289.417802 138.936051 
L 289.825826 145.938177 
L 289.907431 147.065923 
L 290.152245 152.283854 
L 290.23385 152.519502 
L 290.315455 153.226447 
L 290.560269 158.781018 
L 291.049897 170.327793 
L 291.213107 173.138743 
L 291.294711 171.910004 
L 292.355573 191.99062 
L 292.600387 197.528359 
L 293.008411 204.429493 
L 293.253225 211.044482 
L 293.33483 210.388032 
L 293.661249 217.23867 
L 293.742854 217.608975 
L 294.150877 227.085409 
L 294.232482 226.024991 
L 294.314087 226.479456 
L 295.130134 244.489732 
L 295.211739 244.910533 
L 295.374949 249.640334 
L 295.456553 249.354189 
L 297.251858 281.671693 
L 297.333462 280.123146 
L 297.496672 282.210318 
L 297.741486 288.892636 
L 297.823091 290.99664 
L 297.9863 290.121374 
L 298.231115 294.851175 
L 298.312719 294.379879 
L 298.557534 298.823535 
L 298.639138 299.530481 
L 298.720743 298.28491 
L 299.047162 301.886965 
L 299.210372 305.101884 
L 299.291976 305.472188 
L 299.373581 304.765243 
L 299.455186 304.849403 
L 299.536791 304.984059 
L 299.781605 307.239552 
L 299.944814 305.960317 
L 300.189628 311.498056 
L 300.352838 310.37031 
L 300.516047 311.228744 
L 300.597652 310.403974 
L 300.679257 312.390154 
L 300.760862 312.322826 
L 300.924071 311.060424 
L 301.005676 310.302982 
L 301.25049 314.931791 
L 301.4137 312.895115 
L 301.495304 313.972365 
L 301.576909 313.871373 
L 301.658514 312.928779 
L 301.740119 313.18126 
L 301.821723 313.905037 
L 301.984933 310.925767 
L 302.311352 313.551564 
L 302.474561 309.882181 
L 302.719375 312.827787 
L 302.96419 310.488134 
L 303.045794 311.397064 
L 303.209004 311.986185 
L 303.535423 304.529595 
L 303.617028 306.027646 
L 303.698632 305.960317 
L 303.861842 303.839481 
L 304.025051 303.183032 
L 304.106656 304.310778 
L 304.188261 304.209786 
L 304.269866 303.603833 
L 304.433075 298.621551 
L 304.51468 299.160176 
L 304.596285 300.776051 
L 304.677889 300.574067 
L 305.004308 295.22148 
L 305.085913 293.908582 
L 305.167518 294.464039 
L 305.249123 294.447207 
L 305.412332 291.417441 
L 305.493937 291.350113 
L 305.90196 284.482643 
L 306.06517 282.681615 
L 306.146775 284.246994 
L 306.554798 272.9527 
L 306.636403 273.710142 
L 306.881217 269.72095 
L 307.044427 265.092141 
L 307.126032 265.193133 
L 307.207636 265.815918 
L 307.61566 259.049441 
L 307.860474 256.490972 
L 308.105289 249.101709 
L 308.186893 249.118541 
L 308.268498 248.344267 
L 308.594917 240.062907 
L 308.676522 240.736188 
L 308.839731 238.497528 
L 309.247755 228.41514 
L 309.32936 227.539874 
L 309.737383 219.561491 
L 310.145407 210.94349 
L 310.227012 212.542533 
L 310.961455 195.357027 
L 311.043059 195.155042 
L 311.206269 193.606495 
L 311.369478 188.742038 
L 311.532688 182.699338 
L 311.614292 183.187467 
L 311.859107 177.75072 
L 312.185526 171.371379 
L 312.348735 169.486192 
L 312.675154 161.154335 
L 312.756759 162.046433 
L 313.083178 153.781905 
L 313.164783 153.108623 
L 313.246387 153.983889 
L 313.327992 152.990799 
L 313.572806 147.671876 
L 313.654411 146.914435 
L 313.736016 148.378822 
L 313.98083 145.584704 
L 314.225644 139.491508 
L 314.878482 130.705187 
L 314.960087 131.31114 
L 315.204901 124.426838 
L 315.368111 124.561495 
L 315.449715 124.123862 
L 315.69453 119.158412 
L 315.857739 120.690127 
L 316.102553 117.306888 
L 316.265763 120.269326 
L 316.510577 114.580099 
L 316.592182 115.25338 
L 316.673787 115.421701 
L 316.755391 116.734599 
L 317.000206 111.651325 
L 317.08181 112.543423 
L 317.163415 112.492927 
L 317.24502 111.146364 
L 317.326625 111.971134 
L 317.571439 109.749305 
L 317.653043 110.355259 
L 318.061067 105.827442 
L 318.224277 107.510645 
L 318.305881 107.2245 
L 318.387486 107.830454 
L 318.469091 106.180914 
L 318.550696 106.635379 
L 318.713905 108.604727 
L 318.79551 108.099766 
L 318.877115 108.924536 
L 319.040324 106.854196 
L 319.121929 105.440305 
L 319.203534 106.06309 
L 319.448348 109.934458 
L 319.611557 112.27411 
L 319.693162 112.459263 
L 319.856372 115.960326 
L 319.937976 115.236548 
L 320.101186 112.526591 
L 320.182791 113.334529 
L 320.346 117.946506 
L 320.427605 117.458377 
L 320.590814 117.037576 
L 320.835628 120.875279 
L 320.917233 120.757455 
L 320.998838 120.016846 
L 321.080443 120.706959 
L 321.406862 129.644769 
L 321.488466 129.341792 
L 321.570071 129.526945 
L 321.978095 136.242926 
L 322.0597 135.569645 
L 322.630933 141.881657 
L 322.875747 148.075845 
L 323.120561 151.644236 
L 323.283771 155.061139 
L 323.528585 159.925597 
L 323.61019 159.673116 
L 324.018213 169.099055 
L 324.099818 168.964399 
L 324.344632 173.374391 
L 324.426237 175.59622 
L 324.507842 175.495227 
L 324.671051 178.356673 
L 325.323889 192.950046 
L 325.813518 203.789875 
L 326.303146 211.11181 
L 326.955984 224.324956 
L 327.282403 231.024105 
L 327.445613 237.756919 
L 327.527217 237.706422 
L 327.608822 236.679668 
L 327.772032 241.510462 
L 327.935241 246.021447 
L 328.016846 245.280837 
L 328.098451 246.762056 
L 328.180055 246.576904 
L 328.26166 247.603658 
L 328.506474 257.399901 
L 328.588079 256.72662 
L 328.669684 256.541468 
L 328.751289 257.012765 
L 328.996103 263.610922 
L 329.159312 265.00798 
L 329.485731 271.757626 
L 329.567336 271.976442 
L 330.056964 283.152912 
L 330.220174 285.761877 
L 330.464988 291.097632 
L 330.546593 291.0808 
L 330.628198 290.744159 
L 331.036221 296.837355 
L 331.117826 297.763117 
L 331.199431 297.29182 
L 331.36264 300.18693 
L 331.52585 303.957305 
L 331.689059 304.697915 
L 331.770664 304.428602 
L 332.097083 310.000005 
L 332.178688 309.747525 
L 332.586711 315.672401 
L 332.668316 313.854541 
L 332.749921 314.393166 
L 332.994735 319.240792 
L 333.07634 318.550678 
L 333.157945 318.214038 
L 333.402759 321.075483 
L 333.484364 321.54678 
L 333.565968 320.688347 
L 333.647573 321.075483 
L 333.810783 322.758687 
L 333.892387 321.024987 
L 334.137202 323.734945 
L 334.300411 322.034909 
L 334.545225 327.320168 
L 334.79004 323.819105 
L 334.953249 326.579558 
L 335.034854 326.057765 
L 335.116458 326.074597 
L 335.198063 326.59639 
L 335.442877 329.003371 
L 335.606087 325.771621 
L 335.687692 325.923109 
L 335.769296 325.535972 
L 335.932506 327.522152 
L 336.17732 324.711202 
L 336.34053 322.119069 
L 336.503739 325.115171 
L 336.830158 319.038807 
L 336.911763 319.779417 
L 337.482996 313.029771 
L 337.809415 311.649545 
L 338.707067 297.746285 
L 339.033486 295.05316 
L 339.359905 287.731225 
L 339.44151 286.552983 
L 339.523115 287.579737 
L 339.931138 279.971658 
L 340.012743 280.459787 
L 340.094348 279.921162 
L 340.502372 269.148661 
L 340.583976 268.307059 
L 340.747186 264.267371 
L 340.828791 264.620844 
L 340.992 261.237605 
L 341.400024 249.758158 
L 341.889652 240.433212 
L 342.052862 237.319286 
L 343.113723 217.676303 
L 343.848166 197.275879 
L 343.929771 197.747175 
L 344.011375 197.427367 
L 344.419399 188.237077 
L 344.501004 189.162838 
L 346.459518 147.520388 
L 346.541123 147.251076 
L 346.785937 141.57868 
L 346.867542 141.831161 
L 347.601984 130.637859 
L 347.765194 126.042714 
L 347.846798 126.059546 
L 347.928403 125.621913 
L 348.010008 126.17737 
L 348.336427 119.983182 
L 348.418032 118.367307 
L 348.499636 118.804939 
L 348.581241 118.23265 
L 348.989265 110.338427 
L 349.07087 111.398845 
L 349.152474 112.644415 
L 349.968522 102.477867 
L 350.050126 105.305649 
L 350.131731 104.800688 
L 350.294941 103.100652 
L 350.45815 100.67684 
L 350.62136 102.208555 
L 350.866174 100.205543 
L 350.947779 102.023402 
L 351.110988 100.761 
L 351.192593 100.811496 
L 351.355802 98.185699 
L 351.437407 98.522339 
L 351.519012 100.087718 
L 351.600617 99.986726 
L 351.682221 100.239207 
L 351.763826 99.986726 
L 351.845431 100.205543 
L 351.927036 99.0273 
L 352.17185 100.660007 
L 352.253455 101.568937 
L 352.416664 99.010468 
L 352.661478 102.107562 
L 352.743083 102.057066 
L 352.824688 101.770922 
L 352.987897 102.057066 
L 353.069502 101.888746 
L 353.151107 104.834352 
L 353.232711 103.268973 
L 353.477526 108.688887 
L 353.72234 105.541297 
L 354.130364 112.088958 
L 354.211968 112.442431 
L 354.293573 112.206782 
L 354.538387 115.489029 
L 354.619992 114.950404 
L 355.109621 121.397072 
L 355.191225 120.319822 
L 355.599249 130.654691 
L 355.680854 131.546789 
L 356.088877 139.929141 
L 356.415296 143.682685 
L 356.660111 148.008517 
L 356.98653 155.077971 
L 357.068134 156.087893 
L 357.312949 162.298913 
L 357.557763 167.56734 
L 358.047391 177.548736 
L 358.210601 181.537927 
L 358.292206 181.487431 
L 358.700229 192.832222 
L 358.863439 195.979812 
L 359.189858 201.753199 
L 359.434672 205.035446 
L 360.413929 228.684453 
L 360.658743 236.006387 
L 360.740348 237.336118 
L 360.821953 236.545012 
L 360.903557 237.403446 
L 361.229976 248.024459 
L 361.393186 252.064147 
L 361.882814 263.661418 
L 362.290838 271.774458 
L 362.862071 280.998412 
L 362.943676 281.957838 
L 363.18849 290.474847 
L 363.270095 289.986718 
L 363.3517 290.962976 
L 363.596514 298.773039 
L 363.678119 298.672047 
L 363.759723 300.18693 
L 363.841328 299.681969 
L 364.167747 304.630587 
L 364.657375 312.373322 
L 364.73898 312.558474 
L 365.147004 316.682323 
L 365.228609 316.446674 
L 365.310213 316.598162 
L 365.391818 317.473428 
L 365.555028 321.277468 
L 365.718237 322.337886 
L 365.799842 321.832925 
L 366.044656 323.802273 
L 366.126261 323.499296 
L 366.534285 327.993449 
L 366.779099 331.444016 
L 367.105518 332.403442 
L 367.187123 332.319282 
L 367.268727 331.545008 
L 367.595146 337.671868 
L 367.676751 336.77977 
L 367.758356 334.608438 
L 367.83996 335.315383 
L 368.00317 333.598516 
L 368.247984 337.183739 
L 368.329589 337.486716 
L 368.411194 335.5342 
L 368.492798 336.123321 
L 368.574403 336.005497 
L 368.737613 334.574774 
L 368.819217 335.046071 
L 368.982427 333.733172 
L 369.227241 331.191535 
L 369.55366 331.999473 
L 369.635265 330.854895 
L 369.71687 330.922223 
L 369.798474 331.746992 
L 369.961684 329.558828 
L 370.043289 329.74398 
L 370.124893 331.47768 
L 370.206498 330.804399 
L 370.369708 327.740968 
L 370.614522 325.653796 
L 370.696126 326.42807 
L 370.777731 325.939941 
L 371.022545 317.675413 
L 371.10415 317.507092 
L 372.001802 301.870133 
L 372.165012 299.614641 
L 372.246617 299.597809 
L 372.573036 292.393699 
L 372.65464 292.057058 
L 373.307478 278.776584 
L 373.389083 278.490439 
L 373.470688 277.177541 
L 373.552292 277.379525 
L 373.797107 273.676478 
L 374.531549 256.238491 
L 374.694759 254.757272 
L 374.939573 244.994693 
L 375.021178 242.065919 
L 375.184387 243.698626 
L 375.265992 242.907521 
L 375.429202 236.258868 
L 375.674016 230.519144 
L 376.490063 212.542533 
L 377.142901 192.243101 
L 377.224506 192.377757 
L 377.714134 182.598346 
L 378.040553 175.310075 
L 378.122158 173.660536 
L 378.203763 174.266489 
L 378.285368 173.52588 
L 378.693391 160.228573 
L 378.774996 160.834526 
L 378.856601 160.817694 
L 379.101415 153.697744 
L 379.18302 153.596752 
L 379.264625 153.243279 
L 379.509439 143.834173 
L 379.591043 143.379708 
L 379.672648 143.56486 
L 379.754253 143.497532 
L 379.835858 142.874747 
L 380.162277 134.492394 
L 380.325486 133.802281 
L 380.651905 124.410006 
L 380.73351 124.813975 
L 381.059929 113.92365 
L 381.141534 114.748419 
L 381.304743 115.960326 
L 381.631162 108.907704 
L 381.712767 109.749305 
L 381.875976 109.143352 
L 382.120791 102.780844 
L 382.202395 103.571949 
L 382.365605 102.629355 
L 382.528814 99.532261 
L 382.692024 100.289703 
L 382.773628 101.602601 
L 383.100047 93.910362 
L 383.344862 96.199519 
L 383.508071 93.237081 
L 383.589676 93.338073 
L 383.671281 93.758874 
L 384.079304 86.739916 
L 384.160909 87.059725 
L 384.405723 88.103311 
L 384.568933 86.352779 
L 384.732142 87.547854 
L 384.813747 89.045905 
L 384.895352 87.581518 
L 384.976957 87.901326 
L 385.140166 86.925068 
L 385.303375 89.281553 
L 385.54819 86.5211 
L 385.874609 90.358803 
L 386.037818 88.59144 
L 386.119423 88.692432 
L 386.364237 94.247003 
L 386.527447 93.758874 
L 386.609051 94.263835 
L 386.690656 95.913374 
L 386.772261 95.442077 
L 386.93547 97.108448 
L 387.017075 97.007456 
L 387.09868 97.209441 
L 387.180285 96.569823 
L 387.343494 99.835238 
L 387.506704 101.299625 
L 387.588308 102.023402 
L 387.833123 106.584883 
L 387.914727 107.493813 
L 387.996332 107.258165 
L 388.159542 108.739383 
L 388.48596 113.317697 
L 388.567565 113.738497 
L 388.975589 122.104018 
L 389.057194 122.928788 
L 389.383613 133.549801 
L 389.546822 133.21316 
L 389.628427 132.792359 
L 390.19966 149.287752 
L 390.689289 156.542358 
L 390.852498 159.53846 
L 390.934103 159.4543 
L 391.097312 162.214753 
L 391.178917 162.029601 
L 392.402988 194.414433 
L 392.484593 194.363937 
L 392.811012 204.614645 
L 393.382245 219.628819 
L 395.259154 261.288101 
L 395.585573 267.751602 
L 396.075202 278.271623 
L 396.156806 278.136966 
L 396.238411 279.214217 
L 396.401621 283.472721 
L 396.72804 289.347101 
L 396.891249 292.511523 
L 396.972854 292.191714 
L 397.136063 293.773925 
L 397.380877 299.311664 
L 397.625692 303.300856 
L 398.523344 319.543768 
L 398.604949 316.463506 
L 398.686553 316.901139 
L 399.012972 325.468644 
L 399.094577 324.660706 
L 399.176182 324.61021 
L 399.584206 330.265773 
L 399.66581 328.952875 
L 399.747415 328.969707 
L 399.82902 328.532074 
L 399.910625 328.952875 
L 400.073834 332.790578 
L 400.155439 331.359856 
L 400.237043 331.713328 
L 400.400253 333.750004 
L 400.481858 335.062903 
L 400.563462 334.204469 
L 400.645067 336.123321 
L 400.808277 334.54111 
L 401.053091 340.600642 
L 401.2163 337.873853 
L 401.37951 341.728388 
L 401.461115 341.459076 
L 401.624324 337.974845 
L 401.705929 339.893697 
L 401.950743 337.924349 
L 402.032348 337.806524 
L 402.113953 339.338239 
L 402.195557 339.119423 
L 402.685186 334.103477 
L 402.766791 334.557942 
L 402.848395 332.841075 
L 402.93 333.110387 
L 403.093209 331.275695 
L 403.174814 332.504434 
L 403.256419 330.804399 
L 403.338024 331.191535 
L 403.419628 332.167793 
L 403.501233 332.049969 
L 403.909257 327.151847 
L 403.990862 327.017191 
L 404.154071 323.4488 
L 404.235676 324.761699 
L 404.6437 319.190296 
L 404.725304 319.240792 
L 405.704561 301.079028 
L 405.786166 301.34834 
L 407.091842 272.969532 
L 407.336656 270.680376 
L 407.74468 259.386081 
L 407.826285 258.527648 
L 408.071099 250.717584 
L 408.152704 250.330447 
L 408.479123 241.527294 
L 409.621589 213.064326 
L 409.948008 205.826551 
L 410.029613 206.028536 
L 410.764055 181.554759 
L 410.84566 181.773576 
L 411.00887 179.467587 
L 411.416893 168.307949 
L 412.39615 146.308482 
L 412.477755 146.106497 
L 412.640964 142.942075 
L 412.967383 134.088426 
L 413.048988 133.869609 
L 413.212198 129.594273 
L 413.293802 129.223968 
L 413.375407 127.99523 
L 413.701826 118.299978 
L 414.028245 110.675067 
L 414.10985 110.877052 
L 414.844292 99.532261 
L 414.925897 99.178789 
L 415.415526 90.846932 
L 415.578735 91.553877 
L 415.823549 87.901326 
L 416.149968 85.208201 
L 416.231573 86.234955 
L 416.394783 84.484424 
L 416.557992 81.202177 
L 416.721202 82.363587 
L 416.884411 81.336833 
L 416.966016 82.111107 
L 417.129225 77.903098 
L 417.21083 79.014013 
L 417.37404 77.953595 
L 417.455644 76.859512 
L 417.537249 77.263481 
L 417.782063 80.074431 
L 418.271692 77.313977 
L 418.353296 76.876344 
L 418.516506 78.340731 
L 418.76132 75.698102 
L 418.92453 78.711036 
L 419.169344 76.522872 
L 419.332553 77.465466 
L 419.495763 79.603134 
L 419.577368 79.872446 
L 419.740577 82.531908 
L 419.822182 82.060611 
L 419.985391 82.565572 
L 420.066996 84.299271 
L 420.148601 83.558662 
L 420.230206 83.760646 
L 420.31181 84.147783 
L 420.556625 89.01224 
L 420.638229 88.641936 
L 420.719834 88.92808 
L 420.883043 92.260823 
L 421.127858 92.311319 
L 421.535881 100.626343 
L 421.699091 99.431269 
L 421.780696 99.700582 
L 422.107115 108.21759 
L 422.270324 108.655223 
L 423.086372 127.018972 
L 423.167976 127.103132 
L 423.331186 130.116066 
L 423.576 136.024109 
L 423.739209 137.236016 
L 424.065628 146.274818 
L 424.310443 151.930381 
L 424.555257 161.995937 
L 424.636862 161.507808 
L 424.718466 161.558304 
L 426.024142 194.414433 
L 426.432166 207.408763 
L 426.513771 208.317692 
L 427.085004 224.375452 
L 427.411423 229.946855 
L 427.656237 236.242036 
L 427.737842 236.545012 
L 428.145866 248.377932 
L 428.309075 252.215635 
L 428.635494 262.988136 
L 428.717099 264.132715 
L 428.798704 263.964394 
L 428.880308 264.7555 
L 429.125123 270.343735 
L 429.206727 270.124919 
L 429.369937 272.582395 
L 429.696356 283.270737 
L 429.77796 283.371729 
L 430.185984 293.571941 
L 430.267589 293.470949 
L 430.430798 295.995754 
L 430.594008 301.987958 
L 430.675613 301.297844 
L 430.757217 300.287922 
L 431.246846 309.528708 
L 431.410055 312.52481 
L 431.65487 317.540756 
L 431.899684 318.466518 
L 432.144498 325.165667 
L 432.226103 324.256738 
L 432.389312 327.034023 
L 432.634126 331.864817 
L 432.715731 332.049969 
L 432.797336 330.535086 
L 432.878941 331.090543 
L 433.123755 336.762938 
L 433.20536 336.375802 
L 433.286964 336.746106 
L 433.368569 335.584696 
L 433.694988 341.122435 
L 433.776593 340.432322 
L 433.858198 338.51347 
L 434.103012 343.192775 
L 434.184617 342.721478 
L 434.266221 340.83629 
L 434.347826 341.055107 
L 434.511036 344.084873 
L 434.59264 342.586822 
L 434.674245 342.637318 
L 434.75585 343.849224 
L 434.837455 343.579912 
L 435.000664 342.704646 
L 435.082269 343.748232 
L 435.163874 340.297665 
L 435.245478 340.398658 
L 435.653502 345.364107 
L 435.735107 344.842314 
L 435.898316 341.947205 
L 435.979921 341.964037 
L 436.061526 342.687814 
L 436.469549 336.914427 
L 436.551154 338.547134 
L 436.632759 338.193661 
L 436.795968 333.615348 
L 436.959178 336.661946 
L 437.122387 333.177715 
L 437.203992 333.228211 
L 437.285597 333.564852 
L 437.448806 329.693484 
L 437.938435 321.445788 
L 438.264854 315.352592 
L 438.346458 315.790225 
L 438.428063 315.992209 
L 438.999296 304.007802 
L 439.080901 303.839481 
L 439.40732 296.063082 
L 439.488925 295.541289 
L 439.57053 296.366058 
L 439.652134 296.113578 
L 439.896949 288.757979 
L 440.712996 272.86854 
L 440.876206 267.111985 
L 440.95781 266.691184 
L 441.039415 266.74168 
L 441.447439 256.89494 
L 441.610648 252.804756 
L 441.937067 241.981759 
L 442.018672 241.813439 
L 442.345091 233.767727 
L 442.589905 228.078499 
L 442.753115 225.149726 
L 442.997929 218.046608 
L 443.161138 214.949513 
L 443.324348 210.421697 
L 443.569162 205.287926 
L 443.650767 204.580981 
L 443.977186 193.017374 
L 444.058791 193.488671 
L 444.140395 192.596573 
L 444.874838 170.479282 
L 445.201257 165.194023 
L 445.527676 153.781905 
L 445.609281 153.916561 
L 446.180514 138.313266 
L 446.506933 131.378468 
L 446.588538 131.428964 
L 446.670142 130.839843 
L 446.833352 126.328858 
L 446.996561 122.339666 
L 447.404585 112.10579 
L 447.48619 112.795903 
L 448.220632 100.67684 
L 448.302237 101.299625 
L 448.465447 97.310433 
L 448.547051 97.630241 
L 448.791866 94.499483 
L 448.87347 94.179675 
L 449.03668 92.311319 
L 449.118285 92.126167 
L 449.281494 91.234069 
L 449.771123 83.79431 
L 449.852727 84.467591 
L 450.260751 79.401149 
L 450.342356 79.82195 
L 450.42396 76.809016 
L 450.505565 77.381305 
L 450.668775 78.020923 
L 450.913589 76.287223 
L 451.158403 75.361461 
L 451.240008 75.209973 
L 451.566427 76.371383 
L 451.648032 76.219895 
L 451.729636 75.159477 
L 451.811241 76.825848 
L 451.892846 76.337719 
L 451.974451 75.361461 
L 452.056055 72.887153 
L 452.13766 74.048563 
L 452.30087 77.600122 
L 452.382474 77.263481 
L 452.545684 73.139633 
L 452.627289 73.897075 
L 452.872103 77.297145 
L 453.116917 76.724856 
L 453.198522 76.960505 
L 453.769755 83.54183 
L 453.85136 84.53492 
L 453.932964 84.332935 
L 454.096174 85.52801 
L 454.422593 92.934104 
L 454.504198 91.166741 
L 454.830617 97.327265 
L 454.912221 97.142113 
L 454.993826 97.663906 
L 455.891478 114.596931 
L 455.973083 114.378115 
L 456.870735 134.189418 
L 456.95234 135.519148 
L 457.278759 144.47379 
L 457.686783 153.007631 
L 457.768387 157.501784 
L 457.849992 157.451288 
L 461.032577 233.919215 
L 461.195787 237.790583 
L 461.685415 250.919569 
L 462.011834 259.840546 
L 462.093439 259.62173 
L 462.419858 267.667442 
L 462.501462 267.549617 
L 462.583067 268.626868 
L 462.909486 278.843912 
L 463.235905 285.913366 
L 463.480719 292.999652 
L 463.562324 292.730339 
L 463.888743 303.183032 
L 464.051953 303.889977 
L 464.133557 304.445434 
L 464.378372 311.498056 
L 464.704791 315.41992 
L 464.949605 321.041819 
L 465.031209 321.176476 
L 465.276024 327.454824 
L 465.357628 328.447914 
L 465.439233 328.077609 
L 465.520838 328.128105 
L 465.684047 329.356844 
L 465.928862 334.945079 
L 466.010466 334.103477 
L 466.092071 334.288629 
L 466.173676 334.153973 
L 466.255281 335.163895 
L 466.41849 339.119423 
L 466.500095 339.153087 
L 466.5817 339.961025 
L 466.663304 339.220415 
L 466.908119 344.152201 
L 467.234538 344.960139 
L 467.397747 348.074065 
L 467.479352 347.838416 
L 467.560957 348.040401 
L 467.642561 347.080975 
L 467.724166 347.367119 
L 467.887375 348.343377 
L 467.96898 348.292881 
L 468.050585 347.855248 
L 468.13219 348.225553 
L 468.295399 349.673108 
L 468.458609 350.211733 
L 468.703423 347.78792 
L 468.948237 349.706772 
L 469.111447 347.434447 
L 469.193051 347.400783 
L 469.356261 350.666198 
L 469.437866 348.309713 
L 469.51947 348.663186 
L 469.68268 347.114639 
L 469.845889 347.602768 
L 470.009099 346.475022 
L 470.253913 341.863044 
L 470.335518 343.024455 
L 470.580332 339.270911 
L 470.661937 338.984767 
L 470.743542 339.102591 
L 470.825146 339.405568 
L 471.06996 333.63218 
L 471.151565 333.160883 
L 471.396379 328.296426 
L 471.641194 324.307234 
L 471.804403 322.691359 
L 471.886008 323.802273 
L 472.130822 318.887319 
L 472.212427 318.668503 
L 472.94687 306.010814 
L 473.926126 283.79253 
L 474.252545 276.083458 
L 474.49736 269.63679 
L 474.578964 266.253551 
L 474.660569 266.354543 
L 474.823779 264.183211 
L 475.639826 241.308478 
L 475.803036 239.726266 
L 476.04785 231.579562 
L 477.761549 186.94101 
L 477.843154 186.133072 
L 478.087968 178.036864 
L 478.577597 163.998949 
L 478.985621 156.256213 
L 479.230435 148.580806 
L 480.209692 126.833819 
L 480.291296 126.396186 
L 481.188949 105.339313 
L 481.270553 105.406641 
L 481.760182 97.293601 
L 481.841787 97.529249 
L 481.923391 96.855968 
L 482.24981 91.890518 
L 482.494625 87.918158 
L 482.739439 82.060611 
L 482.902648 82.447747 
L 483.229067 77.869434 
L 483.392277 80.276415 
L 483.473881 79.417981 
L 483.8003 73.004977 
L 483.96351 74.8565 
L 484.045115 74.031731 
L 484.208324 71.62475 
L 484.453138 68.005863 
L 484.697953 64.5048 
L 484.861162 67.517734 
L 484.942767 67.332582 
L 485.024372 68.393 
L 485.187581 66.373156 
L 485.432395 69.049449 
L 485.595605 67.56823 
L 485.677209 66.995941 
L 485.758814 67.181093 
L 485.922024 70.278187 
L 486.166838 67.702886 
L 486.248443 68.679144 
L 486.411652 75.361461 
L 486.493257 75.176309 
L 486.656466 72.516848 
L 486.819676 74.705012 
L 486.901281 74.806004 
L 487.2277 78.323899 
L 487.309304 77.970427 
L 487.554119 81.067521 
L 487.635723 80.831872 
L 487.798933 80.175423 
L 488.043747 85.645834 
L 488.125352 84.905224 
L 488.206957 85.225033 
L 488.451771 93.97769 
L 488.77819 97.69757 
L 488.941399 102.612523 
L 489.023004 102.83134 
L 490.083866 124.982296 
L 490.16547 124.426838 
L 490.491889 136.10827 
L 490.736704 139.138036 
L 492.368798 180.124037 
L 492.532008 185.173647 
L 492.776822 188.10242 
L 494.572126 239.524282 
L 494.653731 240.567868 
L 495.061755 252.451284 
L 496.041012 273.760638 
L 496.285826 278.490439 
L 496.449036 281.739022 
L 496.69385 287.175768 
L 496.775455 288.135194 
L 497.101874 297.056172 
L 497.183478 297.274988 
L 497.265083 298.486895 
L 497.509897 303.587001 
L 497.591502 305.623677 
L 497.673107 305.303868 
L 497.754711 305.623677 
L 497.836316 306.633599 
L 498.08113 313.34958 
L 498.407549 316.867475 
L 498.652364 320.63785 
L 498.733968 317.978389 
L 498.815573 319.072471 
L 499.141992 327.656808 
L 499.305202 328.161769 
L 499.550016 332.235121 
L 499.631621 331.898481 
L 499.79483 333.413364 
L 499.876435 333.245043 
L 500.202854 338.496638 
L 500.284458 337.049083 
L 500.447668 339.59072 
L 500.692482 341.980869 
L 500.855692 340.078849 
L 501.182111 344.438346 
L 501.263715 343.293767 
L 501.34532 343.579912 
L 501.426925 344.976971 
L 501.50853 344.522506 
L 501.590134 344.589834 
L 501.753344 346.677006 
L 501.834949 345.599756 
L 501.916553 345.869068 
L 501.998158 345.683916 
L 502.161368 344.068041 
L 502.242972 345.246283 
L 502.406182 342.300677 
L 502.487787 343.411591 
L 502.569391 344.135369 
L 502.814206 341.40858 
L 502.89581 341.846212 
L 502.977415 342.149189 
L 503.630253 335.652024 
L 503.711858 335.70252 
L 503.956672 332.942067 
L 504.038277 332.63909 
L 504.119881 332.958899 
L 504.283091 328.262762 
L 504.364696 328.835051 
L 504.527905 326.798375 
L 504.691115 326.310246 
L 504.935929 320.183386 
L 505.017534 320.419034 
L 505.425557 310.925767 
L 505.507162 311.144584 
L 505.588767 311.329736 
L 505.670372 310.067334 
L 505.915186 301.785973 
L 505.996791 301.954293 
L 506.078395 302.206774 
L 506.241605 296.770027 
L 506.404814 290.357023 
L 506.731233 286.637143 
L 506.894443 279.786506 
L 507.057652 281.587533 
L 507.628885 268.441715 
L 507.71049 268.677364 
L 508.036909 257.871198 
L 508.118514 258.998945 
L 509.016166 233.902383 
L 509.097771 236.124211 
L 509.179375 234.996465 
L 509.587399 219.090194 
L 509.750609 216.952525 
L 509.995423 206.163192 
L 510.240237 202.106672 
L 510.485051 194.565921 
L 510.566656 194.683745 
L 510.648261 193.522335 
L 511.137889 177.733888 
L 511.219494 177.767552 
L 511.464308 169.89016 
L 511.545913 170.209969 
L 512.52517 144.238142 
L 512.606775 144.456958 
L 512.688379 143.413372 
L 513.014798 132.539879 
L 513.096403 132.186406 
L 513.259613 130.351714 
L 513.422822 123.1981 
L 513.504427 123.265428 
L 513.667636 121.464401 
L 513.912451 112.896896 
L 514.07566 113.469185 
L 514.157265 113.233536 
L 514.483684 102.629355 
L 514.565289 103.353133 
L 515.136522 92.917272 
L 515.218126 93.792538 
L 515.544545 86.5211 
L 515.62615 86.167627 
L 515.707755 86.234955 
L 515.952569 81.521986 
L 516.115779 82.683396 
L 516.197383 82.262595 
L 516.360593 78.307067 
L 516.523802 73.964403 
L 516.687012 74.671348 
L 516.931826 71.018797 
L 517.013431 69.992043 
L 517.095036 70.480172 
L 517.17664 70.076203 
L 517.258245 70.5475 
L 517.584664 66.423652 
L 517.747874 67.803879 
L 517.911083 66.474148 
L 518.155897 67.686054 
L 518.237502 68.998953 
L 518.319107 68.611816 
L 518.400711 67.517734 
L 518.563921 68.56132 
L 518.72713 68.342504 
L 518.808735 69.436586 
L 518.89034 69.049449 
L 518.971945 68.493992 
L 519.135154 70.71582 
L 519.298364 71.79307 
L 519.379968 68.881129 
L 519.461573 69.419754 
L 519.869597 75.967415 
L 520.114411 78.441724 
L 520.196016 81.084353 
L 520.277621 80.983361 
L 520.44083 78.290235 
L 520.522435 78.441724 
L 520.767249 85.376521 
L 520.848854 84.299271 
L 521.012063 83.79431 
L 521.746506 99.515429 
L 521.828111 100.407527 
L 521.909715 99.128292 
L 522.072925 100.710504 
L 522.317739 109.547321 
L 522.644158 114.765251 
L 522.807368 120.168334 
L 522.888972 120.05051 
L 522.970577 119.107916 
L 523.378601 130.503202 
L 523.460206 129.089312 
L 523.623415 132.38839 
L 523.786625 139.138036 
L 523.949834 139.811317 
L 524.194648 148.109509 
L 524.357858 153.899729 
L 524.439462 153.563088 
L 524.521067 152.67099 
L 524.847486 165.396007 
L 524.929091 165.244519 
L 525.010696 165.715816 
L 525.500324 180.393349 
L 525.663534 184.635022 
L 526.071557 195.441187 
L 526.887605 217.171342 
L 526.969209 217.760463 
L 527.132419 222.793241 
L 527.377233 232.55582 
L 527.458838 232.353836 
L 527.622047 235.484594 
L 528.35649 256.608796 
L 528.438095 256.423643 
L 528.601304 259.419745 
L 529.172538 274.013118 
L 529.335747 279.130056 
L 529.662166 284.516307 
L 529.90698 291.972898 
L 529.988585 291.821409 
L 530.559818 303.233528 
L 530.641423 303.435512 
L 530.723028 304.664251 
L 530.967842 310.521798 
L 531.049447 309.966341 
L 531.131051 310.084166 
L 531.45747 316.968467 
L 531.539075 317.473428 
L 531.62068 316.295186 
L 531.783889 321.260636 
L 532.028704 325.956773 
L 532.355123 330.164781 
L 532.436727 330.013293 
L 532.599937 328.481578 
L 532.681542 329.642988 
L 532.844751 335.264887 
L 532.926356 335.180727 
L 533.00796 335.315383 
L 533.17117 336.981755 
L 533.252775 339.860032 
L 533.334379 339.472896 
L 533.415984 339.405568 
L 533.497589 339.742208 
L 533.579194 339.371903 
L 533.660798 339.641216 
L 533.824008 341.273923 
L 533.987217 341.374915 
L 534.068822 340.398658 
L 534.313636 344.118537 
L 534.395241 344.068041 
L 534.640055 339.371903 
L 534.72166 339.270911 
L 534.803265 340.045185 
L 534.88487 339.775872 
L 534.966474 339.725376 
L 535.048079 339.977857 
L 535.211289 337.77286 
L 535.374498 339.321407 
L 535.456103 339.136255 
L 535.619312 336.712442 
L 535.700917 338.378814 
L 535.782522 337.890685 
L 535.945731 338.42931 
L 536.027336 337.924349 
L 536.27215 332.319282 
L 536.353755 336.678778 
L 536.598569 329.373676 
L 536.843383 327.639976 
L 536.924988 327.555816 
L 537.169802 322.607198 
L 537.333012 321.344796 
L 537.741036 314.544654 
L 537.904245 315.487248 
L 537.98585 314.42683 
L 538.312269 304.344442 
L 538.393874 304.580091 
L 538.475478 303.368184 
L 538.720292 295.726441 
L 539.046711 290.390687 
L 539.209921 286.418327 
L 539.291526 286.519319 
L 539.53634 280.611275 
L 539.862759 273.306173 
L 540.107573 267.684274 
L 540.678806 253.276053 
L 540.842016 248.428428 
L 540.923621 248.44526 
L 541.413249 233.868719 
L 542.310901 209.361278 
L 542.392506 208.637501 
L 543.616577 178.424001 
L 543.861391 171.977333 
L 544.840648 146.510466 
L 544.922253 147.217412 
L 545.085462 144.355966 
L 545.411881 135.19934 
L 545.493486 135.182508 
L 545.90151 125.470425 
L 545.983115 125.520921 
L 546.064719 124.729815 
L 546.309534 116.296966 
L 546.391138 116.229638 
L 546.472743 116.785095 
L 546.554348 115.573189 
L 546.880767 106.298739 
L 547.125581 104.07691 
L 547.452 94.415323 
L 547.533605 94.937116 
L 547.615209 94.196507 
L 547.778419 90.493459 
L 547.860024 90.796436 
L 548.268047 85.023049 
L 548.349652 84.854728 
L 548.594466 82.178435 
L 548.757676 81.168513 
L 548.839281 78.542716 
L 548.920885 78.845692 
L 549.084095 76.792184 
L 549.1657 77.044665 
L 549.247304 77.212985 
L 549.328909 76.203063 
L 549.410514 77.179321 
L 549.736933 71.220781 
L 549.818538 71.119789 
L 549.900142 70.698988 
L 549.981747 71.355438 
L 550.063352 73.459442 
L 550.389771 69.80689 
L 550.55298 71.70891 
L 550.634585 72.415856 
L 550.797794 68.847465 
L 550.879399 69.487082 
L 551.042609 69.083113 
L 551.124213 69.402922 
L 551.205818 68.460328 
L 551.287423 69.184105 
L 551.450632 66.995941 
L 551.532237 67.702886 
L 551.613842 70.850477 
L 551.695447 70.497004 
L 551.858656 69.823723 
L 552.10347 75.378293 
L 552.185075 75.327797 
L 552.26668 75.226805 
L 552.429889 75.529782 
L 552.511494 75.310965 
L 553.001123 81.774466 
L 553.082727 81.72397 
L 553.245937 84.753736 
L 553.409146 85.679498 
L 553.65396 90.66178 
L 553.735565 90.089491 
L 553.81717 90.190483 
L 553.980379 93.590554 
L 554.306798 99.93623 
L 554.714822 108.318583 
L 554.796427 107.544309 
L 555.204451 112.964224 
L 556.428522 144.086653 
L 556.673336 150.078857 
L 557.979012 182.396361 
L 558.305431 192.226269 
L 558.713455 201.231406 
L 559.529502 224.846749 
L 559.611107 225.35171 
L 559.692711 226.580448 
L 560.263945 243.698626 
L 560.998387 264.149547 
L 563.691344 319.493272 
L 563.772949 319.409112 
L 563.854553 319.240792 
L 564.180972 326.613222 
L 564.425787 329.340012 
L 564.670601 335.214391 
L 564.752206 335.769848 
L 564.83381 335.45004 
L 564.99702 336.44313 
L 565.078625 336.830266 
L 565.323439 340.432322 
L 565.405043 341.425412 
L 565.486648 340.381825 
L 565.568253 343.260103 
L 565.649858 343.159111 
L 565.813067 344.253193 
L 565.894672 342.65415 
L 566.139486 349.824596 
L 566.221091 350.363221 
L 566.465905 347.468111 
L 566.710719 355.8168 
L 566.792324 353.426651 
L 566.873929 354.032604 
L 566.955534 352.416729 
L 567.118743 353.325659 
L 567.200348 353.157339 
L 567.363557 351.406807 
L 567.445162 353.00585 
L 567.526767 352.618714 
L 567.689976 351.305815 
L 567.771581 351.474135 
L 567.853186 350.699862 
L 567.934791 350.986006 
L 568.098 352.248409 
L 568.179605 351.373143 
L 568.342814 351.979096 
L 568.914047 347.400783 
L 569.240466 340.937283 
L 569.322071 340.482818 
L 569.566885 338.328317 
L 569.64849 338.799614 
L 569.730095 338.479806 
L 570.138119 331.578672 
L 570.219723 331.948977 
L 570.301328 331.141039 
L 570.464538 326.798375 
L 570.546142 326.091429 
L 570.627747 326.42807 
L 571.280585 312.810955 
L 571.36219 312.339658 
L 571.607004 306.263294 
L 571.770213 303.317688 
L 572.096632 295.322472 
L 572.259842 293.134308 
L 572.994285 274.922048 
L 573.075889 274.6864 
L 573.402308 264.486187 
L 573.647123 257.770206 
L 573.810332 254.65628 
L 574.29996 240.534204 
L 574.381565 239.42329 
L 574.626379 231.007273 
L 574.871194 224.880413 
L 575.034403 220.184276 
L 575.116008 219.797139 
L 575.524032 205.355254 
L 575.687241 203.739379 
L 575.932055 196.198628 
L 576.17687 189.129174 
L 576.340079 185.7796 
L 576.829708 173.004087 
L 576.911312 171.859508 
L 577.400941 158.040409 
L 577.890569 147.469892 
L 578.135383 139.1717 
L 578.298593 137.639985 
L 578.625012 127.42294 
L 578.706617 126.985308 
L 578.951431 121.161424 
L 579.033036 121.565393 
L 579.27785 117.054408 
L 579.685874 107.628469 
L 579.767478 109.143352 
L 579.849083 108.621559 
L 580.012292 105.103664 
L 580.175502 100.761 
L 580.746735 89.92117 
L 580.82834 91.890518 
L 580.991549 88.389455 
L 581.073154 87.632014 
L 581.154759 85.073545 
L 581.236364 85.292361 
L 581.317968 85.443849 
L 581.481178 83.54183 
L 581.889202 79.199165 
L 582.052411 75.664438 
L 582.134016 75.76543 
L 582.297225 76.876344 
L 582.37883 74.957493 
L 582.460435 75.361461 
L 583.276482 67.534566 
L 583.521296 69.217769 
L 583.602901 67.046437 
L 583.684506 67.803879 
L 583.766111 68.292007 
L 583.847715 67.366246 
L 583.92932 67.719718 
L 584.09253 69.150441 
L 584.174134 69.150441 
L 584.255739 68.796968 
L 584.663763 73.223793 
L 584.826972 77.347641 
L 585.071787 78.929853 
L 585.153391 78.82886 
L 585.234996 77.970427 
L 585.316601 78.340731 
L 585.561415 82.935876 
L 585.724625 81.118017 
L 585.969439 86.133963 
L 586.051043 86.285451 
L 586.132648 84.198279 
L 586.295858 86.739916 
L 586.622277 93.253913 
L 586.703881 92.849944 
L 586.785486 93.338073 
L 587.275115 102.057066 
L 587.356719 102.562027 
L 587.683138 108.318583 
L 587.764743 108.688887 
L 588.009557 116.313798 
L 588.254372 120.488143 
L 588.499186 127.321948 
L 588.580791 128.096222 
L 589.070419 141.831161 
L 589.396838 146.762947 
L 589.641652 151.846221 
L 590.049676 169.082223 
L 590.784119 186.267729 
L 591.192142 197.932328 
L 591.681771 209.445439 
L 591.926585 214.192072 
L 592.416213 229.980519 
L 593.803494 265.176301 
L 594.129913 272.851708 
L 594.374727 278.439943 
L 594.619542 282.900432 
L 594.782751 285.728213 
L 595.027565 292.494691 
L 595.762008 308.165314 
L 595.843613 308.653443 
L 596.65966 323.499296 
L 596.82287 324.290402 
L 596.904474 323.819105 
L 597.149289 329.373676 
L 597.312498 329.32318 
L 597.557312 332.992563 
L 597.720522 337.419388 
L 597.802126 337.52038 
L 597.883731 336.207481 
L 598.699779 346.979983 
L 598.781383 346.054221 
L 598.862988 346.289869 
L 598.944593 346.946318 
L 599.026198 349.067155 
L 599.189407 346.424525 
L 599.271012 346.239373 
L 599.434221 345.229451 
L 599.679036 349.723604 
L 599.92385 348.444369 
L 600.087059 352.298905 
L 600.413478 349.673108 
L 600.658292 351.171159 
L 600.821502 348.680018 
L 600.903107 348.006737 
L 601.066316 348.595858 
L 601.229526 346.289869 
L 601.31113 346.205709 
L 601.47434 344.387849 
L 601.637549 344.47201 
L 601.800759 341.105603 
L 601.963968 342.940295 
L 602.616806 334.052981 
L 602.698411 334.45695 
L 602.861621 332.487602 
L 603.18804 327.269672 
L 603.351249 323.549792 
L 603.514458 317.860565 
L 603.596063 318.045717 
L 604.004087 310.605959 
L 604.085692 308.905923 
L 604.167296 309.175236 
L 604.248901 308.754435 
L 604.656925 298.049262 
L 606.697043 247.048201 
L 606.778648 247.36801 
L 606.941858 243.765954 
L 607.186672 234.255856 
L 607.431486 229.172582 
L 608.573953 198.134312 
L 609.798024 165.799976 
L 609.879628 164.891046 
L 610.206047 156.273045 
L 610.532466 147.739205 
L 610.777281 142.117305 
L 611.266909 127.42294 
L 611.919747 116.532615 
L 612.246166 108.537399 
L 612.49098 105.89477 
L 612.735794 98.387683 
L 612.817399 99.010468 
L 612.899004 98.892644 
L 613.143818 94.129179 
L 613.225423 94.011354 
L 613.551842 88.372623 
L 613.715051 88.271631 
L 614.367889 78.997181 
L 614.449494 79.030845 
L 614.531099 78.441724 
L 614.694308 75.041653 
L 614.857518 76.270391 
L 615.020727 73.004977 
L 615.102332 73.190129 
L 615.265542 71.153453 
L 615.347146 72.112879 
L 615.59196 68.342504 
L 615.75517 69.150441 
L 615.836775 70.985133 
L 615.918379 70.025707 
L 615.999984 70.530668 
L 616.163194 67.164261 
L 616.244798 67.349414 
L 616.408008 68.157351 
L 616.489613 68.157351 
L 616.816032 70.480172 
L 616.897636 69.503914 
L 616.979241 71.035629 
L 617.142451 70.126699 
L 617.632079 75.159477 
L 617.713684 73.728754 
L 617.876893 80.209087 
L 617.958498 79.535806 
L 618.040103 78.340731 
L 618.121708 80.64672 
L 618.203312 79.535806 
L 618.448126 82.481412 
L 618.529731 82.212099 
L 618.611336 82.430915 
L 619.508988 96.721312 
L 620.080221 104.581871 
L 620.325036 110.675067 
L 620.488245 112.156286 
L 620.56985 112.290942 
L 621.059478 124.578327 
L 621.630711 137.118192 
L 621.712316 137.942961 
L 627.098229 279.197385 
L 627.179834 280.07265 
L 627.587858 290.626335 
L 627.914277 297.460141 
L 628.077486 300.506739 
L 628.159091 298.773039 
L 628.975138 319.055639 
L 629.056743 318.634838 
L 629.138348 317.473428 
L 629.546372 327.320168 
L 629.627976 326.747879 
L 629.709581 326.25975 
L 630.117605 329.609324 
L 630.199209 330.114285 
L 630.362419 336.712442 
L 630.444024 336.039161 
L 630.525628 336.140153 
L 630.688838 337.722364 
L 630.770443 337.974845 
L 630.852047 336.914427 
L 630.933652 337.251067 
L 631.015257 338.51347 
L 631.178466 336.44313 
L 631.58649 342.115525 
L 631.668095 341.879876 
L 631.7497 341.189763 
L 631.994514 347.484944 
L 632.076119 345.162123 
L 632.157723 346.003725 
L 632.239328 346.020557 
L 632.402538 348.680018 
L 632.484142 348.629522 
L 632.565747 348.730514 
L 632.892166 344.80865 
L 632.973771 344.303689 
L 633.055375 345.768076 
L 633.13698 345.195787 
L 633.218585 345.431435 
L 633.30019 344.690826 
L 633.463399 346.390861 
L 633.789818 341.694724 
L 633.871423 342.73831 
L 633.953028 344.068041 
L 634.034632 342.014533 
L 634.116237 342.098693 
L 634.197842 341.896708 
L 634.361051 340.987779 
L 634.442656 340.718466 
L 634.524261 340.83629 
L 634.85068 335.45004 
L 634.932285 335.61836 
L 635.013889 336.459962 
L 635.503518 326.764711 
L 635.585123 326.478566 
L 635.911542 322.62403 
L 636.074751 321.445788 
L 636.319565 315.487248 
L 636.40117 316.261522 
L 636.727589 308.905923 
L 636.972403 304.647419 
L 637.135613 301.752309 
L 637.95166 285.728213 
L 638.033265 285.105428 
L 638.930917 267.600114 
L 639.012522 267.90309 
L 640.399802 228.229988 
L 640.481407 228.16266 
L 640.726221 219.679315 
L 641.297455 202.628465 
L 641.623874 196.04714 
L 641.868688 185.156815 
L 641.950292 185.577615 
L 642.847945 158.37705 
L 642.929549 154.808659 
L 643.011154 154.859155 
L 643.092759 154.152209 
L 643.419178 143.379708 
L 643.500783 142.639098 
L 644.888063 106.467059 
L 645.051273 106.820532 
" style="fill:none;stroke:#1f77b4;stroke-dasharray:1.5,2.475;stroke-dashoffset:0;stroke-width:1.5;"/>
   </g>
   <g id="patch_3">
    <path d="M 93.24 370.3824 
L 93.24 49.9392 
" style="fill:none;stroke:#000000;stroke-linecap:square;stroke-linejoin:miter;stroke-width:0.8;"/>
   </g>
   <g id="patch_4">
    <path d="M 671.328 370.3824 
L 671.328 49.9392 
" style="fill:none;stroke:#000000;stroke-linecap:square;stroke-linejoin:miter;stroke-width:0.8;"/>
   </g>
   <g id="patch_5">
    <path d="M 93.24 370.3824 
L 671.328 370.3824 
" style="fill:none;stroke:#000000;stroke-linecap:square;stroke-linejoin:miter;stroke-width:0.8;"/>
   </g>
   <g id="patch_6">
    <path d="M 93.24 49.9392 
L 671.328 49.9392 
" style="fill:none;stroke:#000000;stroke-linecap:square;stroke-linejoin:miter;stroke-width:0.8;"/>
   </g>
  </g>
 </g>
 <defs>
  <clipPath id="p63b3c300bc">
   <rect height="320.4432" width="578.088" x="93.24" y="49.9392"/>
  </clipPath>
 </defs>
</svg>
