<?xml version="1.0" encoding="utf-8" standalone="no"?>
<!DOCTYPE svg PUBLIC "-//W3C//DTD SVG 1.1//EN"
  "http://www.w3.org/Graphics/SVG/1.1/DTD/svg11.dtd">
<!-- Created with matplotlib (http://matplotlib.org/) -->
<svg height="439.2pt" version="1.1" viewBox="0 0 1026.72 439.2" width="1026.72pt" xmlns="http://www.w3.org/2000/svg" xmlns:xlink="http://www.w3.org/1999/xlink">
 <defs>
  <style type="text/css">
*{stroke-linecap:butt;stroke-linejoin:round;}
  </style>
 </defs>
 <g id="figure_1">
  <g id="patch_1">
   <path d="M 0 439.2 
L 1026.72 439.2 
L 1026.72 0 
L 0 0 
z
" style="fill:#ffffff;"/>
  </g>
  <g id="axes_1">
   <g id="patch_2">
    <path d="M 128.34 390.888 
L 924.048 390.888 
L 924.048 52.704 
L 128.34 52.704 
z
" style="fill:#ffffff;"/>
   </g>
   <g id="matplotlib.axis_1">
    <g id="xtick_1">
     <g id="line2d_1">
      <defs>
       <path d="M 0 0 
L 0 3.5 
" id="m3421bf8423" style="stroke:#000000;stroke-width:0.8;"/>
      </defs>
      <g>
       <use style="stroke:#000000;stroke-width:0.8;" x="164.508545" xlink:href="#m3421bf8423" y="390.888"/>
      </g>
     </g>
     <g id="text_1">
      <!-- 2000 -->
      <defs>
       <path d="M 19.1875 8.296875 
L 53.609375 8.296875 
L 53.609375 0 
L 7.328125 0 
L 7.328125 8.296875 
Q 12.9375 14.109375 22.625 23.890625 
Q 32.328125 33.6875 34.8125 36.53125 
Q 39.546875 41.84375 41.421875 45.53125 
Q 43.3125 49.21875 43.3125 52.78125 
Q 43.3125 58.59375 39.234375 62.25 
Q 35.15625 65.921875 28.609375 65.921875 
Q 23.96875 65.921875 18.8125 64.3125 
Q 13.671875 62.703125 7.8125 59.421875 
L 7.8125 69.390625 
Q 13.765625 71.78125 18.9375 73 
Q 24.125 74.21875 28.421875 74.21875 
Q 39.75 74.21875 46.484375 68.546875 
Q 53.21875 62.890625 53.21875 53.421875 
Q 53.21875 48.921875 51.53125 44.890625 
Q 49.859375 40.875 45.40625 35.40625 
Q 44.1875 33.984375 37.640625 27.21875 
Q 31.109375 20.453125 19.1875 8.296875 
z
" id="DejaVuSans-32"/>
       <path d="M 31.78125 66.40625 
Q 24.171875 66.40625 20.328125 58.90625 
Q 16.5 51.421875 16.5 36.375 
Q 16.5 21.390625 20.328125 13.890625 
Q 24.171875 6.390625 31.78125 6.390625 
Q 39.453125 6.390625 43.28125 13.890625 
Q 47.125 21.390625 47.125 36.375 
Q 47.125 51.421875 43.28125 58.90625 
Q 39.453125 66.40625 31.78125 66.40625 
z
M 31.78125 74.21875 
Q 44.046875 74.21875 50.515625 64.515625 
Q 56.984375 54.828125 56.984375 36.375 
Q 56.984375 17.96875 50.515625 8.265625 
Q 44.046875 -1.421875 31.78125 -1.421875 
Q 19.53125 -1.421875 13.0625 8.265625 
Q 6.59375 17.96875 6.59375 36.375 
Q 6.59375 54.828125 13.0625 64.515625 
Q 19.53125 74.21875 31.78125 74.21875 
z
" id="DejaVuSans-30"/>
      </defs>
      <g transform="translate(151.783545 405.486438)scale(0.1 -0.1)">
       <use xlink:href="#DejaVuSans-32"/>
       <use x="63.623047" xlink:href="#DejaVuSans-30"/>
       <use x="127.246094" xlink:href="#DejaVuSans-30"/>
       <use x="190.869141" xlink:href="#DejaVuSans-30"/>
      </g>
     </g>
    </g>
    <g id="xtick_2">
     <g id="line2d_2">
      <g>
       <use style="stroke:#000000;stroke-width:0.8;" x="282.803052" xlink:href="#m3421bf8423" y="390.888"/>
      </g>
     </g>
     <g id="text_2">
      <!-- 2200 -->
      <g transform="translate(270.078052 405.486438)scale(0.1 -0.1)">
       <use xlink:href="#DejaVuSans-32"/>
       <use x="63.623047" xlink:href="#DejaVuSans-32"/>
       <use x="127.246094" xlink:href="#DejaVuSans-30"/>
       <use x="190.869141" xlink:href="#DejaVuSans-30"/>
      </g>
     </g>
    </g>
    <g id="xtick_3">
     <g id="line2d_3">
      <g>
       <use style="stroke:#000000;stroke-width:0.8;" x="401.097559" xlink:href="#m3421bf8423" y="390.888"/>
      </g>
     </g>
     <g id="text_3">
      <!-- 2400 -->
      <defs>
       <path d="M 37.796875 64.3125 
L 12.890625 25.390625 
L 37.796875 25.390625 
z
M 35.203125 72.90625 
L 47.609375 72.90625 
L 47.609375 25.390625 
L 58.015625 25.390625 
L 58.015625 17.1875 
L 47.609375 17.1875 
L 47.609375 0 
L 37.796875 0 
L 37.796875 17.1875 
L 4.890625 17.1875 
L 4.890625 26.703125 
z
" id="DejaVuSans-34"/>
      </defs>
      <g transform="translate(388.372559 405.486438)scale(0.1 -0.1)">
       <use xlink:href="#DejaVuSans-32"/>
       <use x="63.623047" xlink:href="#DejaVuSans-34"/>
       <use x="127.246094" xlink:href="#DejaVuSans-30"/>
       <use x="190.869141" xlink:href="#DejaVuSans-30"/>
      </g>
     </g>
    </g>
    <g id="xtick_4">
     <g id="line2d_4">
      <g>
       <use style="stroke:#000000;stroke-width:0.8;" x="519.392066" xlink:href="#m3421bf8423" y="390.888"/>
      </g>
     </g>
     <g id="text_4">
      <!-- 2600 -->
      <defs>
       <path d="M 33.015625 40.375 
Q 26.375 40.375 22.484375 35.828125 
Q 18.609375 31.296875 18.609375 23.390625 
Q 18.609375 15.53125 22.484375 10.953125 
Q 26.375 6.390625 33.015625 6.390625 
Q 39.65625 6.390625 43.53125 10.953125 
Q 47.40625 15.53125 47.40625 23.390625 
Q 47.40625 31.296875 43.53125 35.828125 
Q 39.65625 40.375 33.015625 40.375 
z
M 52.59375 71.296875 
L 52.59375 62.3125 
Q 48.875 64.0625 45.09375 64.984375 
Q 41.3125 65.921875 37.59375 65.921875 
Q 27.828125 65.921875 22.671875 59.328125 
Q 17.53125 52.734375 16.796875 39.40625 
Q 19.671875 43.65625 24.015625 45.921875 
Q 28.375 48.1875 33.59375 48.1875 
Q 44.578125 48.1875 50.953125 41.515625 
Q 57.328125 34.859375 57.328125 23.390625 
Q 57.328125 12.15625 50.6875 5.359375 
Q 44.046875 -1.421875 33.015625 -1.421875 
Q 20.359375 -1.421875 13.671875 8.265625 
Q 6.984375 17.96875 6.984375 36.375 
Q 6.984375 53.65625 15.1875 63.9375 
Q 23.390625 74.21875 37.203125 74.21875 
Q 40.921875 74.21875 44.703125 73.484375 
Q 48.484375 72.75 52.59375 71.296875 
z
" id="DejaVuSans-36"/>
      </defs>
      <g transform="translate(506.667066 405.486438)scale(0.1 -0.1)">
       <use xlink:href="#DejaVuSans-32"/>
       <use x="63.623047" xlink:href="#DejaVuSans-36"/>
       <use x="127.246094" xlink:href="#DejaVuSans-30"/>
       <use x="190.869141" xlink:href="#DejaVuSans-30"/>
      </g>
     </g>
    </g>
    <g id="xtick_5">
     <g id="line2d_5">
      <g>
       <use style="stroke:#000000;stroke-width:0.8;" x="637.686573" xlink:href="#m3421bf8423" y="390.888"/>
      </g>
     </g>
     <g id="text_5">
      <!-- 2800 -->
      <defs>
       <path d="M 31.78125 34.625 
Q 24.75 34.625 20.71875 30.859375 
Q 16.703125 27.09375 16.703125 20.515625 
Q 16.703125 13.921875 20.71875 10.15625 
Q 24.75 6.390625 31.78125 6.390625 
Q 38.8125 6.390625 42.859375 10.171875 
Q 46.921875 13.96875 46.921875 20.515625 
Q 46.921875 27.09375 42.890625 30.859375 
Q 38.875 34.625 31.78125 34.625 
z
M 21.921875 38.8125 
Q 15.578125 40.375 12.03125 44.71875 
Q 8.5 49.078125 8.5 55.328125 
Q 8.5 64.0625 14.71875 69.140625 
Q 20.953125 74.21875 31.78125 74.21875 
Q 42.671875 74.21875 48.875 69.140625 
Q 55.078125 64.0625 55.078125 55.328125 
Q 55.078125 49.078125 51.53125 44.71875 
Q 48 40.375 41.703125 38.8125 
Q 48.828125 37.15625 52.796875 32.3125 
Q 56.78125 27.484375 56.78125 20.515625 
Q 56.78125 9.90625 50.3125 4.234375 
Q 43.84375 -1.421875 31.78125 -1.421875 
Q 19.734375 -1.421875 13.25 4.234375 
Q 6.78125 9.90625 6.78125 20.515625 
Q 6.78125 27.484375 10.78125 32.3125 
Q 14.796875 37.15625 21.921875 38.8125 
z
M 18.3125 54.390625 
Q 18.3125 48.734375 21.84375 45.5625 
Q 25.390625 42.390625 31.78125 42.390625 
Q 38.140625 42.390625 41.71875 45.5625 
Q 45.3125 48.734375 45.3125 54.390625 
Q 45.3125 60.0625 41.71875 63.234375 
Q 38.140625 66.40625 31.78125 66.40625 
Q 25.390625 66.40625 21.84375 63.234375 
Q 18.3125 60.0625 18.3125 54.390625 
z
" id="DejaVuSans-38"/>
      </defs>
      <g transform="translate(624.961573 405.486438)scale(0.1 -0.1)">
       <use xlink:href="#DejaVuSans-32"/>
       <use x="63.623047" xlink:href="#DejaVuSans-38"/>
       <use x="127.246094" xlink:href="#DejaVuSans-30"/>
       <use x="190.869141" xlink:href="#DejaVuSans-30"/>
      </g>
     </g>
    </g>
    <g id="xtick_6">
     <g id="line2d_6">
      <g>
       <use style="stroke:#000000;stroke-width:0.8;" x="755.981079" xlink:href="#m3421bf8423" y="390.888"/>
      </g>
     </g>
     <g id="text_6">
      <!-- 3000 -->
      <defs>
       <path d="M 40.578125 39.3125 
Q 47.65625 37.796875 51.625 33 
Q 55.609375 28.21875 55.609375 21.1875 
Q 55.609375 10.40625 48.1875 4.484375 
Q 40.765625 -1.421875 27.09375 -1.421875 
Q 22.515625 -1.421875 17.65625 -0.515625 
Q 12.796875 0.390625 7.625 2.203125 
L 7.625 11.71875 
Q 11.71875 9.328125 16.59375 8.109375 
Q 21.484375 6.890625 26.8125 6.890625 
Q 36.078125 6.890625 40.9375 10.546875 
Q 45.796875 14.203125 45.796875 21.1875 
Q 45.796875 27.640625 41.28125 31.265625 
Q 36.765625 34.90625 28.71875 34.90625 
L 20.21875 34.90625 
L 20.21875 43.015625 
L 29.109375 43.015625 
Q 36.375 43.015625 40.234375 45.921875 
Q 44.09375 48.828125 44.09375 54.296875 
Q 44.09375 59.90625 40.109375 62.90625 
Q 36.140625 65.921875 28.71875 65.921875 
Q 24.65625 65.921875 20.015625 65.03125 
Q 15.375 64.15625 9.8125 62.3125 
L 9.8125 71.09375 
Q 15.4375 72.65625 20.34375 73.4375 
Q 25.25 74.21875 29.59375 74.21875 
Q 40.828125 74.21875 47.359375 69.109375 
Q 53.90625 64.015625 53.90625 55.328125 
Q 53.90625 49.265625 50.4375 45.09375 
Q 46.96875 40.921875 40.578125 39.3125 
z
" id="DejaVuSans-33"/>
      </defs>
      <g transform="translate(743.256079 405.486438)scale(0.1 -0.1)">
       <use xlink:href="#DejaVuSans-33"/>
       <use x="63.623047" xlink:href="#DejaVuSans-30"/>
       <use x="127.246094" xlink:href="#DejaVuSans-30"/>
       <use x="190.869141" xlink:href="#DejaVuSans-30"/>
      </g>
     </g>
    </g>
    <g id="xtick_7">
     <g id="line2d_7">
      <g>
       <use style="stroke:#000000;stroke-width:0.8;" x="874.275586" xlink:href="#m3421bf8423" y="390.888"/>
      </g>
     </g>
     <g id="text_7">
      <!-- 3200 -->
      <g transform="translate(861.550586 405.486438)scale(0.1 -0.1)">
       <use xlink:href="#DejaVuSans-33"/>
       <use x="63.623047" xlink:href="#DejaVuSans-32"/>
       <use x="127.246094" xlink:href="#DejaVuSans-30"/>
       <use x="190.869141" xlink:href="#DejaVuSans-30"/>
      </g>
     </g>
    </g>
    <g id="text_8">
     <!-- voltage -->
     <defs>
      <path d="M 2.984375 54.6875 
L 12.5 54.6875 
L 29.59375 8.796875 
L 46.6875 54.6875 
L 56.203125 54.6875 
L 35.6875 0 
L 23.484375 0 
z
" id="DejaVuSans-76"/>
      <path d="M 30.609375 48.390625 
Q 23.390625 48.390625 19.1875 42.75 
Q 14.984375 37.109375 14.984375 27.296875 
Q 14.984375 17.484375 19.15625 11.84375 
Q 23.34375 6.203125 30.609375 6.203125 
Q 37.796875 6.203125 41.984375 11.859375 
Q 46.1875 17.53125 46.1875 27.296875 
Q 46.1875 37.015625 41.984375 42.703125 
Q 37.796875 48.390625 30.609375 48.390625 
z
M 30.609375 56 
Q 42.328125 56 49.015625 48.375 
Q 55.71875 40.765625 55.71875 27.296875 
Q 55.71875 13.875 49.015625 6.21875 
Q 42.328125 -1.421875 30.609375 -1.421875 
Q 18.84375 -1.421875 12.171875 6.21875 
Q 5.515625 13.875 5.515625 27.296875 
Q 5.515625 40.765625 12.171875 48.375 
Q 18.84375 56 30.609375 56 
z
" id="DejaVuSans-6f"/>
      <path d="M 9.421875 75.984375 
L 18.40625 75.984375 
L 18.40625 0 
L 9.421875 0 
z
" id="DejaVuSans-6c"/>
      <path d="M 18.3125 70.21875 
L 18.3125 54.6875 
L 36.8125 54.6875 
L 36.8125 47.703125 
L 18.3125 47.703125 
L 18.3125 18.015625 
Q 18.3125 11.328125 20.140625 9.421875 
Q 21.96875 7.515625 27.59375 7.515625 
L 36.8125 7.515625 
L 36.8125 0 
L 27.59375 0 
Q 17.1875 0 13.234375 3.875 
Q 9.28125 7.765625 9.28125 18.015625 
L 9.28125 47.703125 
L 2.6875 47.703125 
L 2.6875 54.6875 
L 9.28125 54.6875 
L 9.28125 70.21875 
z
" id="DejaVuSans-74"/>
      <path d="M 34.28125 27.484375 
Q 23.390625 27.484375 19.1875 25 
Q 14.984375 22.515625 14.984375 16.5 
Q 14.984375 11.71875 18.140625 8.90625 
Q 21.296875 6.109375 26.703125 6.109375 
Q 34.1875 6.109375 38.703125 11.40625 
Q 43.21875 16.703125 43.21875 25.484375 
L 43.21875 27.484375 
z
M 52.203125 31.203125 
L 52.203125 0 
L 43.21875 0 
L 43.21875 8.296875 
Q 40.140625 3.328125 35.546875 0.953125 
Q 30.953125 -1.421875 24.3125 -1.421875 
Q 15.921875 -1.421875 10.953125 3.296875 
Q 6 8.015625 6 15.921875 
Q 6 25.140625 12.171875 29.828125 
Q 18.359375 34.515625 30.609375 34.515625 
L 43.21875 34.515625 
L 43.21875 35.40625 
Q 43.21875 41.609375 39.140625 45 
Q 35.0625 48.390625 27.6875 48.390625 
Q 23 48.390625 18.546875 47.265625 
Q 14.109375 46.140625 10.015625 43.890625 
L 10.015625 52.203125 
Q 14.9375 54.109375 19.578125 55.046875 
Q 24.21875 56 28.609375 56 
Q 40.484375 56 46.34375 49.84375 
Q 52.203125 43.703125 52.203125 31.203125 
z
" id="DejaVuSans-61"/>
      <path d="M 45.40625 27.984375 
Q 45.40625 37.75 41.375 43.109375 
Q 37.359375 48.484375 30.078125 48.484375 
Q 22.859375 48.484375 18.828125 43.109375 
Q 14.796875 37.75 14.796875 27.984375 
Q 14.796875 18.265625 18.828125 12.890625 
Q 22.859375 7.515625 30.078125 7.515625 
Q 37.359375 7.515625 41.375 12.890625 
Q 45.40625 18.265625 45.40625 27.984375 
z
M 54.390625 6.78125 
Q 54.390625 -7.171875 48.1875 -13.984375 
Q 42 -20.796875 29.203125 -20.796875 
Q 24.46875 -20.796875 20.265625 -20.09375 
Q 16.0625 -19.390625 12.109375 -17.921875 
L 12.109375 -9.1875 
Q 16.0625 -11.328125 19.921875 -12.34375 
Q 23.78125 -13.375 27.78125 -13.375 
Q 36.625 -13.375 41.015625 -8.765625 
Q 45.40625 -4.15625 45.40625 5.171875 
L 45.40625 9.625 
Q 42.625 4.78125 38.28125 2.390625 
Q 33.9375 0 27.875 0 
Q 17.828125 0 11.671875 7.65625 
Q 5.515625 15.328125 5.515625 27.984375 
Q 5.515625 40.671875 11.671875 48.328125 
Q 17.828125 56 27.875 56 
Q 33.9375 56 38.28125 53.609375 
Q 42.625 51.21875 45.40625 46.390625 
L 45.40625 54.6875 
L 54.390625 54.6875 
z
" id="DejaVuSans-67"/>
      <path d="M 56.203125 29.59375 
L 56.203125 25.203125 
L 14.890625 25.203125 
Q 15.484375 15.921875 20.484375 11.0625 
Q 25.484375 6.203125 34.421875 6.203125 
Q 39.59375 6.203125 44.453125 7.46875 
Q 49.3125 8.734375 54.109375 11.28125 
L 54.109375 2.78125 
Q 49.265625 0.734375 44.1875 -0.34375 
Q 39.109375 -1.421875 33.890625 -1.421875 
Q 20.796875 -1.421875 13.15625 6.1875 
Q 5.515625 13.8125 5.515625 26.8125 
Q 5.515625 40.234375 12.765625 48.109375 
Q 20.015625 56 32.328125 56 
Q 43.359375 56 49.78125 48.890625 
Q 56.203125 41.796875 56.203125 29.59375 
z
M 47.21875 32.234375 
Q 47.125 39.59375 43.09375 43.984375 
Q 39.0625 48.390625 32.421875 48.390625 
Q 24.90625 48.390625 20.390625 44.140625 
Q 15.875 39.890625 15.1875 32.171875 
z
" id="DejaVuSans-65"/>
     </defs>
     <g transform="translate(507.511187 419.164562)scale(0.1 -0.1)">
      <use xlink:href="#DejaVuSans-76"/>
      <use x="59.179688" xlink:href="#DejaVuSans-6f"/>
      <use x="120.361328" xlink:href="#DejaVuSans-6c"/>
      <use x="148.144531" xlink:href="#DejaVuSans-74"/>
      <use x="187.353516" xlink:href="#DejaVuSans-61"/>
      <use x="248.632812" xlink:href="#DejaVuSans-67"/>
      <use x="312.109375" xlink:href="#DejaVuSans-65"/>
     </g>
    </g>
   </g>
   <g id="matplotlib.axis_2">
    <g id="ytick_1">
     <g id="line2d_8">
      <defs>
       <path d="M 0 0 
L -3.5 0 
" id="mbd79ae150c" style="stroke:#000000;stroke-width:0.8;"/>
      </defs>
      <g>
       <use style="stroke:#000000;stroke-width:0.8;" x="128.34" xlink:href="#mbd79ae150c" y="353.25782"/>
      </g>
     </g>
     <g id="text_9">
      <!-- 0.05 -->
      <defs>
       <path d="M 10.6875 12.40625 
L 21 12.40625 
L 21 0 
L 10.6875 0 
z
" id="DejaVuSans-2e"/>
       <path d="M 10.796875 72.90625 
L 49.515625 72.90625 
L 49.515625 64.59375 
L 19.828125 64.59375 
L 19.828125 46.734375 
Q 21.96875 47.46875 24.109375 47.828125 
Q 26.265625 48.1875 28.421875 48.1875 
Q 40.625 48.1875 47.75 41.5 
Q 54.890625 34.8125 54.890625 23.390625 
Q 54.890625 11.625 47.5625 5.09375 
Q 40.234375 -1.421875 26.90625 -1.421875 
Q 22.3125 -1.421875 17.546875 -0.640625 
Q 12.796875 0.140625 7.71875 1.703125 
L 7.71875 11.625 
Q 12.109375 9.234375 16.796875 8.0625 
Q 21.484375 6.890625 26.703125 6.890625 
Q 35.15625 6.890625 40.078125 11.328125 
Q 45.015625 15.765625 45.015625 23.390625 
Q 45.015625 31 40.078125 35.4375 
Q 35.15625 39.890625 26.703125 39.890625 
Q 22.75 39.890625 18.8125 39.015625 
Q 14.890625 38.140625 10.796875 36.28125 
z
" id="DejaVuSans-35"/>
      </defs>
      <g transform="translate(99.074375 357.057039)scale(0.1 -0.1)">
       <use xlink:href="#DejaVuSans-30"/>
       <use x="63.623047" xlink:href="#DejaVuSans-2e"/>
       <use x="95.410156" xlink:href="#DejaVuSans-30"/>
       <use x="159.033203" xlink:href="#DejaVuSans-35"/>
      </g>
     </g>
    </g>
    <g id="ytick_2">
     <g id="line2d_9">
      <g>
       <use style="stroke:#000000;stroke-width:0.8;" x="128.34" xlink:href="#mbd79ae150c" y="308.848044"/>
      </g>
     </g>
     <g id="text_10">
      <!-- 0.10 -->
      <defs>
       <path d="M 12.40625 8.296875 
L 28.515625 8.296875 
L 28.515625 63.921875 
L 10.984375 60.40625 
L 10.984375 69.390625 
L 28.421875 72.90625 
L 38.28125 72.90625 
L 38.28125 8.296875 
L 54.390625 8.296875 
L 54.390625 0 
L 12.40625 0 
z
" id="DejaVuSans-31"/>
      </defs>
      <g transform="translate(99.074375 312.647262)scale(0.1 -0.1)">
       <use xlink:href="#DejaVuSans-30"/>
       <use x="63.623047" xlink:href="#DejaVuSans-2e"/>
       <use x="95.410156" xlink:href="#DejaVuSans-31"/>
       <use x="159.033203" xlink:href="#DejaVuSans-30"/>
      </g>
     </g>
    </g>
    <g id="ytick_3">
     <g id="line2d_10">
      <g>
       <use style="stroke:#000000;stroke-width:0.8;" x="128.34" xlink:href="#mbd79ae150c" y="264.438267"/>
      </g>
     </g>
     <g id="text_11">
      <!-- 0.15 -->
      <g transform="translate(99.074375 268.237486)scale(0.1 -0.1)">
       <use xlink:href="#DejaVuSans-30"/>
       <use x="63.623047" xlink:href="#DejaVuSans-2e"/>
       <use x="95.410156" xlink:href="#DejaVuSans-31"/>
       <use x="159.033203" xlink:href="#DejaVuSans-35"/>
      </g>
     </g>
    </g>
    <g id="ytick_4">
     <g id="line2d_11">
      <g>
       <use style="stroke:#000000;stroke-width:0.8;" x="128.34" xlink:href="#mbd79ae150c" y="220.028491"/>
      </g>
     </g>
     <g id="text_12">
      <!-- 0.20 -->
      <g transform="translate(99.074375 223.82771)scale(0.1 -0.1)">
       <use xlink:href="#DejaVuSans-30"/>
       <use x="63.623047" xlink:href="#DejaVuSans-2e"/>
       <use x="95.410156" xlink:href="#DejaVuSans-32"/>
       <use x="159.033203" xlink:href="#DejaVuSans-30"/>
      </g>
     </g>
    </g>
    <g id="ytick_5">
     <g id="line2d_12">
      <g>
       <use style="stroke:#000000;stroke-width:0.8;" x="128.34" xlink:href="#mbd79ae150c" y="175.618715"/>
      </g>
     </g>
     <g id="text_13">
      <!-- 0.25 -->
      <g transform="translate(99.074375 179.417933)scale(0.1 -0.1)">
       <use xlink:href="#DejaVuSans-30"/>
       <use x="63.623047" xlink:href="#DejaVuSans-2e"/>
       <use x="95.410156" xlink:href="#DejaVuSans-32"/>
       <use x="159.033203" xlink:href="#DejaVuSans-35"/>
      </g>
     </g>
    </g>
    <g id="ytick_6">
     <g id="line2d_13">
      <g>
       <use style="stroke:#000000;stroke-width:0.8;" x="128.34" xlink:href="#mbd79ae150c" y="131.208938"/>
      </g>
     </g>
     <g id="text_14">
      <!-- 0.30 -->
      <g transform="translate(99.074375 135.008157)scale(0.1 -0.1)">
       <use xlink:href="#DejaVuSans-30"/>
       <use x="63.623047" xlink:href="#DejaVuSans-2e"/>
       <use x="95.410156" xlink:href="#DejaVuSans-33"/>
       <use x="159.033203" xlink:href="#DejaVuSans-30"/>
      </g>
     </g>
    </g>
    <g id="ytick_7">
     <g id="line2d_14">
      <g>
       <use style="stroke:#000000;stroke-width:0.8;" x="128.34" xlink:href="#mbd79ae150c" y="86.799162"/>
      </g>
     </g>
     <g id="text_15">
      <!-- 0.35 -->
      <g transform="translate(99.074375 90.59838)scale(0.1 -0.1)">
       <use xlink:href="#DejaVuSans-30"/>
       <use x="63.623047" xlink:href="#DejaVuSans-2e"/>
       <use x="95.410156" xlink:href="#DejaVuSans-33"/>
       <use x="159.033203" xlink:href="#DejaVuSans-35"/>
      </g>
     </g>
    </g>
   </g>
   <g id="line2d_15">
    <path clip-path="url(#p7925f8989d)" d="M 164.804282 152.543395 
L 165.100018 151.175574 
L 165.691491 145.970748 
L 166.282963 142.044924 
L 166.874436 138.652017 
L 167.170172 138.705308 
L 167.465908 138.083572 
L 167.761644 134.335386 
L 168.353117 132.061606 
L 168.944589 126.625849 
L 169.240326 124.689583 
L 169.536062 124.050082 
L 170.127535 118.312339 
L 170.423271 119.040659 
L 170.719007 117.512963 
L 171.014743 117.139921 
L 171.31048 116.038559 
L 172.197688 109.73237 
L 172.789161 107.707284 
L 173.084897 106.250644 
L 173.380633 106.907908 
L 173.972106 102.697862 
L 174.267842 103.035376 
L 174.563579 101.578735 
L 174.859315 101.01029 
L 175.155051 99.731289 
L 175.450787 99.393774 
L 175.746524 97.688439 
L 176.337996 97.226577 
L 176.929469 96.28509 
L 177.225205 94.615282 
L 177.816677 89.232817 
L 178.112414 90.440763 
L 178.40815 88.948595 
L 178.703886 88.433441 
L 178.999623 89.143998 
L 179.295359 87.847232 
L 179.591095 85.893202 
L 179.886831 86.3373 
L 180.182568 84.560909 
L 180.478304 83.797061 
L 180.77404 84.241159 
L 181.069776 81.061419 
L 181.661249 82.269365 
L 181.956985 82.34042 
L 182.252721 81.239058 
L 182.548458 81.381169 
L 183.13993 79.97782 
L 183.435667 79.604778 
L 184.027139 79.373847 
L 185.210084 80.599557 
L 185.50582 80.439682 
L 185.801557 79.320555 
L 186.097293 81.079183 
L 186.393029 80.564029 
L 186.688765 79.533722 
L 186.984502 76.922427 
L 187.280238 78.148137 
L 187.575974 81.150238 
L 187.871711 81.896322 
L 188.167447 81.541044 
L 188.758919 77.188886 
L 189.054656 77.988262 
L 189.646128 81.469989 
L 189.941864 81.576572 
L 190.829073 80.972599 
L 191.124809 81.221294 
L 192.012018 84.116811 
L 192.307755 85.324757 
L 192.603491 84.70302 
L 193.194963 88.166983 
L 193.4907 89.215054 
L 193.786436 89.001887 
L 194.377908 90.263124 
L 194.969381 94.668574 
L 195.560853 98.079245 
L 195.85659 96.214034 
L 196.152326 97.777258 
L 196.743799 101.614263 
L 197.039535 102.715626 
L 197.335271 102.520223 
L 197.631007 103.070904 
L 197.926744 104.811767 
L 198.22248 104.261086 
L 198.518216 108.27573 
L 199.109689 111.100191 
L 199.701161 114.350987 
L 200.292634 117.743894 
L 200.58837 118.507742 
L 200.884106 120.941398 
L 201.179843 120.710467 
L 201.771315 124.40536 
L 202.067051 128.846338 
L 202.362788 130.427326 
L 202.658524 131.17341 
L 202.95426 131.351049 
L 203.249996 132.630051 
L 204.137205 141.174492 
L 204.432942 141.61859 
L 204.728678 143.021939 
L 205.32015 148.937321 
L 206.503095 155.332329 
L 206.798832 155.918538 
L 207.094568 159.648959 
L 207.390304 161.478642 
L 207.68604 166.221606 
L 207.981777 166.168314 
L 208.277513 168.299983 
L 208.573249 169.081595 
L 208.868986 172.563322 
L 209.164722 174.339713 
L 209.756194 180.557082 
L 210.643403 183.790113 
L 210.939139 185.708616 
L 211.826348 194.892557 
L 212.713557 198.463103 
L 213.009293 200.328314 
L 213.600766 206.279224 
L 214.487975 211.714981 
L 214.783711 215.338819 
L 215.079447 215.907264 
L 215.375183 217.630363 
L 216.262392 225.3399 
L 216.558128 227.187347 
L 216.853865 230.526962 
L 217.445337 234.96794 
L 217.741074 234.825828 
L 219.219755 246.603301 
L 219.515491 246.86976 
L 219.811227 248.202053 
L 220.4027 252.891725 
L 220.698436 255.272089 
L 220.994172 258.895927 
L 221.289909 260.849957 
L 221.585645 261.8625 
L 222.472854 269.838496 
L 222.76859 271.49054 
L 223.064326 274.226182 
L 223.360063 273.995251 
L 224.543008 282.4864 
L 224.838744 282.362053 
L 225.13448 283.498943 
L 225.430216 287.513587 
L 226.317425 294.281637 
L 226.613162 295.898153 
L 226.908898 298.491684 
L 227.50037 301.742479 
L 227.796107 305.543956 
L 228.387579 309.221086 
L 228.683315 308.936863 
L 229.570524 318.742542 
L 229.86626 319.968252 
L 230.161997 320.252474 
L 230.753469 321.300545 
L 231.344942 327.926484 
L 231.936414 329.542999 
L 232.232151 329.614055 
L 233.710832 338.815761 
L 234.006568 338.957872 
L 234.302304 342.368543 
L 235.189513 346.631881 
L 235.48525 346.241075 
L 235.780986 346.294367 
L 236.372458 347.591133 
L 237.259667 353.488751 
L 237.555403 352.600555 
L 237.85114 352.795958 
L 238.146876 352.653847 
L 238.442612 353.719682 
L 238.738348 357.681034 
L 239.034085 357.894201 
L 239.329821 357.929729 
L 239.625557 358.782396 
L 239.921294 358.000784 
L 240.21703 360.736426 
L 240.512766 362.406234 
L 240.808502 363.20561 
L 241.399975 363.596416 
L 241.695711 363.93393 
L 241.991447 364.058278 
L 242.58292 367.344601 
L 242.878656 367.095906 
L 243.174392 367.309073 
L 243.470129 366.29653 
L 243.765865 366.598517 
L 244.357338 367.628824 
L 244.653074 367.575532 
L 244.94881 367.11367 
L 245.244546 367.504476 
L 245.540283 368.83677 
L 246.131755 369.209812 
L 246.427491 369.600618 
L 246.723228 368.534783 
L 247.018964 368.641367 
L 247.3147 367.042615 
L 247.610436 368.037394 
L 247.906173 368.090685 
L 248.201909 369.0677 
L 248.497645 367.007087 
L 248.793382 366.669573 
L 249.089118 366.634045 
L 249.384854 369.671673 
L 249.68059 370.080243 
L 249.976327 367.593296 
L 250.272063 367.966338 
L 250.567799 366.740628 
L 250.863535 366.332058 
L 251.455008 366.847212 
L 252.04648 365.65703 
L 252.342217 362.779276 
L 252.637953 361.269344 
L 252.933689 360.789718 
L 253.229426 362.015428 
L 253.820898 358.835688 
L 254.116634 358.054076 
L 254.412371 357.752089 
L 254.708107 357.876437 
L 255.003843 358.196187 
L 255.595316 353.559807 
L 255.891052 352.103166 
L 256.186788 351.605776 
L 256.482524 350.362303 
L 257.369733 344.056114 
L 257.961206 342.261959 
L 258.256942 341.657986 
L 258.552678 340.556624 
L 258.848415 341.729042 
L 259.144151 338.744705 
L 259.439887 336.986078 
L 259.735623 336.54198 
L 260.03136 336.311049 
L 260.327096 334.99652 
L 260.622832 332.669448 
L 261.510041 329.489708 
L 261.805777 329.04561 
L 262.101514 327.215927 
L 262.39725 326.398787 
L 262.692986 322.952589 
L 262.988722 321.158434 
L 263.284459 318.529375 
L 263.875931 317.747763 
L 265.058876 308.475002 
L 265.354613 306.947305 
L 265.946085 301.102979 
L 266.241821 299.504227 
L 266.833294 293.766484 
L 267.12903 291.883509 
L 267.424766 291.368356 
L 267.720503 289.574201 
L 268.016239 285.968127 
L 268.311975 284.564778 
L 268.607711 280.994232 
L 268.903448 281.100815 
L 269.49492 278.809271 
L 270.086393 272.734014 
L 270.382129 269.589801 
L 270.973602 267.848938 
L 271.269338 266.090311 
L 272.452283 254.668116 
L 273.043755 252.998309 
L 273.339492 250.990987 
L 274.226701 242.073504 
L 274.818173 238.005568 
L 276.296854 223.758912 
L 276.592591 223.314814 
L 276.888327 222.035813 
L 277.184063 218.856073 
L 277.479799 217.790238 
L 278.071272 212.922927 
L 278.662745 208.002323 
L 279.549953 197.450561 
L 280.141426 197.290685 
L 280.437162 196.438018 
L 281.028635 191.801637 
L 281.620107 184.980295 
L 281.915843 184.056572 
L 282.507316 178.940566 
L 283.394525 171.568543 
L 283.690261 170.662583 
L 284.281734 167.87365 
L 284.57747 164.907076 
L 284.873206 160.128585 
L 285.760415 154.763884 
L 286.647624 146.450373 
L 287.534833 139.859963 
L 287.830569 138.776364 
L 288.126305 138.43885 
L 288.717778 134.317622 
L 289.30925 133.393899 
L 289.604986 131.226702 
L 290.196459 126.306099 
L 290.492195 124.689583 
L 290.787931 122.45133 
L 291.379404 121.119037 
L 292.266613 112.237082 
L 292.562349 111.171247 
L 292.858085 111.242303 
L 293.449558 107.849396 
L 293.745294 107.707284 
L 294.632503 102.680098 
L 294.928239 102.928793 
L 295.223975 102.218236 
L 295.519712 100.317498 
L 296.702657 95.805464 
L 296.998393 95.46795 
L 297.885602 87.847232 
L 298.181338 86.603759 
L 298.477074 86.74587 
L 298.772811 87.012329 
L 299.068547 86.106369 
L 299.364283 84.205631 
L 299.955756 82.180545 
L 300.251492 83.921408 
L 300.547228 84.720784 
L 300.842965 83.814825 
L 301.434437 79.924528 
L 301.730173 79.391611 
L 302.02591 77.046775 
L 302.321646 78.538943 
L 302.617382 79.000805 
L 302.913118 78.130373 
L 303.208855 75.732245 
L 303.504591 75.590134 
L 304.096063 73.689396 
L 304.687536 69.781335 
L 305.279009 68.076 
L 305.870481 71.25574 
L 306.166217 71.060337 
L 306.461954 72.179463 
L 307.053426 70.047794 
L 307.349162 71.486671 
L 307.940635 72.872256 
L 308.236371 71.380087 
L 308.532107 71.309032 
L 308.827844 70.705059 
L 309.12358 70.900462 
L 309.715053 74.169021 
L 310.306525 71.557726 
L 310.602261 71.451143 
L 310.897998 72.48145 
L 311.193734 77.792859 
L 311.48947 79.533722 
L 311.785206 79.338319 
L 312.080943 76.79808 
L 312.376679 76.531621 
L 312.672415 78.592235 
L 313.263888 78.947513 
L 314.151097 82.606879 
L 314.446833 82.660171 
L 314.742569 82.287128 
L 315.038305 84.152339 
L 315.629778 85.555688 
L 315.925514 85.306993 
L 316.22125 84.667492 
L 316.516987 84.614201 
L 317.108459 89.747971 
L 317.404195 90.387472 
L 317.699932 89.60586 
L 317.995668 89.943374 
L 318.587141 97.048938 
L 318.882877 99.180607 
L 319.474349 100.903707 
L 319.770086 101.223457 
L 320.065822 103.106432 
L 320.361558 107.298715 
L 320.657294 108.293493 
L 320.953031 108.524424 
L 321.248767 110.336343 
L 321.544503 110.371871 
L 322.431712 119.662396 
L 323.023185 122.024996 
L 323.318921 122.593441 
L 323.614657 123.819151 
L 323.910393 125.560015 
L 324.501866 130.676021 
L 324.797602 131.901731 
L 325.093338 131.315522 
L 325.980547 142.02716 
L 326.276284 143.643676 
L 326.867756 145.171372 
L 328.050701 151.761783 
L 328.346437 154.74612 
L 328.642174 154.994814 
L 329.529382 164.60509 
L 330.120855 167.87365 
L 330.416591 167.607191 
L 330.712328 169.916499 
L 331.008064 174.428533 
L 331.599536 179.100441 
L 331.895273 181.001179 
L 332.191009 181.853847 
L 332.486745 183.115085 
L 332.782481 185.72638 
L 333.373954 194.732682 
L 334.261163 196.899879 
L 334.556899 198.516395 
L 334.852635 201.109926 
L 335.444108 209.565548 
L 335.739844 210.418215 
L 336.331317 213.615719 
L 337.218525 221.218673 
L 337.809998 226.920888 
L 338.105734 228.501876 
L 338.40147 232.072422 
L 339.880152 241.895865 
L 340.471624 248.273109 
L 340.767361 250.031736 
L 341.063097 252.785142 
L 341.358833 253.886504 
L 342.246042 262.502001 
L 342.837514 266.427825 
L 343.133251 268.133161 
L 343.428987 268.648314 
L 343.724723 269.731913 
L 344.316196 275.753878 
L 344.611932 277.03288 
L 344.907668 279.413244 
L 345.203405 280.1238 
L 345.794877 283.925277 
L 346.38635 288.916936 
L 346.977822 292.789469 
L 347.569295 295.009957 
L 348.456504 301.724716 
L 349.047976 304.087316 
L 349.935185 312.951507 
L 350.230921 313.502188 
L 350.526657 313.733119 
L 350.822394 315.012121 
L 351.11813 318.085277 
L 351.709602 320.394586 
L 352.005339 322.544019 
L 352.301075 322.206504 
L 352.596811 322.544019 
L 352.892548 323.609853 
L 353.188284 327.429094 
L 353.779756 330.697654 
L 354.075493 331.443738 
L 354.371229 332.758267 
L 354.666965 333.149073 
L 354.962701 334.410311 
L 355.258438 336.435397 
L 355.84991 338.389427 
L 356.145646 335.582729 
L 356.441383 336.737383 
L 356.737119 339.579609 
L 357.032855 343.7186 
L 357.328592 345.033129 
L 357.624328 345.796978 
L 358.2158 346.329895 
L 358.511537 348.887898 
L 358.807273 349.030009 
L 359.103009 350.628761 
L 359.398745 350.273483 
L 359.694482 351.801179 
L 359.990218 351.872235 
L 360.285954 351.694596 
L 360.877427 356.224393 
L 361.173163 356.597435 
L 361.468899 357.236936 
L 361.764636 355.70924 
L 362.060372 356.508616 
L 362.356108 358.39159 
L 362.947581 360.310093 
L 363.243317 360.914066 
L 363.539053 359.404133 
L 363.834789 358.906744 
L 364.426262 361.589094 
L 364.721998 363.454305 
L 365.017734 363.507596 
L 365.313471 362.299651 
L 365.609207 362.601637 
L 365.904943 364.076042 
L 366.20068 363.596416 
L 366.496416 363.667472 
L 366.792152 365.106348 
L 367.087888 365.870197 
L 367.383625 364.733306 
L 367.679361 365.017529 
L 367.975097 364.822126 
L 368.270833 364.289209 
L 368.56657 363.11679 
L 368.862306 364.360264 
L 369.158042 363.223374 
L 369.453778 361.25158 
L 370.045251 363.187846 
L 370.93246 360.310093 
L 371.523932 361.091705 
L 371.819669 360.061398 
L 372.115405 359.581772 
L 372.411141 358.782396 
L 372.706877 356.348741 
L 373.002614 354.909864 
L 373.29835 356.064518 
L 373.594086 354.572349 
L 373.889822 354.234835 
L 374.185559 354.288127 
L 374.481295 352.600555 
L 374.777031 352.600555 
L 375.072768 351.374846 
L 375.368504 351.055095 
L 375.66424 351.392609 
L 375.959976 348.319453 
L 376.255713 346.436478 
L 376.551449 347.040451 
L 376.847185 345.370644 
L 377.438658 344.517976 
L 377.734394 344.375865 
L 378.325866 339.330914 
L 378.621603 337.909801 
L 378.917339 338.158496 
L 379.508812 334.552422 
L 379.804548 331.514794 
L 380.100284 330.200264 
L 380.39602 328.139651 
L 380.987493 328.565984 
L 381.283229 327.233691 
L 382.170438 318.493847 
L 382.761911 318.937945 
L 383.057647 316.628637 
L 383.353383 313.200202 
L 383.649119 308.33289 
L 383.944856 306.432152 
L 384.536328 304.797872 
L 384.832064 304.957747 
L 385.127801 302.506328 
L 385.423537 297.177154 
L 385.719273 295.276416 
L 386.015009 296.963988 
L 386.310746 297.177154 
L 387.789427 286.039183 
L 388.085163 283.978569 
L 388.3809 283.30354 
L 388.676636 283.552235 
L 389.268108 276.357851 
L 389.859581 272.147804 
L 390.155317 273.337986 
L 390.451053 270.637872 
L 390.74679 265.788324 
L 391.633999 259.890706 
L 391.929735 259.819651 
L 392.225471 257.652453 
L 392.816944 251.09757 
L 393.11268 247.811247 
L 393.408416 246.851996 
L 393.704152 249.196832 
L 393.999889 248.00665 
L 394.887097 233.600119 
L 395.182834 231.930311 
L 395.774306 230.438142 
L 396.070043 228.963738 
L 396.661515 220.650228 
L 396.957251 217.577071 
L 397.252988 216.29807 
L 397.548724 216.262542 
L 398.731669 205.337737 
L 399.027405 205.462084 
L 399.323141 204.236374 
L 399.914614 198.232173 
L 400.21035 195.656406 
L 400.801823 188.835064 
L 401.097559 187.573826 
L 401.393295 187.609354 
L 401.984768 180.18404 
L 402.280504 179.295844 
L 402.57624 179.633358 
L 402.871977 177.217466 
L 403.167713 177.146411 
L 403.759185 169.987555 
L 404.054922 169.578985 
L 404.350658 166.132786 
L 404.646394 165.280119 
L 405.829339 153.040784 
L 406.125076 152.223644 
L 406.420812 152.454575 
L 406.716548 151.353213 
L 407.603757 140.161949 
L 408.195229 139.504684 
L 408.490966 138.296738 
L 408.786702 137.568418 
L 409.378175 130.018756 
L 409.673911 130.089812 
L 409.969647 129.325964 
L 410.265383 128.189073 
L 410.856856 120.976926 
L 411.152592 119.147243 
L 411.448328 119.733452 
L 411.744065 119.751216 
L 412.039801 119.502521 
L 412.92701 109.465912 
L 413.222746 108.311257 
L 413.518482 109.075106 
L 413.814219 107.298715 
L 414.109955 106.534866 
L 414.405691 105.41574 
L 414.997164 99.766816 
L 415.2929 100.459609 
L 415.588636 98.061481 
L 415.884372 98.985204 
L 416.771581 92.021751 
L 417.067317 91.311195 
L 417.363054 90.938153 
L 417.65879 91.009209 
L 418.545999 86.035314 
L 419.137471 87.261023 
L 419.433208 86.816926 
L 419.728944 85.289229 
L 420.616153 78.059318 
L 420.911889 78.805402 
L 421.207625 78.805402 
L 421.503361 76.709261 
L 421.799098 76.602677 
L 422.39057 73.867035 
L 422.686307 74.382188 
L 422.982043 73.955854 
L 423.277779 74.453244 
L 423.869252 70.882698 
L 424.164988 70.722823 
L 424.460724 70.101086 
L 425.052197 71.557726 
L 425.643669 70.154378 
L 425.939405 70.580711 
L 426.235142 70.793878 
L 426.530878 71.433379 
L 426.826614 72.818964 
L 427.122351 72.410394 
L 427.418087 71.25574 
L 427.713823 72.357102 
L 428.009559 72.357102 
L 428.305296 72.143936 
L 428.601032 72.126172 
L 428.896768 73.280826 
L 429.488241 72.286047 
L 429.783977 74.204549 
L 430.079713 74.630883 
L 430.671186 75.767773 
L 430.966922 72.694617 
L 431.262658 73.263062 
L 432.149867 78.006026 
L 432.445603 77.970498 
L 432.74134 80.173223 
L 433.037076 80.88378 
L 433.332812 81.008127 
L 433.628548 82.784518 
L 433.924285 85.573452 
L 434.220021 85.466868 
L 434.515757 82.731226 
L 434.811493 82.624643 
L 435.10723 82.784518 
L 435.402966 84.685256 
L 435.698702 88.664372 
L 435.994439 90.103249 
L 436.290175 88.966359 
L 436.585911 88.575553 
L 436.881647 88.433441 
L 437.47312 93.034294 
L 437.768856 96.018631 
L 438.064592 97.670675 
L 438.360329 97.883842 
L 438.656065 98.541107 
L 438.951801 101.258985 
L 439.247538 102.822209 
L 439.543274 105.024934 
L 439.83901 105.966421 
L 440.134746 104.616364 
L 440.430483 105.948657 
L 440.726219 106.286172 
L 441.317691 113.853598 
L 441.613428 115.612225 
L 441.909164 116.642531 
L 442.2049 117.157685 
L 443.387845 126.821252 
L 443.683582 126.696905 
L 443.979318 125.702126 
L 444.57079 130.658257 
L 444.866527 135.454513 
L 445.162263 137.426307 
L 445.457999 137.728293 
L 445.753735 136.236125 
L 446.345208 139.717851 
L 446.640944 144.425288 
L 446.93668 146.841179 
L 447.528153 147.551736 
L 447.823889 149.754461 
L 448.119626 151.104518 
L 448.711098 160.537154 
L 449.006834 162.420129 
L 449.302571 162.064851 
L 449.598307 161.123363 
L 450.781252 174.55288 
L 451.076988 174.393005 
L 451.372724 174.890394 
L 451.668461 178.158954 
L 452.259933 187.094201 
L 452.55567 189.918663 
L 452.851406 190.238413 
L 453.147142 190.380524 
L 453.442878 191.837165 
L 454.330087 201.234274 
L 455.217296 206.26146 
L 455.513032 208.71288 
L 456.104505 216.20925 
L 456.695977 218.269864 
L 456.991714 219.38899 
L 457.583186 224.043135 
L 457.878922 228.040015 
L 458.174659 229.194669 
L 458.470395 229.816406 
L 458.766131 231.450685 
L 459.949076 245.430883 
L 460.244812 245.217716 
L 460.540549 246.230259 
L 461.132021 251.150862 
L 461.427758 254.259547 
L 461.723494 255.431965 
L 462.610703 261.95132 
L 462.906439 264.31392 
L 463.202175 268.488439 
L 463.497911 270.815511 
L 463.793648 270.620108 
L 464.089384 271.685943 
L 465.568065 281.75808 
L 466.159538 284.849001 
L 466.75101 293.642136 
L 467.046747 294.583624 
L 467.638219 297.496905 
L 467.933955 297.65678 
L 468.525428 303.572162 
L 468.821164 306.911777 
L 469.1169 308.137487 
L 469.412637 307.977612 
L 469.708373 309.931642 
L 470.004109 310.393504 
L 470.299846 311.246172 
L 470.891318 315.59833 
L 471.482791 320.021543 
L 471.778527 320.23471 
L 472.074263 321.531476 
L 472.369999 325.244133 
L 472.665736 327.304747 
L 472.961472 327.713317 
L 473.257208 327.127108 
L 473.552944 327.251455 
L 474.144417 332.243114 
L 474.440153 333.184601 
L 474.73589 334.516894 
L 475.031626 335.049812 
L 475.327362 333.806338 
L 475.623098 335.422854 
L 476.214571 341.817862 
L 476.510307 342.510654 
L 477.10178 345.281824 
L 477.397516 345.26406 
L 477.988988 348.4438 
L 478.284725 348.283925 
L 478.876197 346.667409 
L 479.171934 347.893119 
L 479.763406 353.826265 
L 480.059142 353.737446 
L 480.354879 353.879557 
L 480.946351 355.638184 
L 481.242087 358.675813 
L 481.537824 358.267243 
L 481.83356 358.196187 
L 482.129296 358.551465 
L 482.425032 358.160659 
L 482.720769 358.444882 
L 483.016505 359.688356 
L 483.312241 360.167981 
L 483.903714 360.274565 
L 484.19945 359.244258 
L 484.790923 362.246359 
L 485.086659 363.170082 
L 485.382395 363.11679 
L 485.678131 360.789718 
L 486.269604 358.160659 
L 486.56534 358.054076 
L 486.861076 358.871216 
L 487.156813 358.586993 
L 487.452549 358.533702 
L 487.748285 358.80016 
L 488.339758 356.473088 
L 488.635494 356.988241 
L 488.93123 358.107368 
L 489.226967 357.911965 
L 489.522703 356.881658 
L 489.818439 355.353962 
L 490.114175 357.112589 
L 490.409912 356.597435 
L 490.705648 357.041533 
L 491.001384 357.16588 
L 491.29712 356.632963 
L 491.592857 353.34664 
L 491.888593 351.588012 
L 492.184329 350.717581 
L 492.480066 355.318434 
L 493.071538 348.497092 
L 493.663011 346.720701 
L 493.958747 347.004924 
L 494.254483 345.779214 
L 494.550219 345.690394 
L 494.845956 343.008044 
L 495.437428 340.467804 
L 495.733164 340.059235 
L 496.028901 339.135511 
L 496.91611 334.214908 
L 497.507582 331.958891 
L 497.803318 332.669448 
L 498.099055 332.95367 
L 498.394791 331.834544 
L 499.282 323.076936 
L 499.577736 321.193962 
L 499.873472 321.442656 
L 500.169209 320.163655 
L 500.464945 316.255594 
L 501.056417 312.098839 
L 502.239362 306.46768 
L 502.535099 303.216884 
L 502.830835 302.275397 
L 503.126571 302.38198 
L 503.422307 299.308824 
L 503.718044 297.994294 
L 504.605253 291.776926 
L 504.900989 289.361034 
L 505.196725 288.43731 
L 505.492461 285.328626 
L 505.788198 283.534471 
L 506.083934 282.504164 
L 506.37967 280.567898 
L 506.971143 274.794627 
L 507.266879 273.995251 
L 507.858351 269.554274 
L 508.154088 267.298257 
L 508.449824 263.692183 
L 508.74556 262.182251 
L 509.041297 262.200015 
L 510.224242 250.227139 
L 510.815714 246.816468 
L 511.11145 244.293993 
L 511.407187 243.032755 
L 511.998659 237.827929 
L 512.294395 236.01601 
L 512.885868 231.486213 
L 513.773077 224.078663 
L 514.068813 220.952214 
L 514.364549 220.188366 
L 514.956022 215.427638 
L 515.547494 211.466286 
L 515.843231 211.448522 
L 517.913385 194.679391 
L 518.209121 193.027347 
L 519.392066 183.399307 
L 519.983538 179.331372 
L 520.279275 179.082677 
L 521.166483 170.094138 
L 521.46222 169.561221 
L 522.053692 166.417009 
L 523.236637 154.621772 
L 523.532374 155.367856 
L 523.82811 154.24873 
L 524.123846 152.347992 
L 524.715319 146.414846 
L 525.011055 145.402303 
L 525.306791 142.684424 
L 525.602527 142.66666 
L 525.898264 140.268533 
L 526.194 136.71575 
L 526.489736 135.738735 
L 527.081209 132.416884 
L 527.376945 132.470176 
L 527.672681 131.635272 
L 527.968418 126.874544 
L 528.55989 122.735553 
L 528.855626 122.664497 
L 529.151363 123.250706 
L 529.447099 121.971705 
L 530.334308 113.942417 
L 530.630044 112.18379 
L 530.92578 111.117955 
L 531.221517 111.27783 
L 531.517253 109.838954 
L 532.108725 101.845194 
L 532.404462 101.862958 
L 532.700198 99.642469 
L 532.995934 100.19315 
L 533.29167 99.411538 
L 533.883143 95.503478 
L 534.178879 95.823228 
L 534.474615 94.348824 
L 535.066088 92.838891 
L 535.361824 90.582875 
L 535.657561 89.730207 
L 535.953297 89.552568 
L 536.249033 88.131455 
L 536.544769 87.722885 
L 536.840506 86.728106 
L 537.136242 86.3373 
L 537.431978 85.662271 
L 537.727714 82.891101 
L 538.023451 83.210852 
L 538.319187 82.322656 
L 538.614923 81.043655 
L 539.206396 81.487752 
L 539.502132 80.421918 
L 539.797868 81.452225 
L 540.093605 79.338319 
L 540.389341 78.627763 
L 540.980813 75.1638 
L 541.27655 75.057217 
L 541.572286 74.613119 
L 541.868022 75.305912 
L 542.163758 77.5264 
L 542.459495 76.655969 
L 543.050967 73.831507 
L 543.346703 73.671632 
L 543.64244 75.554606 
L 543.938176 75.678954 
L 544.233912 76.425038 
L 544.529649 74.097966 
L 544.825385 72.659089 
L 545.121121 73.334118 
L 545.416857 72.925548 
L 545.712594 72.907784 
L 546.00833 73.245298 
L 546.304066 72.250519 
L 546.599802 73.014367 
L 546.895539 71.486671 
L 547.191275 70.705059 
L 547.487011 71.451143 
L 547.782747 74.772994 
L 548.669956 73.689396 
L 548.965693 75.501315 
L 549.261429 78.556707 
L 549.557165 79.551486 
L 550.148638 79.391611 
L 550.444374 79.693598 
L 550.74011 79.711361 
L 551.035846 79.480431 
L 551.331583 80.830488 
L 551.627319 80.919307 
L 551.923055 84.667492 
L 552.218791 86.266244 
L 552.514528 85.751091 
L 552.810264 86.301772 
L 553.106 86.24848 
L 553.401737 88.966359 
L 553.697473 89.445984 
L 553.993209 90.156541 
L 554.288945 90.422999 
L 554.584682 93.034294 
L 555.176154 95.681117 
L 555.47189 95.077144 
L 555.767627 95.183728 
L 556.063363 96.320618 
L 556.359099 98.772037 
L 556.654836 100.157622 
L 557.246308 103.586057 
L 558.133517 109.199453 
L 558.429253 112.09497 
L 558.724989 112.521304 
L 559.020726 114.315459 
L 559.316462 113.498319 
L 560.795143 119.218298 
L 561.09088 121.563135 
L 561.386616 125.240264 
L 561.682352 125.400139 
L 561.978088 128.242365 
L 562.569561 130.480618 
L 563.45677 138.740836 
L 563.752506 142.489021 
L 564.048242 143.874606 
L 564.343978 146.645776 
L 564.639715 146.929999 
L 565.231187 152.063769 
L 565.526924 153.52041 
L 566.414132 160.430571 
L 566.709869 160.537154 
L 567.301341 165.901855 
L 567.892814 170.64482 
L 568.18855 172.19028 
L 569.075759 181.356458 
L 569.371495 182.440056 
L 569.667231 184.998059 
L 569.962968 184.891476 
L 570.258704 186.223769 
L 570.850176 192.49443 
L 571.441649 200.470425 
L 572.328858 204.378486 
L 572.624594 207.309531 
L 572.92033 208.553005 
L 573.511803 212.372245 
L 574.103275 216.759931 
L 574.399012 218.767253 
L 574.694748 222.320035 
L 574.990484 224.11419 
L 575.877693 232.338881 
L 576.173429 233.74223 
L 576.469165 237.295012 
L 576.764902 237.827929 
L 577.060638 239.124695 
L 577.947847 247.384913 
L 578.539319 252.714086 
L 578.835056 254.312838 
L 579.722264 262.76846 
L 580.018001 264.456031 
L 580.313737 265.202115 
L 580.609473 267.387076 
L 581.496682 276.695366 
L 582.975363 286.394461 
L 583.2711 286.962906 
L 583.862572 290.657799 
L 584.158308 294.086234 
L 585.045517 298.864726 
L 585.932726 305.313025 
L 586.228462 305.934762 
L 587.115671 310.180337 
L 587.411407 314.159453 
L 587.707144 315.029885 
L 588.00288 315.527274 
L 588.298616 317.001679 
L 588.594352 317.268137 
L 588.890089 319.257695 
L 589.481561 324.213826 
L 589.777297 324.711216 
L 590.664506 332.651684 
L 590.960242 333.468824 
L 591.551715 337.181481 
L 592.143188 336.915022 
L 592.438924 339.259859 
L 592.73466 340.201346 
L 593.326133 344.695615 
L 593.621869 345.441699 
L 593.917605 345.637102 
L 594.213341 347.573369 
L 594.804814 353.044653 
L 595.396286 354.359183 
L 595.692023 354.021668 
L 595.987759 355.034211 
L 596.283495 355.069739 
L 596.579232 355.478309 
L 596.874968 357.467867 
L 597.170704 358.07184 
L 597.762177 360.327856 
L 598.057913 359.226494 
L 598.353649 362.264123 
L 598.649385 362.157539 
L 598.945122 362.956915 
L 599.240858 363.312193 
L 599.536594 361.624622 
L 599.83233 365.195168 
L 600.128067 366.278767 
L 600.423803 369.192048 
L 600.719539 369.760493 
L 601.311012 366.900503 
L 601.606748 366.7051 
L 602.493957 375.516 
L 602.789693 372.993525 
L 603.085429 373.633025 
L 603.381166 371.92769 
L 603.676902 372.549427 
L 603.972638 372.886941 
L 604.268374 372.709302 
L 604.564111 371.51912 
L 604.859847 370.861855 
L 605.155583 372.549427 
L 605.45132 372.140857 
L 605.747056 370.968439 
L 606.042792 370.755272 
L 606.338528 370.932911 
L 606.634265 370.115771 
L 606.930001 370.417758 
L 607.225737 371.554648 
L 607.521473 371.750051 
L 607.81721 370.826328 
L 608.112946 371.323717 
L 608.408682 371.465828 
L 608.704418 370.808564 
L 609.000155 370.932911 
L 609.295891 370.364466 
L 609.591627 368.250561 
L 610.1831 366.882739 
L 610.478836 366.634045 
L 611.366045 360.274565 
L 611.957517 359.333077 
L 612.253254 358.160659 
L 612.844726 357.059297 
L 613.140462 357.556686 
L 613.436199 357.219172 
L 614.323408 352.742667 
L 614.619144 352.245277 
L 614.91488 349.935969 
L 615.210616 350.326775 
L 615.506353 349.474107 
L 615.802089 345.193005 
L 616.097825 344.891018 
L 616.393561 344.144934 
L 616.689298 344.500212 
L 617.576507 338.726941 
L 617.872243 335.422854 
L 618.463715 334.463603 
L 619.055188 330.129209 
L 619.350924 329.631819 
L 619.942397 323.894076 
L 620.238133 323.219047 
L 620.533869 322.099921 
L 621.421078 316.877331 
L 621.716814 315.012121 
L 622.012551 311.672505 
L 622.308287 310.731018 
L 622.604023 309.363197 
L 622.899759 306.858486 
L 623.491232 299.379879 
L 623.786968 297.710072 
L 624.082704 297.017279 
L 624.378441 294.246109 
L 624.674177 293.677664 
L 624.969913 290.924258 
L 625.265649 290.142646 
L 625.561386 289.893951 
L 626.152858 285.648376 
L 626.448595 281.065288 
L 626.744331 279.129021 
L 627.040067 275.629531 
L 627.63154 272.041221 
L 627.927276 270.833275 
L 628.223012 268.754898 
L 629.405957 257.119536 
L 629.99743 253.850977 
L 630.293166 252.678559 
L 630.884639 245.075605 
L 631.180375 243.796603 
L 631.476111 242.020212 
L 631.771847 239.035875 
L 632.067584 237.33054 
L 632.36332 233.315896 
L 632.659056 232.374409 
L 632.954792 231.965839 
L 633.250529 228.093306 
L 633.546265 226.299151 
L 634.433474 216.724404 
L 634.72921 216.191486 
L 635.024946 215.019068 
L 635.616419 211.288647 
L 636.207891 202.726442 
L 636.799364 199.599994 
L 637.0951 198.338756 
L 637.982309 190.913441 
L 638.278045 187.396187 
L 638.573781 185.335574 
L 638.869518 184.234211 
L 639.46099 181.374222 
L 640.348199 172.367919 
L 641.82688 162.97081 
L 642.122617 161.070072 
L 642.418353 160.164112 
L 643.305562 151.47756 
L 643.601298 148.262292 
L 643.897034 146.876707 
L 644.488507 145.260191 
L 645.079979 139.042823 
L 645.375716 137.692765 
L 645.671452 134.477498 
L 645.967188 134.015636 
L 646.558661 129.361491 
L 646.854397 127.869323 
L 647.150133 128.295657 
L 647.741606 126.004112 
L 648.924551 116.944518 
L 649.220287 115.647752 
L 649.516023 113.587139 
L 649.81176 115.185891 
L 650.107496 114.63521 
L 650.698968 110.922552 
L 650.994705 106.925672 
L 651.290441 106.339463 
L 651.586177 104.651892 
L 652.17765 100.28197 
L 652.473386 98.256884 
L 652.769122 97.546328 
L 653.064859 95.041616 
L 653.360595 94.899505 
L 653.656331 96.977882 
L 653.952067 93.602739 
L 654.247804 93.282989 
L 654.54354 92.483613 
L 654.839276 89.783499 
L 655.430749 90.174305 
L 655.726485 88.273566 
L 656.022221 88.166983 
L 656.613694 86.763634 
L 656.90943 84.898423 
L 657.500903 83.583894 
L 658.092375 79.853473 
L 658.388111 79.960056 
L 658.683848 80.741668 
L 658.979584 81.132474 
L 659.27532 79.107388 
L 659.571056 79.533722 
L 659.866793 78.681055 
L 660.162529 77.402053 
L 660.458265 77.20665 
L 660.754001 75.696718 
L 661.049738 75.1638 
L 661.345474 73.280826 
L 661.64121 72.516978 
L 661.936947 73.014367 
L 662.232683 71.628782 
L 662.528419 71.273504 
L 662.824155 71.930769 
L 663.119892 71.895241 
L 663.415628 73.049895 
L 663.711364 70.75835 
L 664.302837 72.07288 
L 664.598573 71.095865 
L 664.894309 71.468907 
L 665.190045 72.730145 
L 665.485782 72.978839 
L 665.781518 72.978839 
L 666.077254 72.605797 
L 666.668727 74.009146 
L 666.964463 74.311133 
L 667.260199 75.430259 
L 667.555936 77.277706 
L 667.851672 81.452225 
L 668.147408 81.629864 
L 668.443144 82.180545 
L 668.738881 83.050977 
L 669.034617 83.299671 
L 669.330353 83.193088 
L 669.626089 82.287128 
L 669.921826 82.677934 
L 670.217562 85.306993 
L 670.513298 85.182646 
L 670.809035 87.527482 
L 671.104771 86.284008 
L 671.400507 85.60898 
L 671.99198 89.481512 
L 672.287716 90.902625 
L 672.583452 91.0625 
L 672.879188 88.859775 
L 673.174925 89.694679 
L 674.062134 95.716645 
L 674.35787 95.610061 
L 674.653606 98.416759 
L 674.949342 97.990425 
L 675.245079 98.505579 
L 675.836551 101.774138 
L 676.132287 104.847295 
L 676.72376 107.334242 
L 677.315232 108.240202 
L 677.906705 112.130498 
L 678.498178 114.315459 
L 678.793914 114.706265 
L 679.385386 120.710467 
L 679.681123 122.753317 
L 679.976859 123.890207 
L 680.272595 123.854679 
L 680.864068 130.462854 
L 681.159804 131.510925 
L 681.45554 134.370914 
L 681.751276 135.188054 
L 682.047013 138.172391 
L 682.342749 138.545433 
L 682.638485 141.440951 
L 682.934222 145.455594 
L 683.229958 146.556957 
L 683.525694 149.683405 
L 683.82143 151.584144 
L 684.117167 151.317685 
L 684.412903 154.373077 
L 684.708639 154.888231 
L 685.595848 160.252932 
L 685.891584 165.066952 
L 686.18732 166.718995 
L 687.074529 178.443176 
L 687.370266 180.255095 
L 687.666002 180.432734 
L 688.257474 185.992838 
L 688.553211 186.277061 
L 688.848947 189.776551 
L 689.440419 192.032568 
L 690.031892 199.955272 
L 690.623364 207.060836 
L 690.919101 208.446421 
L 691.214837 208.890519 
L 691.80631 214.415095 
L 692.102046 217.186265 
L 693.284991 222.320035 
L 693.580727 222.906244 
L 694.467936 231.7882 
L 694.763672 233.600119 
L 695.355145 239.906307 
L 696.242354 248.912609 
L 696.53809 247.775719 
L 696.833826 248.930373 
L 697.129562 252.4121 
L 697.721035 256.799786 
L 698.608244 262.626348 
L 698.90398 266.854159 
L 699.199716 267.795646 
L 699.791189 273.675501 
L 700.086925 273.995251 
L 700.678398 279.857342 
L 701.26987 284.706889 
L 702.452815 291.084133 
L 703.044288 296.235667 
L 703.63576 298.562739 
L 704.227233 301.547076 
L 704.522969 305.543956 
L 704.818705 306.663083 
L 705.410178 310.766546 
L 705.705914 311.903436 
L 706.297387 316.699692 
L 706.593123 319.168876 
L 706.888859 319.968252 
L 707.480332 324.515813 
L 708.071804 325.741523 
L 708.959013 330.537778 
L 709.550486 332.207586 
L 709.846222 335.209687 
L 710.141958 335.636021 
L 710.733431 340.911902 
L 711.029167 341.409292 
L 711.324903 342.17314 
L 711.620639 342.244196 
L 711.916376 341.746806 
L 712.507848 345.015366 
L 712.803584 347.608897 
L 713.099321 346.720701 
L 713.98653 349.527399 
L 714.282266 351.428137 
L 714.578002 355.069739 
L 714.873738 356.100046 
L 715.169475 356.206629 
L 715.465211 354.821044 
L 715.760947 355.886879 
L 716.056683 357.858673 
L 716.35242 358.906744 
L 716.648156 359.173202 
L 716.943892 358.960035 
L 717.831101 364.324736 
L 718.126837 365.745849 
L 718.422574 366.189947 
L 718.71831 365.212932 
L 719.014046 365.461627 
L 719.309782 366.154419 
L 719.605519 368.392672 
L 719.901255 366.047836 
L 720.196991 365.603738 
L 720.492727 365.408335 
L 720.788464 364.662251 
L 721.0842 364.3425 
L 721.379936 366.047836 
L 721.675672 368.961117 
L 721.971409 369.085464 
L 722.267145 368.517019 
L 722.562881 368.392672 
L 722.858618 367.735407 
L 723.45009 371.803343 
L 724.041563 369.813785 
L 724.337299 369.671673 
L 724.633035 369.032173 
L 724.928771 369.813785 
L 725.520244 370.613161 
L 725.81598 368.143977 
L 726.111716 367.984102 
L 726.407453 367.273546 
L 726.703189 367.682115 
L 726.998925 367.895282 
L 727.294662 366.030072 
L 727.590398 365.461627 
L 727.886134 365.372807 
L 728.18187 364.182625 
L 728.477607 363.454305 
L 729.069079 363.543124 
L 729.364815 361.198288 
L 729.660552 359.990342 
L 730.252024 361.926608 
L 731.139233 358.338298 
L 731.730706 355.318434 
L 732.026442 354.412474 
L 732.322178 352.565028 
L 732.617914 352.547264 
L 732.913651 352.973598 
L 733.209387 352.263041 
L 733.505123 350.89522 
L 734.096596 346.933868 
L 734.392332 346.614118 
L 734.983805 343.914003 
L 735.575277 338.389427 
L 735.871013 335.458382 
L 736.16675 335.653785 
L 736.462486 334.374783 
L 737.053958 333.006962 
L 737.349695 331.248335 
L 737.645431 327.802136 
L 737.941167 326.007981 
L 738.236903 326.292204 
L 738.53264 325.848106 
L 739.124112 320.607752 
L 739.419849 319.009001 
L 740.011321 314.550259 
L 740.89853 308.42171 
L 741.194266 306.769666 
L 741.490002 303.430051 
L 742.081475 300.356894 
L 742.377211 297.33703 
L 742.672947 296.0225 
L 743.26442 289.627492 
L 743.560156 288.010977 
L 743.855893 288.170852 
L 744.447365 283.427888 
L 745.334574 273.870904 
L 745.63031 273.195875 
L 745.926046 273.071528 
L 747.404728 260.72561 
L 747.700464 261.063124 
L 747.9962 259.730831 
L 748.291937 257.261647 
L 748.883409 249.711985 
L 749.179145 247.225038 
L 749.474882 245.928272 
L 750.953563 234.648189 
L 751.249299 231.575033 
L 752.136508 226.530082 
L 752.727981 220.508116 
L 753.615189 214.130873 
L 755.389607 200.488189 
L 755.685343 199.9908 
L 756.572552 189.776551 
L 756.868288 188.781772 
L 757.164025 186.507992 
L 758.051233 176.258215 
L 758.34697 174.996978 
L 758.642706 174.979214 
L 758.938442 174.019963 
L 759.529915 168.317747 
L 759.825651 167.038746 
L 760.71286 160.128585 
L 761.008596 159.435792 
L 761.600069 152.401283 
L 761.895805 150.518309 
L 762.191541 149.985392 
L 762.783014 144.79833 
L 763.07875 142.773244 
L 763.374486 137.266432 
L 763.670222 135.312401 
L 763.965959 134.477498 
L 764.853167 129.983228 
L 765.148904 129.752297 
L 765.44464 126.927836 
L 765.740376 125.71989 
L 766.331849 122.984248 
L 766.923321 116.90899 
L 767.219058 117.424144 
L 767.514794 114.54639 
L 767.81053 113.675958 
L 768.106266 113.231861 
L 768.402003 111.757456 
L 768.697739 109.536967 
L 769.289211 103.834752 
L 769.584948 104.492017 
L 769.880684 104.367669 
L 770.472157 99.891164 
L 770.767893 99.340483 
L 771.063629 99.216135 
L 771.950838 94.402115 
L 772.246574 93.265225 
L 772.54231 93.123114 
L 772.838047 93.158642 
L 773.429519 91.133556 
L 773.725255 88.984123 
L 774.020992 87.847232 
L 774.316728 87.509718 
L 774.908201 84.010228 
L 775.203937 83.370727 
L 775.499673 83.406255 
L 775.795409 82.784518 
L 776.091146 80.510737 
L 776.386882 79.196208 
L 776.682618 80.315334 
L 776.978354 80.492973 
L 777.569827 77.046775 
L 777.865563 77.242178 
L 778.161299 76.531621 
L 778.457036 75.092745 
L 778.752772 76.105288 
L 779.344245 72.712381 
L 779.639981 72.126172 
L 780.231453 72.978839 
L 780.52719 74.915106 
L 780.822926 73.902563 
L 781.118662 74.43548 
L 781.710135 70.882698 
L 782.005871 71.078101 
L 782.301607 71.788657 
L 782.597343 71.930769 
L 782.89308 71.930769 
L 783.188816 72.783436 
L 783.780289 73.334118 
L 784.076025 74.382188 
L 784.371761 73.351881 
L 784.667497 74.968397 
L 784.963234 74.02691 
L 785.25897 74.009146 
L 785.554706 75.057217 
L 785.850442 74.968397 
L 786.441915 77.313233 
L 786.737651 79.142916 
L 787.033387 79.320555 
L 787.329124 77.810623 
L 787.62486 79.853473 
L 787.920596 84.649729 
L 788.216333 83.939172 
L 788.512069 82.677934 
L 788.807805 85.11159 
L 789.103541 83.939172 
L 789.695014 86.887981 
L 789.99075 87.047856 
L 790.286486 86.763634 
L 790.582223 86.994565 
L 791.173695 90.476291 
L 791.469432 92.643488 
L 791.765168 93.584976 
L 792.060904 93.673795 
L 792.652377 96.107451 
L 792.948113 97.652911 
L 793.243849 100.104331 
L 793.539585 100.850415 
L 794.131058 103.177487 
L 794.426794 103.035376 
L 795.314003 108.27573 
L 795.905476 110.371871 
L 796.496948 115.68328 
L 797.088421 118.028116 
L 797.384157 118.365631 
L 797.679893 118.507742 
L 798.862838 128.40224 
L 799.158574 129.397019 
L 800.045783 135.525568 
L 800.637256 141.956104 
L 801.228728 143.199578 
L 801.524465 144.70951 
L 801.820201 145.579942 
L 802.115937 147.871486 
L 802.411673 152.010477 
L 802.70741 153.84016 
L 803.003146 154.195438 
L 803.890355 160.590446 
L 804.777564 168.761845 
L 805.0733 170.857986 
L 805.369036 171.319848 
L 806.256245 182.013722 
L 807.43919 188.550841 
L 808.030662 193.933306 
L 808.326399 195.247836 
L 808.917871 199.49341 
L 809.213608 203.667929 
L 809.509344 205.586432 
L 810.100816 210.631382 
L 810.396553 212.052495 
L 810.692289 215.907264 
L 810.988025 217.736946 
L 811.579498 223.776676 
L 812.17097 227.116291 
L 812.466706 227.524861 
L 813.945388 240.972141 
L 814.241124 241.611642 
L 814.832597 246.070384 
L 815.719805 255.964882 
L 816.015542 256.604383 
L 816.607014 260.601263 
L 816.90275 263.781003 
L 817.198487 265.113296 
L 817.494223 267.031798 
L 817.789959 267.991049 
L 818.085696 270.531289 
L 818.677168 278.400701 
L 818.972904 279.910633 
L 819.268641 283.196957 
L 819.564377 285.044404 
L 819.860113 285.239807 
L 820.155849 287.282656 
L 820.451586 291.990093 
L 820.747322 294.050706 
L 821.043058 294.032942 
L 821.338794 294.654679 
L 821.634531 295.578402 
L 821.930267 298.509448 
L 822.226003 300.197019 
L 822.52174 303.341231 
L 823.113212 306.716374 
L 823.408948 308.066432 
L 823.704685 308.546057 
L 824.296157 313.928522 
L 824.88763 317.14379 
L 825.183366 315.314107 
L 825.774838 320.430113 
L 826.070575 324.018423 
L 826.366311 324.036187 
L 826.662047 324.977674 
L 827.25352 328.281762 
L 828.140729 336.719619 
L 828.436465 336.275522 
L 828.732201 335.049812 
L 829.027937 337.03937 
L 829.323674 340.680971 
L 830.210882 345.441699 
L 830.802355 344.322573 
L 831.098091 345.246296 
L 831.393828 346.845048 
L 831.689564 346.738465 
L 831.9853 347.093743 
L 832.576773 348.390509 
L 833.168245 355.353962 
L 833.463981 354.643405 
L 833.759718 354.749989 
L 834.055454 356.224393 
L 834.646926 356.686255 
L 834.942663 355.567128 
L 835.238399 355.922407 
L 835.534135 357.2547 
L 835.829872 355.602656 
L 836.125608 355.069739 
L 837.012817 360.132453 
L 837.308553 360.84301 
L 837.604289 361.056177 
L 837.900025 360.807482 
L 838.195762 360.079162 
L 839.08297 366.722864 
L 839.378707 364.271445 
L 839.674443 365.15964 
L 839.970179 365.177404 
L 840.265916 366.314294 
L 840.561652 367.984102 
L 840.857388 367.93081 
L 841.153124 368.037394 
L 841.744597 365.070821 
L 842.040333 364.324736 
L 842.631806 363.365485 
L 842.927542 364.910945 
L 843.223278 364.306972 
L 843.519014 364.555667 
L 843.814751 363.774055 
L 844.406223 365.56821 
L 844.70196 364.537903 
L 844.997696 362.814804 
L 845.293432 362.050956 
L 845.589168 360.612079 
L 846.180641 363.11679 
L 846.476377 360.949593 
L 846.772113 361.038413 
L 847.06785 360.825246 
L 847.363586 359.901523 
L 847.659322 359.865995 
L 847.955058 359.581772 
L 848.250795 359.70612 
L 849.138004 354.998683 
L 849.43374 354.021668 
L 849.729476 354.199307 
L 850.025212 355.087503 
L 850.912421 349.616218 
L 851.208157 348.177342 
L 851.503894 345.796978 
L 851.79963 344.85549 
L 852.095366 344.553504 
L 852.686839 341.462583 
L 852.982575 342.066556 
L 853.278311 340.485568 
L 853.869784 339.242095 
L 854.461256 333.273421 
L 854.756993 332.95367 
L 855.052729 333.77081 
L 855.348465 332.296406 
L 855.644201 329.276541 
L 855.939938 327.962011 
L 856.827147 322.135449 
L 857.122883 321.513712 
L 857.418619 320.589989 
L 858.305828 314.212745 
L 858.601564 311.121824 
L 858.8973 309.540836 
L 859.193037 309.665184 
L 859.488773 308.546057 
L 859.784509 306.112401 
L 861.558927 296.999515 
L 862.150399 292.487482 
L 862.446136 291.563759 
L 862.741872 292.718413 
L 863.924817 283.39236 
L 864.220553 282.415345 
L 864.516289 282.735095 
L 865.699235 273.053764 
L 865.994971 268.044341 
L 866.290707 267.191673 
L 867.177916 256.995189 
L 868.065125 252.73185 
L 868.360861 250.227139 
L 868.656597 248.859318 
L 869.24807 242.020212 
L 869.543806 240.865558 
L 869.839542 240.794502 
L 870.135279 238.680597 
L 870.726751 231.841491 
L 871.318224 225.819526 
L 871.61396 225.108969 
L 873.388377 209.796478 
L 873.684114 208.854991 
L 873.97985 206.900961 
L 874.275586 201.554024 
L 874.867059 195.407711 
L 875.162795 195.851809 
L 876.050004 187.982396 
L 876.641476 182.493348 
L 876.937213 179.526775 
L 877.232949 179.27808 
L 878.415894 167.145329 
L 878.71163 163.37938 
L 879.007367 163.432672 
L 879.303103 162.686588 
L 879.598839 158.636416 
L 880.486048 151.317685 
L 880.781784 150.536073 
L 881.373257 146.521429 
L 881.668993 145.775345 
L 881.964729 142.684424 
L 882.260465 141.298839 
L 882.556202 138.687544 
L 882.851938 134.584081 
L 883.443411 132.114898 
L 883.739147 127.67392 
L 884.034883 127.389697 
L 884.922092 119.662396 
L 885.217828 118.099172 
L 885.809301 112.361429 
L 886.105037 112.894346 
L 886.400773 112.734471 
L 886.400773 112.734471 
" style="fill:none;stroke:#1f77b4;stroke-linecap:square;stroke-width:1.5;"/>
   </g>
   <g id="line2d_16">
    <path clip-path="url(#p7925f8989d)" d="M 164.508545 322.361703 
L 166.874436 307.942938 
L 169.240326 291.994574 
L 172.197688 270.332994 
L 175.746524 242.589983 
L 185.801557 162.903796 
L 188.758919 141.781631 
L 191.124809 126.388499 
L 193.4907 112.624582 
L 195.265117 103.516063 
L 197.039535 95.548549 
L 198.813952 88.800067 
L 199.996897 85.011467 
L 201.179843 81.810787 
L 202.362788 79.211965 
L 203.545733 77.226318 
L 204.728678 75.86249 
L 205.32015 75.415722 
L 205.911623 75.126422 
L 206.503095 74.994907 
L 207.094568 75.021319 
L 207.68604 75.205629 
L 208.277513 75.547637 
L 208.868986 76.04697 
L 210.051931 77.515268 
L 211.234876 79.604127 
L 212.417821 82.304453 
L 213.600766 85.604488 
L 214.783711 89.48986 
L 216.558128 96.37774 
L 218.332546 104.476532 
L 220.106964 113.706924 
L 221.881381 123.978523 
L 224.247271 139.118437 
L 226.613162 155.666082 
L 229.570524 177.889721 
L 234.302304 215.565089 
L 240.808502 267.33323 
L 243.765865 289.211623 
L 246.131755 305.388218 
L 248.497645 320.079663 
L 250.272063 329.968751 
L 252.04648 338.781194 
L 253.820898 346.430692 
L 255.595316 352.842334 
L 256.778261 356.397539 
L 257.961206 359.358935 
L 259.144151 361.713629 
L 260.327096 363.451366 
L 261.510041 364.56458 
L 262.101514 364.885368 
L 262.692986 365.048423 
L 263.284459 365.053564 
L 263.875931 364.900788 
L 264.467404 364.59026 
L 265.058876 364.122319 
L 266.241821 362.716405 
L 267.424766 360.689168 
L 268.607711 358.049435 
L 269.790657 354.808702 
L 270.973602 350.981078 
L 272.156547 346.583233 
L 273.930964 338.959847 
L 275.705382 330.171766 
L 277.479799 320.305053 
L 279.84569 305.639972 
L 282.21158 289.485362 
L 285.168942 267.627715 
L 289.30925 234.994918 
L 297.589866 169.119917 
L 300.547228 147.503481 
L 302.913118 131.602237 
L 305.279009 117.239496 
L 307.053426 107.628542 
L 308.827844 99.11832 
L 310.602261 91.792171 
L 311.785206 87.601819 
L 312.968151 83.988108 
L 314.151097 80.966774 
L 315.334042 78.550973 
L 316.516987 76.751224 
L 317.699932 75.575365 
L 318.291404 75.2231 
L 318.882877 75.028514 
L 319.474349 74.991819 
L 320.065822 75.113055 
L 320.657294 75.392089 
L 321.248767 75.828618 
L 322.431712 77.172088 
L 323.614657 79.137614 
L 324.797602 81.716639 
L 325.980547 84.897931 
L 327.163492 88.667638 
L 328.346437 93.009345 
L 330.120855 100.55239 
L 331.895273 109.265463 
L 333.66969 119.063239 
L 336.03558 133.647001 
L 338.40147 149.733691 
L 341.358833 171.527052 
L 345.499141 204.111286 
L 353.779756 270.040587 
L 356.737119 291.72384 
L 359.103009 307.694872 
L 361.468899 322.140622 
L 363.243317 331.821648 
L 365.017734 340.407884 
L 366.792152 347.815245 
L 368.56657 353.971191 
L 369.749515 357.349631 
L 370.93246 360.130117 
L 372.115405 362.300541 
L 373.29835 363.851454 
L 373.889822 364.392377 
L 374.481295 364.776101 
L 375.072768 365.00221 
L 375.66424 365.070457 
L 376.255713 364.980767 
L 376.847185 364.733238 
L 377.438658 364.328141 
L 378.03013 363.765915 
L 379.213075 362.172699 
L 380.39602 359.960527 
L 381.578965 357.139033 
L 382.761911 353.720502 
L 383.944856 349.71982 
L 385.719273 342.666046 
L 387.493691 334.411283 
L 389.268108 325.036369 
L 391.042526 314.633113 
L 393.408416 299.339877 
L 395.774306 282.666725 
L 398.731669 260.328595 
L 403.463449 222.574712 
L 409.378175 175.444611 
L 412.335537 153.380006 
L 414.701427 137.004563 
L 417.067317 122.073629 
L 418.841735 111.980737 
L 420.616153 102.945957 
L 422.39057 95.057765 
L 424.164988 88.393411 
L 425.347933 84.663161 
L 426.530878 81.522349 
L 427.713823 78.98465 
L 428.896768 77.061115 
L 430.079713 75.76012 
L 430.671186 75.344952 
L 431.262658 75.08733 
L 431.854131 74.987535 
L 432.445603 75.045675 
L 433.037076 75.261687 
L 433.628548 75.635335 
L 434.220021 76.166214 
L 435.402966 77.697177 
L 436.585911 79.847911 
L 437.768856 82.60905 
L 438.951801 85.968571 
L 440.134746 89.911845 
L 441.909164 96.883054 
L 443.683582 105.060227 
L 445.457999 114.363284 
L 447.232417 124.70112 
L 449.598307 139.918241 
L 451.964197 156.529177 
L 454.92156 178.810707 
L 459.65334 216.526266 
L 465.568065 263.70149 
L 468.525428 285.826251 
L 470.891318 302.266557 
L 473.257208 317.276027 
L 475.031626 327.43598 
L 476.806043 336.544092 
L 478.580461 344.511167 
L 480.354879 351.259184 
L 481.537824 355.047461 
L 482.720769 358.247809 
L 483.903714 360.846293 
L 485.086659 362.831597 
L 486.269604 364.195076 
L 486.861076 364.64167 
L 487.452549 364.930794 
L 488.044022 365.062133 
L 488.635494 365.035546 
L 489.226967 364.85106 
L 489.818439 364.508876 
L 490.409912 364.009368 
L 491.592857 362.540724 
L 492.775802 360.451521 
L 493.958747 357.750857 
L 495.141692 354.450493 
L 496.324637 350.564799 
L 498.099055 343.676456 
L 499.873472 335.577229 
L 501.64789 326.346434 
L 503.422307 316.074467 
L 505.788198 300.934123 
L 508.154088 284.386125 
L 511.11145 262.162163 
L 515.843231 224.486568 
L 522.349429 172.718715 
L 525.306791 150.840676 
L 527.672681 134.664457 
L 530.038571 119.973462 
L 531.812989 110.084756 
L 533.587407 101.272729 
L 535.361824 93.623677 
L 537.136242 87.212507 
L 538.319187 83.657628 
L 539.502132 80.696566 
L 540.685077 78.342213 
L 541.868022 76.604822 
L 543.050967 75.491958 
L 543.64244 75.171344 
L 544.233912 75.008466 
L 544.825385 75.0035 
L 545.416857 75.156452 
L 546.00833 75.467155 
L 546.599802 75.935271 
L 547.782747 77.341533 
L 548.965693 79.369114 
L 550.148638 82.009184 
L 551.331583 85.250249 
L 552.514528 89.078194 
L 553.697473 93.476352 
L 555.47189 101.100185 
L 557.246308 109.888682 
L 559.020726 119.755778 
L 561.386616 134.42131 
L 563.752506 150.576297 
L 566.709869 172.4343 
L 570.850176 205.067363 
L 579.130792 270.942054 
L 582.088154 292.558114 
L 584.454045 308.458968 
L 586.819935 322.821244 
L 588.594352 332.431807 
L 590.36877 340.941604 
L 592.143188 348.2673 
L 593.326133 352.457336 
L 594.509078 356.070721 
L 595.692023 359.091722 
L 596.874968 361.507183 
L 598.057913 363.306586 
L 599.240858 364.482097 
L 599.83233 364.834186 
L 600.423803 365.028596 
L 601.015276 365.065115 
L 601.606748 364.943704 
L 602.198221 364.664494 
L 602.789693 364.22779 
L 603.972638 362.883972 
L 605.155583 360.918102 
L 606.338528 358.338739 
L 607.521473 355.157115 
L 608.704418 351.387085 
L 609.887364 347.045064 
L 611.661781 339.501571 
L 613.436199 330.788079 
L 615.210616 320.989918 
L 617.576507 306.405701 
L 619.942397 290.318631 
L 622.899759 268.524909 
L 627.040067 235.9404 
L 635.320683 170.011394 
L 638.278045 148.328511 
L 640.643935 132.357866 
L 643.009825 117.912577 
L 644.784243 108.23194 
L 646.558661 99.646126 
L 648.333078 92.239216 
L 650.107496 86.083747 
L 651.290441 82.705636 
L 652.473386 79.925486 
L 653.656331 77.755404 
L 654.839276 76.204838 
L 655.430749 75.664091 
L 656.022221 75.280541 
L 656.613694 75.054608 
L 657.205166 74.986537 
L 657.796639 75.076403 
L 658.388111 75.324107 
L 658.979584 75.729379 
L 659.571056 76.29178 
L 660.754001 77.885342 
L 661.936947 80.097856 
L 663.119892 82.919686 
L 664.302837 86.338546 
L 665.485782 90.339547 
L 667.260199 97.393781 
L 669.034617 105.648975 
L 670.809035 115.024288 
L 672.583452 125.427907 
L 674.949342 140.721565 
L 677.315232 157.395062 
L 680.272595 179.733505 
L 685.004375 217.487597 
L 690.919101 264.617441 
L 693.876463 286.681708 
L 696.242354 303.056788 
L 698.608244 317.987282 
L 700.382661 328.079799 
L 702.157079 337.11417 
L 703.931496 345.001921 
L 705.705914 351.665807 
L 706.888859 355.395734 
L 708.071804 358.536214 
L 709.254749 361.073574 
L 710.437694 362.996764 
L 711.620639 364.297411 
L 712.212112 364.712404 
L 712.803584 364.96985 
L 713.395057 365.06947 
L 713.98653 365.011154 
L 714.578002 364.794967 
L 715.169475 364.421143 
L 715.760947 363.89009 
L 716.943892 362.358779 
L 718.126837 360.207703 
L 719.309782 357.446227 
L 720.492727 354.086377 
L 721.675672 350.142783 
L 723.45009 343.171112 
L 725.224508 334.993506 
L 726.998925 325.690048 
L 728.773343 315.351846 
L 731.139233 300.1343 
L 733.505123 283.523015 
L 736.462486 261.241167 
L 741.194266 223.52539 
L 747.108991 176.350411 
L 750.066354 154.225983 
L 752.432244 137.786036 
L 754.798134 122.777002 
L 756.572552 112.617421 
L 758.34697 103.509717 
L 760.121387 95.54308 
L 761.895805 88.795529 
L 763.07875 85.007575 
L 764.261695 81.807558 
L 765.44464 79.209412 
L 766.627585 77.224453 
L 767.81053 75.861321 
L 768.402003 75.414903 
L 768.993475 75.125954 
L 769.584948 74.99479 
L 770.17642 75.021554 
L 770.767893 75.206215 
L 771.359365 75.548574 
L 771.950838 76.048257 
L 773.133783 77.517249 
L 774.316728 79.606795 
L 775.499673 82.307796 
L 776.682618 85.60849 
L 777.865563 89.494505 
L 779.639981 96.38331 
L 781.414398 104.482973 
L 783.188816 113.714172 
L 784.963234 123.986507 
L 787.329124 139.127281 
L 789.695014 155.675631 
L 792.652377 177.899917 
L 797.384157 215.575739 
L 803.890355 267.343303 
L 806.847717 289.220988 
L 809.213608 305.396832 
L 811.579498 320.087377 
L 813.353915 329.975701 
L 815.128333 338.787312 
L 816.90275 346.435918 
L 818.677168 352.846616 
L 819.860113 356.401168 
L 821.043058 359.361896 
L 822.226003 361.715908 
L 823.408948 363.452953 
L 824.591893 364.565469 
L 825.183366 364.885907 
L 825.774838 365.048609 
L 826.366311 365.0534 
L 826.957784 364.900272 
L 827.549256 364.589393 
L 828.140729 364.121102 
L 829.323674 362.714492 
L 830.506619 360.686568 
L 831.689564 358.04616 
L 832.872509 354.804764 
L 834.055454 350.976497 
L 835.238399 346.578027 
L 837.012817 338.953747 
L 838.787234 330.164833 
L 840.561652 320.297354 
L 842.927542 305.631371 
L 845.293432 289.476007 
L 848.250795 267.617649 
L 852.391103 234.98432 
L 860.671718 169.10994 
L 863.629081 147.494254 
L 865.994971 131.593791 
L 868.360861 117.231979 
L 870.135279 107.621808 
L 871.909696 99.112435 
L 873.684114 91.787193 
L 874.867059 87.597473 
L 876.050004 83.984413 
L 877.232949 80.963746 
L 878.415894 78.548625 
L 879.598839 76.749567 
L 880.781784 75.574405 
L 881.373257 75.222492 
L 881.964729 75.028257 
L 882.556202 74.991914 
L 883.147674 75.113501 
L 883.739147 75.392886 
L 884.330619 75.829765 
L 885.513564 77.173931 
L 886.696509 79.140146 
L 887.879455 81.719847 
L 887.879455 81.719847 
" style="fill:none;stroke:#ff7f0e;stroke-linecap:square;stroke-width:1.5;"/>
   </g>
   <g id="patch_3">
    <path d="M 128.34 390.888 
L 128.34 52.704 
" style="fill:none;stroke:#000000;stroke-linecap:square;stroke-linejoin:miter;stroke-width:0.8;"/>
   </g>
   <g id="patch_4">
    <path d="M 924.048 390.888 
L 924.048 52.704 
" style="fill:none;stroke:#000000;stroke-linecap:square;stroke-linejoin:miter;stroke-width:0.8;"/>
   </g>
   <g id="patch_5">
    <path d="M 128.34 390.888 
L 924.048 390.888 
" style="fill:none;stroke:#000000;stroke-linecap:square;stroke-linejoin:miter;stroke-width:0.8;"/>
   </g>
   <g id="patch_6">
    <path d="M 128.34 52.704 
L 924.048 52.704 
" style="fill:none;stroke:#000000;stroke-linecap:square;stroke-linejoin:miter;stroke-width:0.8;"/>
   </g>
   <g id="text_16">
    <!-- Sinus fit on resonance -->
    <defs>
     <path d="M 53.515625 70.515625 
L 53.515625 60.890625 
Q 47.90625 63.578125 42.921875 64.890625 
Q 37.9375 66.21875 33.296875 66.21875 
Q 25.25 66.21875 20.875 63.09375 
Q 16.5 59.96875 16.5 54.203125 
Q 16.5 49.359375 19.40625 46.890625 
Q 22.3125 44.4375 30.421875 42.921875 
L 36.375 41.703125 
Q 47.40625 39.59375 52.65625 34.296875 
Q 57.90625 29 57.90625 20.125 
Q 57.90625 9.515625 50.796875 4.046875 
Q 43.703125 -1.421875 29.984375 -1.421875 
Q 24.8125 -1.421875 18.96875 -0.25 
Q 13.140625 0.921875 6.890625 3.21875 
L 6.890625 13.375 
Q 12.890625 10.015625 18.65625 8.296875 
Q 24.421875 6.59375 29.984375 6.59375 
Q 38.421875 6.59375 43.015625 9.90625 
Q 47.609375 13.234375 47.609375 19.390625 
Q 47.609375 24.75 44.3125 27.78125 
Q 41.015625 30.8125 33.5 32.328125 
L 27.484375 33.5 
Q 16.453125 35.6875 11.515625 40.375 
Q 6.59375 45.0625 6.59375 53.421875 
Q 6.59375 63.09375 13.40625 68.65625 
Q 20.21875 74.21875 32.171875 74.21875 
Q 37.3125 74.21875 42.625 73.28125 
Q 47.953125 72.359375 53.515625 70.515625 
z
" id="DejaVuSans-53"/>
     <path d="M 9.421875 54.6875 
L 18.40625 54.6875 
L 18.40625 0 
L 9.421875 0 
z
M 9.421875 75.984375 
L 18.40625 75.984375 
L 18.40625 64.59375 
L 9.421875 64.59375 
z
" id="DejaVuSans-69"/>
     <path d="M 54.890625 33.015625 
L 54.890625 0 
L 45.90625 0 
L 45.90625 32.71875 
Q 45.90625 40.484375 42.875 44.328125 
Q 39.84375 48.1875 33.796875 48.1875 
Q 26.515625 48.1875 22.3125 43.546875 
Q 18.109375 38.921875 18.109375 30.90625 
L 18.109375 0 
L 9.078125 0 
L 9.078125 54.6875 
L 18.109375 54.6875 
L 18.109375 46.1875 
Q 21.34375 51.125 25.703125 53.5625 
Q 30.078125 56 35.796875 56 
Q 45.21875 56 50.046875 50.171875 
Q 54.890625 44.34375 54.890625 33.015625 
z
" id="DejaVuSans-6e"/>
     <path d="M 8.5 21.578125 
L 8.5 54.6875 
L 17.484375 54.6875 
L 17.484375 21.921875 
Q 17.484375 14.15625 20.5 10.265625 
Q 23.53125 6.390625 29.59375 6.390625 
Q 36.859375 6.390625 41.078125 11.03125 
Q 45.3125 15.671875 45.3125 23.6875 
L 45.3125 54.6875 
L 54.296875 54.6875 
L 54.296875 0 
L 45.3125 0 
L 45.3125 8.40625 
Q 42.046875 3.421875 37.71875 1 
Q 33.40625 -1.421875 27.6875 -1.421875 
Q 18.265625 -1.421875 13.375 4.4375 
Q 8.5 10.296875 8.5 21.578125 
z
M 31.109375 56 
z
" id="DejaVuSans-75"/>
     <path d="M 44.28125 53.078125 
L 44.28125 44.578125 
Q 40.484375 46.53125 36.375 47.5 
Q 32.28125 48.484375 27.875 48.484375 
Q 21.1875 48.484375 17.84375 46.4375 
Q 14.5 44.390625 14.5 40.28125 
Q 14.5 37.15625 16.890625 35.375 
Q 19.28125 33.59375 26.515625 31.984375 
L 29.59375 31.296875 
Q 39.15625 29.25 43.1875 25.515625 
Q 47.21875 21.78125 47.21875 15.09375 
Q 47.21875 7.46875 41.1875 3.015625 
Q 35.15625 -1.421875 24.609375 -1.421875 
Q 20.21875 -1.421875 15.453125 -0.5625 
Q 10.6875 0.296875 5.421875 2 
L 5.421875 11.28125 
Q 10.40625 8.6875 15.234375 7.390625 
Q 20.0625 6.109375 24.8125 6.109375 
Q 31.15625 6.109375 34.5625 8.28125 
Q 37.984375 10.453125 37.984375 14.40625 
Q 37.984375 18.0625 35.515625 20.015625 
Q 33.0625 21.96875 24.703125 23.78125 
L 21.578125 24.515625 
Q 13.234375 26.265625 9.515625 29.90625 
Q 5.8125 33.546875 5.8125 39.890625 
Q 5.8125 47.609375 11.28125 51.796875 
Q 16.75 56 26.8125 56 
Q 31.78125 56 36.171875 55.265625 
Q 40.578125 54.546875 44.28125 53.078125 
z
" id="DejaVuSans-73"/>
     <path id="DejaVuSans-20"/>
     <path d="M 37.109375 75.984375 
L 37.109375 68.5 
L 28.515625 68.5 
Q 23.6875 68.5 21.796875 66.546875 
Q 19.921875 64.59375 19.921875 59.515625 
L 19.921875 54.6875 
L 34.71875 54.6875 
L 34.71875 47.703125 
L 19.921875 47.703125 
L 19.921875 0 
L 10.890625 0 
L 10.890625 47.703125 
L 2.296875 47.703125 
L 2.296875 54.6875 
L 10.890625 54.6875 
L 10.890625 58.5 
Q 10.890625 67.625 15.140625 71.796875 
Q 19.390625 75.984375 28.609375 75.984375 
z
" id="DejaVuSans-66"/>
     <path d="M 41.109375 46.296875 
Q 39.59375 47.171875 37.8125 47.578125 
Q 36.03125 48 33.890625 48 
Q 26.265625 48 22.1875 43.046875 
Q 18.109375 38.09375 18.109375 28.8125 
L 18.109375 0 
L 9.078125 0 
L 9.078125 54.6875 
L 18.109375 54.6875 
L 18.109375 46.1875 
Q 20.953125 51.171875 25.484375 53.578125 
Q 30.03125 56 36.53125 56 
Q 37.453125 56 38.578125 55.875 
Q 39.703125 55.765625 41.0625 55.515625 
z
" id="DejaVuSans-72"/>
     <path d="M 48.78125 52.59375 
L 48.78125 44.1875 
Q 44.96875 46.296875 41.140625 47.34375 
Q 37.3125 48.390625 33.40625 48.390625 
Q 24.65625 48.390625 19.8125 42.84375 
Q 14.984375 37.3125 14.984375 27.296875 
Q 14.984375 17.28125 19.8125 11.734375 
Q 24.65625 6.203125 33.40625 6.203125 
Q 37.3125 6.203125 41.140625 7.25 
Q 44.96875 8.296875 48.78125 10.40625 
L 48.78125 2.09375 
Q 45.015625 0.34375 40.984375 -0.53125 
Q 36.96875 -1.421875 32.421875 -1.421875 
Q 20.0625 -1.421875 12.78125 6.34375 
Q 5.515625 14.109375 5.515625 27.296875 
Q 5.515625 40.671875 12.859375 48.328125 
Q 20.21875 56 33.015625 56 
Q 37.15625 56 41.109375 55.140625 
Q 45.0625 54.296875 48.78125 52.59375 
z
" id="DejaVuSans-63"/>
    </defs>
    <g transform="translate(459.435562 46.704)scale(0.12 -0.12)">
     <use xlink:href="#DejaVuSans-53"/>
     <use x="63.476562" xlink:href="#DejaVuSans-69"/>
     <use x="91.259766" xlink:href="#DejaVuSans-6e"/>
     <use x="154.638672" xlink:href="#DejaVuSans-75"/>
     <use x="218.017578" xlink:href="#DejaVuSans-73"/>
     <use x="270.117188" xlink:href="#DejaVuSans-20"/>
     <use x="301.904297" xlink:href="#DejaVuSans-66"/>
     <use x="337.109375" xlink:href="#DejaVuSans-69"/>
     <use x="364.892578" xlink:href="#DejaVuSans-74"/>
     <use x="404.101562" xlink:href="#DejaVuSans-20"/>
     <use x="435.888672" xlink:href="#DejaVuSans-6f"/>
     <use x="497.070312" xlink:href="#DejaVuSans-6e"/>
     <use x="560.449219" xlink:href="#DejaVuSans-20"/>
     <use x="592.236328" xlink:href="#DejaVuSans-72"/>
     <use x="633.318359" xlink:href="#DejaVuSans-65"/>
     <use x="694.841797" xlink:href="#DejaVuSans-73"/>
     <use x="746.941406" xlink:href="#DejaVuSans-6f"/>
     <use x="808.123047" xlink:href="#DejaVuSans-6e"/>
     <use x="871.501953" xlink:href="#DejaVuSans-61"/>
     <use x="932.78125" xlink:href="#DejaVuSans-6e"/>
     <use x="996.160156" xlink:href="#DejaVuSans-63"/>
     <use x="1051.140625" xlink:href="#DejaVuSans-65"/>
    </g>
   </g>
   <g id="legend_1">
    <g id="patch_7">
     <path d="M 135.34 90.06025 
L 173.688438 90.06025 
Q 175.688438 90.06025 175.688438 88.06025 
L 175.688438 59.704 
Q 175.688438 57.704 173.688438 57.704 
L 135.34 57.704 
Q 133.34 57.704 133.34 59.704 
L 133.34 88.06025 
Q 133.34 90.06025 135.34 90.06025 
z
" style="fill:#ffffff;opacity:0.8;stroke:#cccccc;stroke-linejoin:miter;"/>
    </g>
    <g id="line2d_17">
     <path d="M 137.34 65.802437 
L 157.34 65.802437 
" style="fill:none;stroke:#1f77b4;stroke-linecap:square;stroke-width:1.5;"/>
    </g>
    <g id="line2d_18"/>
    <g id="text_17">
     <!-- S -->
     <g transform="translate(165.34 69.302437)scale(0.1 -0.1)">
      <use xlink:href="#DejaVuSans-53"/>
     </g>
    </g>
    <g id="line2d_19">
     <path d="M 137.34 80.480563 
L 157.34 80.480563 
" style="fill:none;stroke:#ff7f0e;stroke-linecap:square;stroke-width:1.5;"/>
    </g>
    <g id="line2d_20"/>
    <g id="text_18">
     <!-- i -->
     <g transform="translate(165.34 83.980563)scale(0.1 -0.1)">
      <use xlink:href="#DejaVuSans-69"/>
     </g>
    </g>
   </g>
  </g>
 </g>
 <defs>
  <clipPath id="p7925f8989d">
   <rect height="338.184" width="795.708" x="128.34" y="52.704"/>
  </clipPath>
 </defs>
</svg>
